<svg xmlns="http://www.w3.org/2000/svg" width="103" height="103"><g data-name="パス 4244" fill="#fff"><path d="M51.5 101.5c-6.75 0-13.299-1.322-19.462-3.929a49.835 49.835 0 01-15.893-10.716A49.835 49.835 0 015.429 70.962C2.822 64.799 1.5 58.25 1.5 51.5c0-6.75 1.322-13.299 3.929-19.462a49.836 49.836 0 0110.716-15.893A49.836 49.836 0 0132.038 5.429C38.201 2.822 44.75 1.5 51.5 1.5c6.75 0 13.299 1.322 19.462 3.929a49.835 49.835 0 0115.893 10.716 49.835 49.835 0 0110.716 15.893c2.607 6.163 3.929 12.711 3.929 19.462 0 6.75-1.322 13.299-3.929 19.462a49.835 49.835 0 01-10.716 15.893 49.835 49.835 0 01-15.893 10.716C64.799 100.178 58.25 101.5 51.5 101.5z"/><path d="M51.5 3c-6.549 0-12.9 1.282-18.877 3.81a48.342 48.342 0 00-15.418 10.395A48.342 48.342 0 006.81 32.623C4.282 38.6 3 44.95 3 51.5c0 6.549 1.282 12.9 3.81 18.877a48.342 48.342 0 0010.395 15.418A48.342 48.342 0 0032.623 96.19C38.6 98.718 44.95 100 51.5 100c6.549 0 12.9-1.282 18.877-3.81a48.342 48.342 0 0015.418-10.395A48.342 48.342 0 0096.19 70.377C98.718 64.4 100 58.05 100 51.5c0-6.549-1.282-12.9-3.81-18.877a48.342 48.342 0 00-10.395-15.418A48.342 48.342 0 0070.377 6.81C64.4 4.282 58.05 3 51.5 3m0-3C79.943 0 103 23.057 103 51.5S79.943 103 51.5 103 0 79.943 0 51.5 23.057 0 51.5 0z" fill="#604229"/></g><path data-name="パス 4334" d="M32.128 77.7a9.257 9.257 0 00-.266 2c0 1.9 1.582 2.968 4.76 2.968a22.115 22.115 0 004.816-.458l-.014-1.96a19.66 19.66 0 01-4.872.55c-2 0-2.828-.644-2.828-1.526a5.705 5.705 0 01.224-1.4zm7.742-6.732a10.654 10.654 0 01.6 1.008c-1.064.1-2.59.182-3.92.182a35.86 35.86 0 01-3.766-.168v1.848c1.12.084 2.324.154 3.78.154 1.316 0 3.038-.1 4-.168v-1.666c.14.28.28.546.392.77l1.134-.49c-.266-.518-.77-1.4-1.12-1.918zm1.652-.63a14.843 14.843 0 011.134 1.932l1.106-.476a15.454 15.454 0 00-1.134-1.9zm14.6 5.012l-.308.112H53.6l.336-.546c-.322-.154-.742-.308-1.2-.49a23.082 23.082 0 003.234-2.66l-1.19-.938-.378.1H46.03v1.526h6.762a14.572 14.572 0 01-1.778 1.316c-.784-.294-1.568-.56-2.2-.784l-.826 1.26c.9.336 2.03.784 3.066 1.218h-6.37v1.582h5.53v4.3c0 .21-.084.266-.35.28s-1.316 0-2.142-.028a5.67 5.67 0 01.6 1.6 8.748 8.748 0 002.762-.26c.672-.238.868-.658.868-1.54v-4.354h2.954a17.7 17.7 0 01-1.092 1.722l1.428.826a18.648 18.648 0 002.24-3.654zm2.87 2.982a10.179 10.179 0 01-.74 3.248 8.229 8.229 0 011.274.6 12.944 12.944 0 00.84-3.612zm3.122.308a14.249 14.249 0 01.826 2.7l1.316-.462a15.965 15.965 0 00-.91-2.632zm4.368-6.132a16.056 16.056 0 00.686-2l-1.708-.364a11.147 11.147 0 01-2.308 4.656l-.1-.168-1.176.518c.168.294.336.63.49.966l-1.414.056a45.069 45.069 0 002.674-3.794l-1.414-.588a21.891 21.891 0 01-1.288 2.3 8.373 8.373 0 00-.49-.588c.5-.784 1.078-1.862 1.582-2.828l-1.47-.518a16.787 16.787 0 01-1.022 2.436l-.334-.292-.784 1.148a13.189 13.189 0 011.68 1.918c-.21.308-.434.6-.644.868l-1.036.042.14 1.456 2.072-.14v5.64h1.47v-5.754l.8-.056a7.618 7.618 0 01.2.756l1.26-.588a11.15 11.15 0 00-1.098-2.618 10.7 10.7 0 011.316.924 11.535 11.535 0 001.19-1.806h3.864c-.154 4.774-.364 6.818-.784 7.252a.691.691 0 01-.588.238c-.378 0-1.176 0-2.058-.084a3.98 3.98 0 01.56 1.68 13.364 13.364 0 002.184-.042 1.735 1.735 0 001.344-.77c.588-.742.784-2.954.966-9.086.014-.21.014-.77.014-.77zm1.582 6.4a13.168 13.168 0 00-1.82-3.136l-1.33.672a13.225 13.225 0 011.708 3.234z" fill="#62462c"/><g data-name="cancel (1)" fill="#62462c"><path data-name="パス 4233" d="M50.195 48.486h2.61v2.61h-2.61z"/><path data-name="パス 4234" d="M39.793 38.695h2.61v2.61h-2.61z"/><path data-name="パス 4235" d="M60.597 48.486h2.61v2.61h-2.61z"/><path data-name="パス 4236" d="M39.793 48.486h2.61v2.61h-2.61z"/><path data-name="パス 4237" d="M66.8 22.948h-.856v3.59a1.143 1.143 0 01-2.285 0v-4.9a1.143 1.143 0 00-2.285 0v1.31H58.6v3.59a1.143 1.143 0 11-2.285 0v-4.9a1.143 1.143 0 00-2.285 0v1.31h-2.774v3.59a1.143 1.143 0 11-2.285 0v-4.9a1.143 1.143 0 00-2.285 0v1.31h-2.773v3.59a1.143 1.143 0 01-2.285 0v-4.9a1.143 1.143 0 00-2.285 0v1.31H36.2A4.207 4.207 0 0032 27.15v3.141h39V27.15a4.207 4.207 0 00-4.2-4.2z"/><path data-name="パス 4238" d="M32 55.298a4.207 4.207 0 004.2 4.2h30.6a4.207 4.207 0 004.2-4.2V32.576H32zm26.312-17.745a1.143 1.143 0 011.143-1.143h4.9a1.143 1.143 0 011.143 1.143v4.9a1.143 1.143 0 01-1.143 1.143h-4.9a1.143 1.143 0 01-1.143-1.143zm0 9.791a1.143 1.143 0 011.143-1.143h4.9a1.143 1.143 0 011.143 1.143v4.9a1.143 1.143 0 01-1.143 1.143h-4.9a1.143 1.143 0 01-1.143-1.143zm-10.068-8.983a1.143 1.143 0 111.616-1.618l1.64 1.64 1.64-1.64a1.143 1.143 0 111.616 1.616l-1.64 1.64 1.64 1.64a1.143 1.143 0 11-1.616 1.616l-1.64-1.64-1.64 1.64a1.143 1.143 0 01-1.616-1.616l1.64-1.64zm-.334 8.982a1.143 1.143 0 011.143-1.143h4.9a1.143 1.143 0 011.137 1.143v4.9a1.143 1.143 0 01-1.143 1.143h-4.9a1.143 1.143 0 01-1.137-1.143zm-10.4-9.791a1.143 1.143 0 011.143-1.143h4.9a1.143 1.143 0 011.143 1.143v4.9a1.143 1.143 0 01-1.143 1.143H38.65a1.143 1.143 0 01-1.143-1.152zm0 9.791a1.143 1.143 0 011.143-1.143h4.9a1.143 1.143 0 011.143 1.143v4.9a1.143 1.143 0 01-1.143 1.143H38.65a1.143 1.143 0 01-1.143-1.143z"/><path data-name="パス 4239" d="M60.597 38.695h2.61v2.61h-2.61z"/></g></svg>