<svg xmlns="http://www.w3.org/2000/svg" width="103" height="103"><g data-name="楕円形 2" fill="#fff" stroke="#62462c" stroke-width="3"><circle cx="51.5" cy="51.5" r="51.5" stroke="none"/><circle cx="51.5" cy="51.5" r="50" fill="none"/></g><path data-name="パス 4335" d="M27.906 81.754c-.364 0-1.008-.392-1.008-.812 0-.49.56-1.064 1.414-1.5.028.728.042 1.358.042 1.708 0 .478-.196.604-.448.604zm1.974-4.984c0-.406 0-.826.014-1.246a26.776 26.776 0 002.646-.434l-.04-1.736a18.986 18.986 0 01-2.548.518l.042-.994c.028-.35.084-.952.112-1.2H28.2a11.006 11.006 0 01.1 1.218c0 .238 0 .644-.014 1.134-.28.014-.546.028-.8.028a15.189 15.189 0 01-1.918-.112l.032 1.676c.6.056 1.3.07 1.932.07.224 0 .476-.014.742-.028v1.162c0 .322 0 .644.014.966-1.698.742-3.112 1.988-3.112 3.208 0 1.468 1.918 2.63 3.276 2.63.9 0 1.526-.448 1.526-2.17 0-.476-.042-1.54-.07-2.646a9.842 9.842 0 012.6-.378c1.2 0 2.044.546 2.044 1.484 0 1.008-.9 1.582-2.016 1.778a10.6 10.6 0 01-1.708.1l.648 1.776a11.3 11.3 0 001.824-.224c2.2-.546 3.052-1.778 3.052-3.416 0-1.9-1.68-3.038-3.808-3.038a11.284 11.284 0 00-2.66.364zm3.42-2.24a21.061 21.061 0 013.332 2.016l.84-1.428a30.627 30.627 0 00-3.4-1.946zm9.646-1.582v.752H40.8v-.756zM40.8 75.622v-.8h2.142v.8zm3.7 1.26v-5.208h-5.352v12.544H40.8v-7.336zm1.61 2.338v1.652H43.8V79.22zm1.55 3.024v-4.4h-5.418v5.184H43.8v-.784zm-.616-6.608v-.812h2.212v.812zm2.212-2.7v.77h-2.212v-.77zm1.694-1.26h-5.488V76.9h3.794v5.3c0 .252-.1.336-.364.336s-1.218.028-2.03-.028a5.961 5.961 0 01.56 1.708 6.877 6.877 0 002.744-.316c.588-.266.784-.742.784-1.666zm10.836 8.286v2.282h-5.53v-2.282zm-7.168 4.27h1.638v-.518h5.53v.518h1.708v-5.74h-8.876zm1.554-8.6a14.3 14.3 0 002.786-2.842 15.337 15.337 0 002.87 2.842zm1.848-4.48a14.821 14.821 0 01-5.7 4.984 6.8 6.8 0 011.052 1.364 19.506 19.506 0 002.17-1.372v.98h6.972v-.968a16.793 16.793 0 002.142 1.33 8.138 8.138 0 011.078-1.5 14.064 14.064 0 01-5.992-4.816zm16.786.91a10.737 10.737 0 01.1 1.26v1.568c-1.26.112-2.6.238-3.78.35.014-.546.014-1.008.014-1.33a10.966 10.966 0 01.084-1.442h-1.96a10.468 10.468 0 01.112 1.54v1.4l-1.05.1c-.7.056-1.344.084-1.736.084l.182 1.778c.364-.056 1.232-.2 1.666-.252l.938-.1c0 1.3 0 2.646.014 3.234.056 2.394.49 3.15 4.088 3.15a38.953 38.953 0 003.946-.22l.07-1.9a25.783 25.783 0 01-4.144.364c-2.086 0-2.2-.308-2.24-1.666-.028-.588-.014-1.862 0-3.136 1.19-.126 2.548-.252 3.766-.35a15.67 15.67 0 01-.1 1.666c-.042.266-.154.322-.434.322a8.649 8.649 0 01-1.272-.172l-.042 1.526a17.546 17.546 0 002.086.21c.714 0 1.064-.182 1.2-.91a24.253 24.253 0 00.21-2.772c.406-.028.77-.042 1.064-.056.378-.014 1.106-.028 1.344-.014v-1.708c-.406.028-.952.07-1.33.1-.322.014-.672.042-1.05.07.014-.462.028-.952.042-1.5a11.81 11.81 0 01.084-1.19z" fill="#62462c"/><g data-name="グループ 22"><g data-name="グループ 21"><path data-name="パス 4240" d="M58.806 41.909l-3.853 3.866a4.264 4.264 0 01-5.907 0l-3.853-3.866-13.837 13.882a4 4 0 001.687.38h37.914a4 4 0 001.686-.38z" fill="#62462c"/></g></g><g data-name="グループ 24"><g data-name="グループ 23"><path data-name="パス 4241" d="M70.957 23.828H33.043a4 4 0 00-1.687.38l14.786 14.836 4.808 4.824a1.618 1.618 0 002.091 0l4.807-4.823 14.795-14.837a4 4 0 00-1.686-.38z" fill="#62462c"/></g></g><g data-name="グループ 26"><g data-name="グループ 25"><path data-name="パス 4242" d="M29.43 26.093a3.993 3.993 0 00-.43 1.778v24.258a3.992 3.992 0 00.43 1.778l13.861-13.906z" fill="#62462c"/></g></g><g data-name="グループ 28"><g data-name="グループ 27"><path data-name="パス 4243" d="M74.57 26.093L60.709 40 74.57 53.906a3.994 3.994 0 00.43-1.778V27.871a3.993 3.993 0 00-.43-1.778z" fill="#62462c"/></g></g></svg>