<?xml version="1.0" encoding="utf-8"?>
<!-- Generator: Adobe Illustrator 26.0.2, SVG Export Plug-In . SVG Version: 6.00 Build 0)  -->
<svg version="1.1" id="レイヤー_1" xmlns="http://www.w3.org/2000/svg" xmlns:xlink="http://www.w3.org/1999/xlink" x="0px"
	 y="0px" viewBox="0 0 363.9 467.3" style="enable-background:new 0 0 363.9 467.3;" xml:space="preserve">
<style type="text/css">
	.st0{enable-background:new    ;}
</style>
<g id="グループ_59" transform="translate(871.486 444.004)">
	<path id="パス_2" d="M-852-137.7c8.1,0.8,10.3,3,11.7,11.6c2.3,0.5,4.8,0.8,7,1.7c1.5,0.7,2.6,1.9,3.1,3.5
		c0.3,1.8-1.4,2.8-3.2,3.3c-1.5,0.4-2.9,0.8-4.8,1.2c0.1,1.3,0.1,2.6,0,4c-0.5,2.6,0.8,4.1,2.9,5.2c3.1,1.6,6.2,3.3,9.3,5
		c1.8,1,3.7,2,2.9,4.5c-0.9,2.4-3.6,3.6-6,2.9c-3-1.1-5.8-2.6-9.2-4.3c-0.9,4.5,0.5,9.1,0.1,13.8c-0.4,4.7-0.3,9.4-0.5,14
		c-5.5,2-9.5,0-11.2-5.2c-0.9-2.4-1.1-5-0.7-7.5c0.6-3.1,0.1-6.4,0.1-10.3c-3.5,2.3-6.7,4.5-10,6.6c-1.4,0.9-3,1.9-4.6,1.9
		c-5,0-7.9-7.3-6.1-10.3c2-3.3,4.1-6.5,7.6-8.3c4.2-2.2,6.8-6,9.8-10.1c-3.8-0.6-7.3-0.6-10.5-1.8c-3.3-1.1-5.9-3.8-6.9-7.1
		c3.4-2.6,6.7,1.2,10.1,0.3c3.4-0.8,7-1,10.7-1.5C-849.8-129.1-850.5-133.6-852-137.7"/>
	<path id="パス_5" d="M-849.4-180.3c-1.7,1.3-2.8,2.3-3.9,3.2c-2.1,1.8-4.1,3.8-6.3,5.3c-3.6,2.5-5.3,1.8-7-2.2
		c-0.3-0.7-0.5-1.4-0.9-2.7c3.2-2.9,6.7-5.9,9.9-9.1c2.5-2.5,4.8-5.1,6.9-8c-4.5-0.2-8.9-0.4-13.5,2.4c-0.5-4.4-6-6.6-3.2-11.8
		c6.3,4.3,12.5,0.8,19.4,0.5c-0.2-2.6-0.5-4.9-0.7-7.8l-7.5,2.2l-4.7-7.8c1.2-1.4,2-2.4,2.9-3.3c1.3-1.5,2.8-2.8,4.5-3.9
		c3.7-2.1,7.5-4,11.3-5.7c1.2-0.4,2.5-0.3,3.6,0.5c1.9,2.2,3.7,4.5,5.4,6.9c-1.1,6-7.1,4.6-10.2,7.9l2.4,1.9v6.5
		c3,0.5,5.9,0.5,8.4,1.4c2.5,0.9,4.7,2.6,7.1,4c-3.4,6-8.9,2.1-13.2,4.1c-0.2,1.4-0.4,3.2-0.7,5c3,1.8,6,3.5,8.8,5.3
		c4.1,2.8,4,4.5-0.8,7.4l-7.9-4.7c-1.6,5.7-1.4,11.3-1,16.9c0.3,3.7,0.4,3.6-2.6,6.8c-4.1-1.5-6.3-4.8-6.3-9.5
		C-849.4-172.3-849.4-175.8-849.4-180.3"/>
	<path id="パス_6" d="M-857-29.6l-5.7,1.9c-5-1.7-6.6-6.1-8.6-11.1c2.6,0.6,5.3,0.9,8,1.1c2.7-0.1,5.5-0.4,8.2-0.8
		c0.5-3.6,1-7.2,1.4-10.8c5.8,2.7,5.8,2.7,5.6,9.4c6.3-1.7,10.8,1.4,15,5.4c-3.5,5-9,3-13.8,4.4c-0.3,1.1-0.5,2.2-0.8,3.5
		c4.6,2.3,9.8,3.1,13.4,7.1c-2.3,3.2-3.3,3.6-6.4,2.5c-2-0.7-3.9-1.6-6.4-2.7c-0.3,3-0.7,5.7-0.7,8.4c0,3.1-0.7,5.8-3.4,7.6
		c-4.2-3.3-4.5-4-5.3-9.9l-10.5,5.1c-3.6-5-3.4-7,0.9-10.2c3.9-2.9,7.7-6,10-10.3C-856.5-29.1-856.8-29.4-857-29.6"/>
	<path id="パス_7" d="M-830.8-41c2.1,2.1,4.8,1.8,7.5,1.2c1.9-0.4,3.9-0.7,5.9-0.9c4.3-0.7,8.7,0.5,12.1,3.2
		c3.8,3,3.9,7.4,3.5,11.8c-0.2,2.7-0.5,5.4-0.8,8.1c0,1.8-0.3,3.7-0.7,5.5c-1,3.1-3.9,4-6,1.7c-1.9-2.2-3.8-2.2-6.2-1.5
		c-2.7,0.8-5.5,1.6-8.8,2.6c-3.1-2.2-4.9-5.8-4.8-9.6c0-2.6-0.4-5.2-0.5-7.8c-0.1-3.6-0.5-7.1-2.3-10.2
		C-832.7-38.4-832.7-39.8-830.8-41 M-810-31.2c-0.2-1.4-0.4-2.6-0.5-3.8c-7.7,0.8-12.3,2-14.4,4.3C-819.8-30.4-815.1-31.2-810-31.2
		 M-810.8-26.5c-7.4,1-7.4,1-9.9,3.3c2.7-0.2,5.1-0.4,7.6-0.5c0.5,0,0.9,0,1.4-0.1C-810.1-24.2-810-25.2-810.8-26.5 M-811-16.5
		c-1-1.3-1.4-2.1-1.9-2.2c-2.1-0.6-5.1,0.6-8.1,2.9L-811-16.5"/>
	<path id="パス_9" d="M-826.2-206.7c2.2,1.1,3.4,1.7,4.7,2.2c0.9,0.5,1.9,0.8,3,0.9c4.9-0.1,9.8-0.2,14.7-0.8
		c3.5-0.4,6.3,0.8,9.1,2.5c0.9,0.6,1.5,1.6,1.7,2.7c0.7,4.7,1.3,9.3,0.5,14.2c-0.5,3.1-2.8,4.7-4.3,7c-1.8,2.7-4.5,1.9-7.1,1.8
		c-2.6-0.1-5.2,0.2-7.8,0.8c-4.4,1-8.1-0.5-10.4-4.5c-1.6-2.6-2.3-5.7-2.1-8.7C-823.8-194.3-823.5-200.1-826.2-206.7 M-800.3-197.7
		c-5,0.3-9.6,0.4-14.2,0.8c-2.8,0.3-4.7,3-4.3,6c0.3,2.8,0.9,5.6,1.4,8.2c4.2,0,7.9,0,11.6,0c2.1,0,3.2-1.1,4.2-3
		C-799.6-189.3-799.6-193.2-800.3-197.7"/>
	<path id="パス_10" d="M-816.5-127.7c2.8,1.9,5.2,3.5,7.5,5.2c0.7,0.7,1.2,1.7,1.2,2.7c0.1,3.8,0.1,7.7,0.1,11.6
		c7,2.6,14.7,2.8,19.5,9c-0.1,0.2-0.3,0.4-0.4,0.6c-3.9,3.2-7.8,2.1-11.9,0.2c-1.8-0.6-3.6-1.1-5.4-1.4c0,4.4-0.1,8.4,0,12.3
		c0.2,3.3-0.5,4.7-3,5.8c-1.2,0.7-2.8,0.5-3.8-0.6c-3.6-3.4-6.4-7-5.6-12.4c1-7,1.9-14,2.4-21C-815.5-119.3-816.2-123.1-816.5-127.7
		"/>
	<path id="パス_13" d="M-850.2-0.2c3.2,2.3,6.1,4.3,8.9,6.5c6.5,5.1,14.2,7.2,22,9.1c1.3,0.3,3-0.3,4.4-0.8
		c1.4-0.6,2.8-1.4,4.1-2.2c5-2.6,7.9-1.8,11.2,3.4c-3.6,5.2-8.3,8.1-15,7.5c-4.8-0.3-9.4-1.5-13.7-3.6c-3.3-1.6-6.7-2.9-10.2-4
		c-4.4-1.6-8.3-4.6-10.9-8.6C-851.5,4.3-851.5,4.3-850.2-0.2"/>
	<path id="パス_18" d="M-804.5-7.5c4.2,2.2,8.5,4.4,12.6,6.7c1.5,0.7,3,1.6,4.3,2.7c1.4,0.9,1.7,2.8,0.8,4.2
		c-0.2,0.4-0.6,0.6-0.9,0.9c-1.3,1-2.7,2-4,2.9c-6.4-3.3-11.7-8.3-15.4-14.5L-804.5-7.5"/>
	<path id="パス_19" d="M-865.1,6.2c3,2,6,3.9,8.8,5.9c0.6,0.6,0.9,1.6,0.8,2.4c-0.7,3.4-0.5,7.4-5.3,8.5c-3.3-1.9-5.2-5.3-7.1-8.5
		c-0.6-1-0.2-3,0.3-4.3C-867.2,8.9-866.1,7.7-865.1,6.2"/>
	<path id="パス_21" d="M-815.1,6.5l-5.1,2c-3.1-3.7-8.3-5.4-8.7-11.5c3.6,0.5,6.1,2.8,9.4,2.2c0.8-0.1,2.2,1.9,3,3.2
		C-815.8,3.4-815.6,4.7-815.1,6.5"/>
</g>
<g id="グループ_58" transform="translate(1017.083 229.333)">
	<path id="パス_1" d="M-826-93.4c-3.9,4-7.6,7.6-11.1,11.4c-5.5,6-11.8,9.1-19.9,5.4c-0.5-0.1-0.9-0.2-1.4-0.2
		c-0.5-0.1-0.9-0.3-1.3-0.5c-2.3-7.7-1.7-8.6,3.9-13.2c5.4-4.3,9.7-9.6,11.8-16.5c0.7-2.4,2.7-4.4,4-6.7c1.6-2.8,3.1-5.6,5-9.1
		c-1.1-0.1-2.1-0.1-3.2,0c-12.9,3.3-22.3-0.7-28.2-12.1c-0.6-1.1-0.9-2.5-1.8-3c-4.2-2.3-3.3-5.9-2.7-9.9c1.1,0.3,2.5,0.4,3.2,1.1
		c3.3,3,7.2,3.7,11.4,3.2c8.6-1,17.2-2,26.2-3c0.3-2.7,0.6-5.3,0.9-8.4c-1.6,0-3.2-0.5-4.2,0.1c-4.6,2.5-9,0.6-13.4-0.3
		c-3.7-0.8-9.1-8.8-7.6-12c1.6-3.1,4.2-5.5,7.3-7.1c7.8-3.8,14.7-8.3,19.6-15.8c3.6-5.5,8.3-5.8,13.4-1.7c2.1,1.7,4.1,3.4,6,5.3
		c1.2,1.2,2.7,2.5,3,4c1,3.7,1.5,7.4,1.5,11.2c-0.2,5-5.4,3.7-8.5,5.6c1.8,5.3,3.6,10.5,5.4,16.1c4.4,0,9.3,0.8,13.9-0.2
		c5.6-1.2,9.8-0.5,13.2,4.2c0.5,0.7,1.5,1,2.5,1.5c-0.6,2.6-0.4,6-2,7.2c-3.5,2.8-7.4,5-11.7,6.4c-4.7,1.5-9.9,1.6-15.5,2.4
		c-0.1,2.2-0.2,4.5-0.3,6.3c5.9,3,11.3,5.4,16.4,8.4c4.7,2.8,5.1,5.1,3.5,11c-6.3,2.9-11.6-1.2-18-2.4c-2.5,8.9-2.6,18-2.2,27
		c0.2,4.3,0.6,8.6,0.6,13c0,6.2-5.2,10.3-11.4,9.3c-6.5-1-11.9-7.9-11-14.6c0.9-7.1,2.2-14.2,3.2-21.3
		C-825.3-91.7-825.8-92.4-826-93.4"/>
	<path id="パス_3" d="M-821.6,26.7c3.6,1.2,6.1,1.5,7.9,2.7c6.2,4.4,12.2,8.9,15.2,16.8c4.6,11.7,14.9,18.3,25.7,23.1
		c14.5,6.2,30.1,9.1,45.8,8.6c6-0.2,12.5-0.7,16.9-6.5c3.8-5,13.9-5.9,19.8-3.6c4.7,1.9,7.7,5,11.4,7.9c2.5,1.7,3.4,5.1,2,7.8
		c-2.7,5.6-5.3,11.4-12.5,12.8c-5.9,1.2-11.7,2.6-17.6,3.8c-1.2,0.2-2.4,0.1-3.6,0.4c-22.4,6-42.7-0.5-62.4-10.6
		c-12.2-6.3-23.2-14.8-32.4-25c-6.4-6.9-10.8-15.4-12.9-24.6C-819.1,36.2-820.2,32.3-821.6,26.7"/>
	<path id="パス_4" d="M-771.9-152.9c10.4,2.8,18.9-3,28.9-3.1c-12.1-11-14.2-18.4-7-26.3c3.7,2.2,7.9,4.1,11.5,6.8
		c5.1,3.9,5.8,8.1,3.3,14.1c-0.5,1.3-1.3,2.5-2.3,4.5c2.1-0.4,4.1-0.7,6.2-0.8c1.9,0.2,3.8,0.6,5.6,1.1c0.1-0.6,0.4-1.1,0.3-1.3
		c-7.8-8.2-5.9-17.3-2.4-26.5c0.7-1.8,1.5-3.5,2.6-6.2c5.3,1.7,10.7,2.9,15.4,5.2c3.8,1.9,5.2,5.9,4.6,10.5
		c-1.1,7.9-5.4,13.7-11.3,18.5c-0.7,0.6-1.4,1.2-2.8,2.3c12.4,4.2,14.8,13.2,13.1,24.3c-0.7,5-1,10.1-1.9,15.1
		c-1.3,7.2-3.7,9.1-11.3,9.4c-7.4,0.3-14.9,0.4-22.3,0.9c-2.6,0.3-5.1,1-7.5,1.9c-8.8,2.8-14.3,0.3-18.7-8.8
		c7.4-1.3,14.6-2.8,21.9-3.7c7.3-0.9,14.8-1.2,22.4-1.7v-9.2c-6.5,0.4-12.3,2.1-18.1,4.1c-2.5,0.9-5,1.6-7.6,2.1
		c-7.6,1.6-11.9-1.1-14.4-9c13.9-1.1,26.7-7.8,41-7.2v-11.3c-1.5-0.2-2.5-0.6-3.3-0.3c-7.3,2.4-14.6,5-21.8,7.5
		c-0.2,0.1-0.4,0.3-0.6,0.3C-760.9-135.3-768.4-139.4-771.9-152.9"/>
	<path id="パス_8" d="M-735.7-229.3c9.6,4.2,15.3,11,19.3,22.5c-4.1,8.8-13,10.4-20.7,13.8c-9.2,4-19.7,3.7-28.6,9
		c-4.7,2.8-9.4-0.3-11.5-5.8c-0.5-1.3-1.2-2.6-1.9-4.2c2.3-3.1,5.6-5.5,9.3-6.6c5.5-2,10.2-6.7,14.9-10.7
		C-748.3-217.2-742-223.5-735.7-229.3"/>
	<path id="パス_11" d="M-824.8,75.5c-2.2,6-4,12.3-6.6,18.1c-2,4.2-6.6,5.8-11.1,4.6c-2.8-0.7-5.5-1.7-8-3.1
		c-5.9-3.3-7.5-7.5-6.8-14.3c0.3-4.5,0.4-9,0.2-13.5c0-4.7,3-7.7,5.7-10.9c0.9-0.8,2.1-1.2,3.3-1c7.4,1.9,14.1,5.8,19.3,11.3
		C-826.8,68.8-826.3,72.2-824.8,75.5"/>
	<path id="パス_12" d="M-758.6-96.8c5.5,2.7,10.6,4.4,12.7,10c0.5,0.8,1.2,1.5,2.1,1.8c6.1,2.9,12.1,5.8,18.3,8.4
		c4.9,2.1,9.3,0.8,12.9-3.2c0.7-1,1.5-1.9,2.4-2.7c3-2.1,6.4-4.2,10-2.3c4.4,2.3,8.7,5.1,10.5,10.3c0.1,0.4-0.1,0.9-0.1,1.4
		c-0.7,6.1-8.2,13.3-14.5,13.9c-11.1,1.2-20.8-2.8-30-8.4c-10.5-6.3-19.8-13.8-23.7-26.1C-758.3-94.7-758.5-95.7-758.6-96.8"/>
	<path id="パス_14" d="M-664.6,54.6c-7.4,0.4-11.7-5-15.5-10.5c-3.1-4.5-5.1-9.7-7.1-14.9c-2-5.3,2.1-10,7.5-8.6
		c4.2,0.9,8.3,2.3,12.2,4.2c7.2,3.6,11.4,10.1,14,17.5C-651.7,47-658.7,54.8-664.6,54.6"/>
	<path id="パス_15" d="M-745.1,19.4c2.7,0.9,5.6,1.5,8.1,2.8c5.3,2.7,10.2,6.3,13.4,11.5c2.7,4.4,2,7.5-1.8,10.9
		c-6.3,5.8-11.8,6.1-18.7,1.1c-5.5-4-9.3-9.1-10.2-15.9C-755.2,24.1-751,19.8-745.1,19.4"/>
	<path id="パス_16" d="M-781.4-91.6c4.2,0.9,8.2,1.5,12,2.5c3.5,0.9,6,3.7,5.1,6.7c-1.3,4.7-2.1,9.7-5.5,13.8
		c-4.1,4.8-6.1,4.9-12.6,2c-5.1-2.4-7.2-7.6-5.2-12.5C-785.7-83.4-783.4-87.5-781.4-91.6"/>
	<path id="パス_17" d="M-780.1-179.4c7.5,0.1,13.8,0.9,19.3,5.3c2.8,2.2,4.3,4.5,3.4,7.9c-0.9,3.5-2,6.9-2.9,10.1
		c-10.3,2.3-17.1-2.4-18.4-12.3C-779.2-172-779.6-175.6-780.1-179.4"/>
	<path id="パス_20" d="M-701.6-102.1c7.8-2.6,15.7-0.3,18.8,5.5c1.4,2.7,2.7,5.2,0.1,7.9c-2.4,2.4-6,3.3-9.3,2.2
		C-696.4-88.2-701.7-96.8-701.6-102.1"/>
	<path id="パス_22" d="M-729.7-100.6c5.2-1.9,9.3,0.3,13.4,2c2.5,1,3.1,8.1,1.3,10.4c-1.5,2-5.9,2.9-7.8,0.9
		C-726.1-90.9-730.4-94.1-729.7-100.6"/>
</g>
<g class="st0">
	<path d="M207,403.7c0-1.1,0.3-2.2,0.8-3.1c0.5-0.9,1.3-1.7,2.2-2.2c0.9-0.5,2-0.8,3.2-0.8c1.2,0,2.3,0.3,3.2,0.8
		c0.9,0.5,1.7,1.3,2.2,2.2c0.5,0.9,0.8,2,0.8,3.1c0,1.1-0.3,2.2-0.8,3.1c-0.5,0.9-1.3,1.7-2.2,2.2s-2,0.8-3.2,0.8
		c-1.2,0-2.2-0.3-3.2-0.8c-0.9-0.5-1.7-1.3-2.2-2.2C207.3,406,207,404.9,207,403.7z M208.5,403.8c0,0.9,0.2,1.8,0.6,2.5
		s1,1.3,1.7,1.8c0.7,0.4,1.5,0.7,2.4,0.7c0.9,0,1.7-0.2,2.4-0.7c0.7-0.4,1.3-1,1.7-1.8s0.6-1.6,0.6-2.5s-0.2-1.8-0.6-2.5
		s-1-1.3-1.7-1.8c-0.7-0.5-1.5-0.7-2.4-0.7c-0.9,0-1.7,0.2-2.5,0.7s-1.3,1.1-1.7,1.8S208.5,402.9,208.5,403.8z"/>
	<path d="M231.6,397.9l0.1,3.7l-0.2-0.7c0.3-1,1-1.8,1.9-2.4c0.9-0.6,2-0.9,3.2-0.9c1.1,0,2,0.3,2.7,1c0.7,0.7,1,1.5,1,2.5v8.5h-1.4
		v-8.2c0-0.8-0.3-1.4-0.7-1.9s-1.1-0.8-2-0.8c-0.8,0-1.5,0.2-2.2,0.6s-1.2,0.9-1.6,1.6c-0.4,0.7-0.6,1.5-0.6,2.4v6.3h-1.4v-11.7
		H231.6z"/>
</g>
<g class="st0">
	<path d="M222.9,437h5.6v1.3h-5.6V437z"/>
	<path d="M242.4,443.9c-0.7,0-1.4-0.1-2.1-0.4c-0.7-0.2-1.3-0.7-1.8-1.2l0.7-0.9c0.4,0.4,0.9,0.8,1.4,1c0.5,0.3,1.1,0.4,1.8,0.4
		c0.5,0,0.9-0.1,1.3-0.2s0.7-0.4,1-0.7c0.3-0.3,0.4-0.8,0.4-1.3c0-0.6-0.2-1-0.5-1.3c-0.3-0.3-0.7-0.5-1.2-0.7
		c-0.5-0.2-1-0.4-1.5-0.5c-0.9-0.3-1.6-0.7-2.1-1.1s-0.8-1.2-0.8-2c0-0.6,0.2-1.2,0.5-1.7c0.3-0.5,0.7-0.9,1.3-1.1
		c0.5-0.3,1.1-0.4,1.8-0.4c0.6,0,1.2,0.1,1.8,0.3c0.6,0.2,1.2,0.5,1.7,1l-0.6,1c-0.3-0.4-0.7-0.7-1.3-0.9c-0.5-0.2-1-0.2-1.4-0.3
		c-0.3,0-0.7,0.1-1.1,0.2c-0.4,0.1-0.7,0.3-0.9,0.6c-0.2,0.3-0.4,0.6-0.4,1.1c0,0.5,0.1,0.8,0.4,1.1s0.6,0.5,1,0.7
		c0.4,0.2,0.8,0.3,1.3,0.5c0.6,0.2,1.1,0.4,1.6,0.6c0.5,0.3,0.9,0.6,1.3,1c0.3,0.4,0.5,1,0.5,1.6c0,0.7-0.2,1.3-0.5,1.8
		s-0.7,1-1.3,1.3C244.1,443.8,243.3,443.9,242.4,443.9z"/>
	<path d="M257.3,443.7v-22.8h1.4v14.2l-0.1-0.5c0.4-0.8,1-1.5,1.9-2.1c0.9-0.6,1.9-0.9,3.1-0.9c1.1,0,2,0.3,2.7,1
		c0.7,0.7,1,1.5,1,2.5v8.5h-1.4v-8.2c0-0.8-0.3-1.4-0.7-1.9s-1.1-0.8-2-0.8c-0.8,0-1.5,0.2-2.2,0.6c-0.7,0.4-1.2,0.9-1.6,1.6
		c-0.4,0.7-0.6,1.5-0.6,2.3v6.3H257.3z"/>
	<path d="M279,427.6c0-0.3,0.1-0.5,0.3-0.7c0.2-0.2,0.5-0.3,0.7-0.3c0.3,0,0.5,0.1,0.7,0.3s0.3,0.4,0.3,0.7c0,0.3-0.1,0.5-0.3,0.7
		c-0.2,0.2-0.4,0.3-0.7,0.3c-0.3,0-0.5-0.1-0.7-0.3C279.1,428.1,279,427.9,279,427.6z M279.3,431.9h1.4v11.7h-1.4V431.9z"/>
	<path d="M293.8,431.9l0.1,3.7l-0.2-0.7c0.3-1,1-1.8,1.9-2.4c0.9-0.6,2-0.9,3.2-0.9c1.1,0,2,0.3,2.7,1c0.7,0.7,1,1.5,1,2.5v8.5h-1.4
		v-8.2c0-0.8-0.3-1.4-0.7-1.9s-1.1-0.8-2-0.8c-0.8,0-1.5,0.2-2.2,0.6s-1.2,0.9-1.6,1.6c-0.4,0.7-0.6,1.5-0.6,2.4v6.3h-1.4v-11.7
		H293.8z"/>
</g>
</svg>
