<svg xmlns="http://www.w3.org/2000/svg" width="412.727" height="352.05"><g fill="#fff"><g data-name="グループ 9"><path data-name="パス 1" d="M330.375 67.105c-1.906 1.965-3.728 3.767-5.461 5.651-2.731 2.967-5.817 4.49-9.831 2.667a4.145 4.145 0 00-.706-.092 5.25 5.25 0 01-.66-.253c-1.128-3.808-.844-4.241 1.942-6.5a16.637 16.637 0 005.805-8.159 17.231 17.231 0 011.99-3.3c.793-1.367 1.535-2.764 2.479-4.477a8.921 8.921 0 00-1.565.01c-6.344 1.65-11.008-.347-13.939-5.981-.272-.521-.459-1.254-.9-1.49-2.087-1.123-1.6-2.9-1.326-4.871.547.168 1.21.183 1.581.519a6.743 6.743 0 005.648 1.6c4.244-.493 8.489-.98 12.948-1.5l.437-4.127c-.8 0-1.57-.231-2.075.039-2.26 1.211-4.453.289-6.6-.152-1.842-.378-4.5-4.362-3.748-5.906a8.246 8.246 0 013.617-3.5c3.861-1.87 7.245-4.106 9.659-7.8 1.787-2.734 4.116-2.886 6.634-.842 1.016.824 2.012 1.68 2.94 2.6a4.834 4.834 0 011.479 1.974 21.478 21.478 0 01.741 5.536c-.092 2.483-2.656 1.851-4.2 2.746l2.687 7.965c2.152 0 4.591.385 6.842-.1 2.774-.6 4.854-.223 6.541 2.093.245.336.759.476 1.237.759-.314 1.288-.216 2.946-.969 3.554a17.809 17.809 0 01-5.761 3.168c-2.341.726-4.889.788-7.645 1.182-.057 1.075-.116 2.2-.162 3.1 2.895 1.467 5.6 2.65 8.105 4.161 2.316 1.4 2.522 2.516 1.722 5.433-3.087 1.446-5.738-.606-8.893-1.194a41.845 41.845 0 00-1.064 13.342c.1 2.134.311 4.267.306 6.4a4.653 4.653 0 01-5.646 4.589 6.818 6.818 0 01-5.441-7.225c.444-3.515 1.062-7.007 1.573-10.514.042-.288-.164-.611-.309-1.1"/><path data-name="パス 3" d="M329.55 122.965c1.79.593 3.021.717 3.9 1.342 3.083 2.2 6 4.4 7.518 8.269 2.265 5.762 7.365 9.038 12.7 11.385a52.474 52.474 0 0022.63 4.235c2.959-.079 6.165-.331 8.351-3.218 1.878-2.479 6.872-2.925 9.786-1.765 2.3.917 3.821 2.477 5.6 3.895a3.037 3.037 0 01.986 3.85c-1.311 2.757-2.638 5.635-6.16 6.34-2.9.58-5.786 1.265-8.683 1.879-.579.123-1.2.053-1.772.205-11.078 2.97-21.088-.234-30.817-5.245a56.241 56.241 0 01-15.989-12.334 26.7 26.7 0 01-6.36-12.154c-.454-1.949-.983-3.881-1.7-6.683"/><path data-name="パス 4" d="M357.115 37.714c5.144 1.361 9.32-1.468 14.25-1.522-5.991-5.424-6.987-9.094-3.48-12.992a51.368 51.368 0 015.653 3.352c2.5 1.921 2.865 4.019 1.628 6.981-.262.628-.62 1.216-1.135 2.212a19.953 19.953 0 013.08-.386 17.579 17.579 0 012.772.541c.066-.28.208-.555.138-.628-3.837-4.065-2.892-8.551-1.169-13.1.332-.874.719-1.728 1.284-3.074a55.805 55.805 0 017.606 2.582c1.892.944 2.573 2.9 2.27 5.182-.519 3.919-2.677 6.74-5.6 9.134-.354.289-.714.572-1.4 1.114 6.117 2.076 7.292 6.533 6.483 12.017-.365 2.474-.508 4.984-.939 7.445-.63 3.575-1.845 4.5-5.6 4.632-3.673.128-7.35.188-11.016.422a15.89 15.89 0 00-3.714.932c-4.336 1.388-7.071.164-9.219-4.326 3.629-.63 7.19-1.388 10.789-1.832 3.624-.446 7.286-.578 11.065-.857v-4.551a32.782 32.782 0 00-8.956 2.016 31.086 31.086 0 01-3.748 1.06c-3.747.778-5.861-.55-7.091-4.45 6.846-.552 13.173-3.858 20.236-3.578v-5.6a5.058 5.058 0 00-1.654-.149c-3.6 1.2-7.183 2.455-10.767 3.7-.112.039-.2.129-.315.17-6.021 2.261-9.742.257-11.451-6.441"/><path data-name="パス 8" d="M374.967 0c4.721 2.063 7.55 5.408 9.551 11.083-2.046 4.33-6.413 5.127-10.241 6.8-4.543 1.988-9.7 1.827-14.113 4.454-2.327 1.385-4.646-.139-5.66-2.863-.247-.662-.584-1.29-.947-2.081a9.113 9.113 0 014.584-3.273c2.736-.969 5.057-3.3 7.346-5.294 3.288-2.857 6.388-5.931 9.48-8.828"/><path data-name="パス 11" d="M327.973 147.1c-1.072 2.986-1.95 6.054-3.276 8.915a4.517 4.517 0 01-5.47 2.265 16.892 16.892 0 01-3.96-1.506c-2.9-1.627-3.693-3.68-3.344-7.057a61.805 61.805 0 00.12-6.669c-.014-2.3 1.489-3.818 2.8-5.4a1.916 1.916 0 011.62-.487 20.029 20.029 0 019.536 5.6c.981 1.012 1.262 2.7 1.975 4.34"/><path data-name="パス 12" d="M363.677 65.443c2.719 1.319 5.232 2.175 6.281 4.942a2.049 2.049 0 001.031.888c3 1.418 5.978 2.878 9.031 4.164a5.235 5.235 0 006.36-1.58 7.8 7.8 0 011.19-1.323c1.486-1.031 3.153-2.068 4.939-1.145 2.19 1.134 4.283 2.542 5.191 5.062.069.192-.047.449-.073.675-.353 3.032-4.041 6.556-7.147 6.881-5.487.576-10.259-1.376-14.812-4.132-5.178-3.135-9.75-6.822-11.717-12.878a15.426 15.426 0 01-.274-1.554"/><path data-name="パス 14" d="M407.096 136.759c-3.63.219-5.777-2.491-7.627-5.193a34.76 34.76 0 01-3.495-7.34 3.061 3.061 0 013.7-4.238 29.638 29.638 0 016 2.054c3.555 1.789 5.614 5.009 6.921 8.615.858 2.37-2.6 6.216-5.5 6.1"/><path data-name="パス 15" d="M367.322 119.398a27.932 27.932 0 013.983 1.363 15.752 15.752 0 016.6 5.681c1.323 2.191.975 3.679-.885 5.393-3.106 2.862-5.813 3.034-9.244.537a11.49 11.49 0 01-5.05-7.857c-.375-2.79 1.7-4.93 4.592-5.118"/><path data-name="パス 16" d="M352.43 67.991c2.078.425 4.025.76 5.938 1.233 1.72.425 2.94 1.848 2.532 3.3-.66 2.34-1.037 4.807-2.728 6.792-2.019 2.373-3.032 2.429-6.226.967a4.649 4.649 0 01-2.547-6.151c.892-2.111 2.023-4.122 3.03-6.137"/><path data-name="パス 17" d="M353.045 24.651c3.721.049 6.808.459 9.513 2.633 1.375 1.1 2.1 2.211 1.679 3.906s-.963 3.384-1.431 5.006c-5.107 1.134-8.459-1.167-9.067-6.09-.223-1.8-.457-3.6-.694-5.455"/><path data-name="パス 20" d="M391.79 62.831c3.875-1.295 7.732-.149 9.271 2.726.7 1.31 1.316 2.554.031 3.9a4.485 4.485 0 01-4.579 1.081c-2.15-.861-4.752-5.109-4.722-7.712"/><path data-name="パス 22" d="M377.94 63.526c2.555-.962 4.6.167 6.6.986 1.227.5 1.537 3.994.659 5.124-.754.971-2.906 1.413-3.855.421-1.647-1.722-3.768-3.32-3.4-6.531"/></g><g data-name="グループ 6"><path data-name="パス 5" d="M231.137 112.876c-1.376 1.124-2.334 1.887-3.269 2.673-1.762 1.481-3.405 3.132-5.292 4.431-3 2.063-4.41 1.538-5.816-1.848-.244-.586-.408-1.205-.765-2.281 2.676-2.428 5.548-4.91 8.273-7.545a49.14 49.14 0 005.749-6.676c-3.788-.195-7.388-.337-11.211 1.975-.414-3.646-4.966-5.539-2.64-9.86 5.218 3.619 10.414.647 16.146.391-.2-2.128-.389-4.044-.621-6.464l-6.282 1.843-3.916-6.521c.992-1.138 1.659-2.015 2.441-2.774a20.56 20.56 0 013.714-3.272 98.5 98.5 0 019.455-4.777 3.276 3.276 0 012.968.381 65.591 65.591 0 014.515 5.737c-.949 4.976-5.944 3.845-8.541 6.552l1.993 1.557v5.379c2.533.383 4.893.411 7 1.152 2.08.731 3.908 2.181 5.9 3.345-2.827 4.986-7.4 1.721-11.024 3.436l-.574 4.177c2.521 1.522 4.987 2.881 7.314 4.447 3.434 2.312 3.3 3.721-.687 6.2l-6.618-3.942c-1.375 4.731-1.142 9.432-.8 14.12.225 3.047.32 3.04-2.169 5.643-3.425-1.252-5.255-4.007-5.248-7.889.005-2.941 0-5.881 0-9.588"/><path data-name="パス 9" d="M250.484 90.854c1.852.9 2.848 1.432 3.882 1.871a6.443 6.443 0 002.465.786c4.085-.121 8.194-.174 12.243-.671a11.36 11.36 0 017.586 2.05 3.455 3.455 0 011.39 2.212c.542 3.906 1.093 7.793.443 11.8-.415 2.558-2.3 3.939-3.566 5.81-1.5 2.21-3.714 1.558-5.9 1.468a24.647 24.647 0 00-6.473.683 7.321 7.321 0 01-8.633-3.743 12.244 12.244 0 01-1.738-7.285c.339-4.685.534-9.466-1.693-14.977m21.638 7.529c-4.182.223-8.013.309-11.818.674a4.361 4.361 0 00-3.625 5.006c.277 2.367.786 4.707 1.156 6.847 3.5 0 6.564-.011 9.63 0 1.77.008 2.664-.955 3.5-2.468 1.722-3.127 1.753-6.324 1.16-10.061"/></g><g data-name="グループ 7"><path data-name="パス 2" d="M122.047 74.479c6.652.687 8.416 2.479 9.613 9.495a31.758 31.758 0 015.732 1.4 4.759 4.759 0 012.574 2.859c.273 1.452-1.18 2.316-2.619 2.69-1.194.311-2.389.616-3.948 1.018a17.858 17.858 0 01-.034 3.241c-.4 2.147.669 3.323 2.38 4.224q3.832 2.018 7.643 4.078c1.467.8 3.017 1.642 2.365 3.715a4.016 4.016 0 01-4.918 2.349c-2.439-.887-4.734-2.169-7.528-3.487-.723 3.648.432 7.479.118 11.262-.319 3.844-.273 7.719-.385 11.479-4.481 1.628-7.766.008-9.142-4.242a11.949 11.949 0 01-.573-6.15c.473-2.544.109-5.245.109-8.449-2.859 1.9-5.481 3.718-8.192 5.391a8.074 8.074 0 01-3.734 1.559c-4.074.025-6.492-5.942-4.971-8.4 1.656-2.682 3.327-5.284 6.225-6.833 3.432-1.836 5.563-4.944 8.031-8.244-3.077-.469-6-.462-8.555-1.434a8.832 8.832 0 01-5.639-5.82c2.787-2.1 5.456.953 8.3.244a80.53 80.53 0 018.748-1.233 26.8 26.8 0 00-1.6-10.7"/><path data-name="パス 10" d="M151.107 82.732c2.293 1.577 4.288 2.829 6.125 4.28a3.222 3.222 0 011 2.18c.109 3.129.046 6.263.046 9.482 5.716 2.159 12.045 2.285 16 7.406a2.32 2.32 0 01-.357.488c-3.194 2.582-6.4 1.708-9.718.18a24.75 24.75 0 00-4.421-1.119c0 3.619-.116 6.852.036 10.073.128 2.681-.441 3.836-2.471 4.781a2.533 2.533 0 01-3.1-.47c-2.922-2.742-5.215-5.7-4.559-10.167.841-5.714 1.578-11.457 1.994-17.214.221-3.078-.331-6.211-.572-9.9"/></g><g data-name="グループ 8"><path data-name="パス 6" d="M10.915 89.07l-4.328 1.47C2.775 89.24 1.534 85.899 0 82.088a48.972 48.972 0 006.087.88 52.967 52.967 0 006.24-.6l1.095-8.225c4.441 2.079 4.441 2.079 4.24 7.2 4.8-1.329 8.235 1.041 11.409 4.1-2.663 3.781-6.887 2.3-10.545 3.357l-.629 2.67c3.5 1.765 7.5 2.38 10.187 5.4-1.792 2.406-2.5 2.72-4.885 1.878-1.533-.543-3.007-1.255-4.911-2.062-.212 2.3-.549 4.365-.555 6.429-.008 2.381-.561 4.388-2.629 5.77-3.189-2.555-3.433-3.015-4.056-7.579l-7.983 3.9c-2.754-3.8-2.616-5.305.7-7.763 2.994-2.221 5.839-4.549 7.653-7.851-.166-.174-.334-.346-.5-.518"/><path data-name="パス 7" d="M30.867 80.354c1.623 1.61 3.636 1.408 5.734.943 1.484-.329 3.007-.5 4.515-.711a11.913 11.913 0 019.266 2.468c2.9 2.273 2.96 5.648 2.658 9.005-.187 2.07-.373 4.139-.58 6.206a20.831 20.831 0 01-.527 4.163c-.757 2.389-2.956 3.083-4.572 1.266-1.474-1.658-2.925-1.652-4.7-1.132-2.095.615-4.183 1.256-6.723 2.021a8.816 8.816 0 01-3.694-7.3c-.021-1.985-.324-3.965-.393-5.952a16.3 16.3 0 00-1.756-7.807 2.073 2.073 0 01.77-3.167m15.928 7.482l-.405-2.928c-5.9.595-9.376 1.557-11.025 3.3 3.946.284 7.494-.323 11.43-.374m-.658 3.581c-5.655.75-5.655.75-7.535 2.556 2.073-.148 3.922-.283 5.77-.413a5.382 5.382 0 001.044-.05c1.242-.348 1.312-1.112.721-2.094m-.172 7.636c-.8-.984-1.044-1.607-1.429-1.709-1.6-.425-3.891.435-6.208 2.248l7.637-.539"/><path data-name="パス 13" d="M16.08 111.474c2.453 1.775 4.677 3.278 6.785 4.929 4.952 3.879 10.843 5.484 16.776 6.927a6.373 6.373 0 003.348-.628 28.162 28.162 0 003.1-1.67c3.843-2 6.049-1.359 8.511 2.584-2.735 4-6.3 6.208-11.437 5.745a28.366 28.366 0 01-10.462-2.72 65.023 65.023 0 00-7.774-3.085 17.2 17.2 0 01-8.33-6.535c-1.5-2.086-1.481-2.1-.517-5.547"/><path data-name="パス 18" d="M50.933 105.927c3.235 1.7 6.449 3.362 9.636 5.075a18.368 18.368 0 013.271 2.044 2.309 2.309 0 01-.093 3.874c-1 .773-2.033 1.5-3.024 2.22a29.16 29.16 0 01-11.758-11.085l1.968-2.128"/><path data-name="パス 19" d="M4.749 116.367c2.322 1.552 4.56 2.965 6.682 4.535a2.224 2.224 0 01.614 1.866c-.541 2.587-.42 5.645-4.071 6.511-2.525-1.463-3.971-4.05-5.421-6.523-.469-.8-.13-2.269.227-3.3a15.958 15.958 0 011.969-3.09"/><path data-name="パス 21" d="M42.908 116.645l-3.891 1.51c-2.334-2.792-6.3-4.135-6.615-8.748 2.77.364 4.646 2.123 7.175 1.663.608-.11 1.667 1.466 2.277 2.421a15.049 15.049 0 011.055 3.153"/></g><path data-name="パス 4333" d="M244.147 206.725h2.9v-2.2h-2.9v-3.06a25.383 25.383 0 002.98-.84l-1.54-1.86a35.786 35.786 0 01-7.34 1.72 8.2 8.2 0 01.64 1.86c.92-.12 1.88-.26 2.86-.42v2.6h-3.56v2.2h2.98a17.9 17.9 0 01-3.42 5.94 10.493 10.493 0 011.2 2.24 17.73 17.73 0 002.8-4.78v7.12h2.4v-7.38c.66.94 1.3 1.94 1.68 2.62l1.36-1.98c-.44-.54-2.24-2.64-3.04-3.44zm5.76 5.72v-9.7h3.2v9.7zm-2.34-11.98v15.84h2.34v-1.58h3.2v1.44h2.46v-15.7zm-.6 22.02l-2.64-.22a11.119 11.119 0 01-.4 2.3h-.96a26.023 26.023 0 01-3.52-.24v2.34c1.1.08 2.56.12 3.38.12h.26a19.628 19.628 0 01-4.42 5.52l2.14 1.6a23.027 23.027 0 011.86-2.2 4.872 4.872 0 013.12-1.38 1.539 1.539 0 011.4.68c-2.28 1.18-4.68 2.78-4.68 5.34 0 2.58 2.32 3.34 5.46 3.34a50.031 50.031 0 005.66-.34l.08-2.58a32.718 32.718 0 01-5.68.56c-1.96 0-2.9-.3-2.9-1.4 0-1 .8-1.78 2.3-2.64-.02.88-.04 1.84-.1 2.44h2.4c-.02-.92-.06-2.4-.08-3.52 1.22-.56 2.36-1 3.26-1.36.68-.26 1.74-.66 2.38-.84l-1-2.32c-.74.38-1.44.7-2.22 1.04-.82.36-1.66.7-2.7 1.18a2.708 2.708 0 00-2.66-1.54 6.777 6.777 0 00-2.26.4 13.964 13.964 0 001.14-2.04 59.578 59.578 0 006.52-.5l.02-2.32a50.633 50.633 0 01-5.66.58 19.134 19.134 0 00.5-2zm9.16 29.92v-2.46h-7.86c.2-1.86.22-3.7.24-5.34h-2.6c-.02 1.64 0 3.46-.2 5.34h-7.28v2.46h6.88a11.99 11.99 0 01-7.26 8.8 7.047 7.047 0 011.78 2.02 13.766 13.766 0 007.48-8.5c1.56 3.86 3.88 6.78 7.5 8.48a9.572 9.572 0 011.76-2.24c-3.74-1.52-6.16-4.66-7.48-8.56zm-13.4 27.7c-.38 0-.42-.12-.42-.92v-4.12l4.26-.84-.36-2.16-3.9.74v-4.62h-2.34v5.08l-2.24.42.38 2.2 1.86-.36v3.66c0 2.44.46 3.18 2.34 3.18h1.66c1.58 0 2.16-.96 2.36-3.9a5.99 5.99 0 01-2.08-.96c-.06 2.12-.12 2.6-.5 2.6zm2.52-11.04v2.28h3c-.08 5.64-.34 10.42-4.84 13.12a6.4 6.4 0 011.68 1.92c4.92-3.16 5.42-8.68 5.54-15.04h3.1c-.16 8.08-.4 11.28-.94 11.98a.839.839 0 01-.78.38c-.46 0-1.4 0-2.44-.08a6.115 6.115 0 01.74 2.44 16.7 16.7 0 002.9-.06 2.57 2.57 0 001.82-1.2c.76-1.1.96-4.56 1.16-14.52.02-.32.04-1.22.04-1.22zm.96 24.48v2.56a53.679 53.679 0 008.6 0v-2.58a41.126 41.126 0 01-8.6.02zm1.6 8.54l-2.3-.22a12.219 12.219 0 00-.34 2.6c0 2.06 1.66 3.28 5.1 3.28a28.323 28.323 0 005.16-.38l-.04-2.7a23.642 23.642 0 01-5.02.52c-2.04 0-2.8-.54-2.8-1.42a6.788 6.788 0 01.24-1.68zm-4.68-9.88l-2.8-.24c-.02.64-.14 1.4-.2 1.96a55.769 55.769 0 00-.84 7.92 25.566 25.566 0 00.78 6.54l2.32-.16c-.02-.28-.04-.6-.04-.82a6.035 6.035 0 01.1-.94c.22-1.06.88-3.24 1.44-4.9l-1.24-.98c-.28.66-.6 1.36-.9 2.04a9.649 9.649 0 01-.08-1.3 53.046 53.046 0 01.96-7.34c.08-.36.34-1.36.5-1.78z"/><path data-name="パス 4336" d="M35.547 207.285h3.68v1.2h-3.68zm0-2.9h3.68v1.16h-3.68zm0-2.92h3.68v1.16h-3.68zm-4.2 9.66a29.8 29.8 0 012.64 2.78l1.72-1.44c-.48-.56-1.34-1.4-2.12-2.12h7.92v-10.76h-8.12v10.58l-.4-.36zm-3.82-.54h2.26v-4.18c.72.66 1.46 1.38 1.92 1.88l1.24-1.9a38.3 38.3 0 00-3.16-2.2v-.74h2.82v-2.02h-2.82v-2.82h-2.26v2.82h-3.28v2.02h2.9a11.928 11.928 0 01-3.4 4.46 8.461 8.461 0 011.52 1.64 11.5 11.5 0 002.26-2.9zm-1.46 5.58a19.549 19.549 0 001.68-4.36l-2.12-.84a13.683 13.683 0 01-1.74 4.12zm6.04-1.4c-1.08 0-1.28-.08-1.28-.68v-2.7h-2.36v2.74c0 2.08.7 2.74 3.42 2.74h3.6c2.2 0 2.86-.7 3.16-3.56a5.778 5.778 0 01-2.14-.84c-.12 2.02-.26 2.3-1.2 2.3zm5.98-3.1c.78 1.34 1.88 3.1 2.36 4.16l2.22-1.14c-.54-1.04-1.7-2.74-2.5-3.98zm-9.66 12.56l-3.08-.04a12.157 12.157 0 01.16 2.04c0 1.22.02 3.56.22 5.4.56 5.36 2.46 7.34 4.66 7.34 1.6 0 2.86-1.22 4.18-4.7l-2-2.44c-.38 1.6-1.18 3.94-2.12 3.94-1.26 0-1.86-1.98-2.14-4.86-.12-1.44-.14-2.94-.12-4.24a16.181 16.181 0 01.24-2.44zm10 .46l-2.54.82c2.18 2.48 3.24 7.34 3.56 10.56l2.62-1.02c-.22-3.06-1.74-8.06-3.64-10.36zm-5.48 20.8l-2.64-.22a11.119 11.119 0 01-.4 2.3h-.96a26.023 26.023 0 01-3.52-.24v2.34c1.1.08 2.56.12 3.38.12h.26a19.628 19.628 0 01-4.42 5.52l2.14 1.6a23.027 23.027 0 011.86-2.2 4.872 4.872 0 013.12-1.38 1.539 1.539 0 011.4.68c-2.28 1.18-4.68 2.78-4.68 5.34 0 2.58 2.32 3.34 5.46 3.34a50.031 50.031 0 005.66-.34l.08-2.58a32.718 32.718 0 01-5.68.56c-1.96 0-2.9-.3-2.9-1.4 0-1 .8-1.78 2.3-2.64-.02.88-.04 1.84-.1 2.44h2.4c-.02-.92-.06-2.4-.08-3.52 1.22-.56 2.36-1 3.26-1.36.68-.26 1.74-.66 2.38-.84l-1-2.32c-.74.38-1.44.7-2.22 1.04-.82.36-1.66.7-2.7 1.18a2.708 2.708 0 00-2.66-1.54 6.777 6.777 0 00-2.26.4 13.964 13.964 0 001.14-2.04 59.578 59.578 0 006.52-.5l.02-2.32a50.633 50.633 0 01-5.66.58 19.134 19.134 0 00.5-2zm1.3 27.08c-.62 3.82-2.16 6.8-4.96 8.46a13.127 13.127 0 011.84 1.8 12.842 12.842 0 004.7-6.58 11.044 11.044 0 004.8 6.56 10.657 10.657 0 011.86-1.82c-4.16-2.08-5.36-6.9-5.66-12.56h-5.5v2.24h3.48c.06.68.14 1.36.22 2.02zm-4.96-1.5a16.015 16.015 0 00-3.34-3.02l-1.76 1.44a15.135 15.135 0 013.22 3.16zm-.5 4.28h-4.62v2.18h2.3v4.22a26.266 26.266 0 01-2.74 1.84l1.16 2.48c1.1-.84 1.98-1.62 2.86-2.4 1.3 1.56 2.94 2.12 5.4 2.22 2.38.1 6.4.06 8.8-.06a12.456 12.456 0 01.74-2.4c-2.66.2-7.16.26-9.5.16-2.08-.08-3.58-.62-4.4-1.96zm8.42 16.5l-2.76-.26a13.511 13.511 0 01-.16 1.9q-.06.45-.18.96a10.9 10.9 0 00-4.54 1.2c-.14-.42-.26-.84-.36-1.22-.16-.6-.32-1.26-.44-1.92l-2.62.82a12.69 12.69 0 01.8 2.08c.18.54.34 1.08.54 1.62a8.744 8.744 0 00-2.96 6.32c0 2.58 1.52 3.98 3.18 3.98 1.48 0 2.6-.66 3.94-2.12.2.26.44.52.68.78l2.02-1.6a15.985 15.985 0 01-1.1-1.2 25.292 25.292 0 002.72-6.36 4.328 4.328 0 013.24 4.42c0 2.5-1.74 4.76-6.12 5.12l1.52 2.32c4.16-.64 7.18-3.06 7.18-7.3a6.593 6.593 0 00-5.22-6.76c.06-.26.12-.5.18-.76.12-.5.3-1.48.46-2.02zm-10.34 11.3a6.043 6.043 0 011.48-3.76 21.543 21.543 0 001.86 3.84c-.74.9-1.48 1.52-2.2 1.52s-1.14-.62-1.14-1.6zm3.42-5.32a8.014 8.014 0 013.22-1.12 23.04 23.04 0 01-1.78 4.32 20.539 20.539 0 01-1.44-3.2zm-5.64 18.94l.26 2.74c2.32-.5 6.4-.94 8.28-1.14a8.054 8.054 0 00-2.96 6.18c0 4.32 3.96 6.58 8.14 6.86l.94-2.74c-3.38-.18-6.46-1.38-6.46-4.66a6.084 6.084 0 014.22-5.62 22.633 22.633 0 013.86-.26l-.02-2.56c-1.4.04-3.6.18-5.66.34-3.66.32-6.96.62-8.62.76-.4.04-1.18.08-1.98.1z"/><path data-name="パス 4337" d="M358.567 205.945a21.3 21.3 0 013.4 7.3l2.42-1.2a21.376 21.376 0 00-3.62-7.2zm-11.44-.3a15.431 15.431 0 01-2.02 6.96l2.22 1.28c1.32-1.96 1.84-5.02 2.14-7.76zm3.64-5.2a26.725 26.725 0 016.68 3.72l1.56-2.1a29.561 29.561 0 00-6.7-3.48zm-.06 3.78v9.5c0 2.5.7 3.28 3.24 3.28h3.26c2.4 0 3.04-1.18 3.3-4.9a7.262 7.262 0 01-2.22-1.04c-.14 3.14-.3 3.76-1.28 3.76h-2.74c-.94 0-1.08-.14-1.08-1.1v-9.5zm5.82 20.34a13.462 13.462 0 01.82 2.56l1.92-.64a13.288 13.288 0 00-.92-2.44 38.753 38.753 0 004.78-.88l-1.52-1.62a52.856 52.856 0 01-8.98 1.24 6.58 6.58 0 01.54 1.68c1.62-.06 3.38-.2 5.1-.42zm-3.76 7.78c-.36-.4-1.9-1.96-2.44-2.42v-.52h2v-2.16h-2v-2.94a19.743 19.743 0 002.32-.76l-1.66-1.68a25.273 25.273 0 01-5.68 1.58 6.88 6.88 0 01.64 1.72c.68-.1 1.4-.2 2.12-.34v2.42h-2.58v2.16h2.2a19.021 19.021 0 01-2.52 5.4 11.726 11.726 0 011.08 2.26 17.427 17.427 0 001.82-3.72v6.86h2.26v-7.88c.44.68.88 1.38 1.12 1.84zm.54 7.4a9.832 9.832 0 001.56-3.98l-1.84-.6a8.533 8.533 0 01-1.52 3.64zm11-.88a11.14 11.14 0 00-2.18-3.86l-1.72.74a14.83 14.83 0 011.24 1.96 5.567 5.567 0 01-1.8-.72c-.06 1.16-.16 1.32-.58 1.32h-1.56c-.54 0-.64-.06-.64-.54v-2.44a8.111 8.111 0 011.34 1.56l1.54-1.1a7.763 7.763 0 00-1.5-1.6h4.68v-6.8h-1.64c.56-.8 1.22-1.84 1.82-2.78l-1.98-.88a21.7 21.7 0 01-1.84 3.44l.46.22h-5.48l1.62-.66a8.676 8.676 0 00-1.18-2.3l-1.76.64a7.988 7.988 0 011.06 2.32h-.84v1.7h7.54v.84h-7.16v1.66h7.16v.88h-7.62v1.72h3.58l-.62.42c.22.18.44.36.66.56h-1.88v2.62c0 1.78.44 2.36 2.38 2.36h2.1c1.38 0 1.94-.5 2.16-2.4a9.568 9.568 0 01.78 1.94zm-18.82 13.6l1.18 2.54c.86-.38 2.12-1.06 3.56-1.78.18.4.36.82.54 1.24a61.984 61.984 0 012.68 8.32l2.74-.72c-.66-2.24-2.2-6.52-3.14-8.7-.18-.4-.36-.82-.56-1.24a16.4 16.4 0 015.88-1.8c1.5 0 2.4.82 2.4 1.84 0 1.44-1.1 2.26-2.6 2.26a7.555 7.555 0 01-2.78-.68l-.06 2.52a9.841 9.841 0 003.08.56c3.06 0 4.98-1.78 4.98-4.58 0-2.32-1.86-4.2-4.96-4.2a10.205 10.205 0 00-2.88.48l1.58-1.16a30.922 30.922 0 00-2.9-2.56l-1.84 1.28a32.707 32.707 0 012.76 2.56c-1.16.38-2.38.88-3.6 1.42-.32-.68-.64-1.32-.94-1.9-.22-.38-.62-1.2-.8-1.56l-2.6 1a16.907 16.907 0 011.18 1.76c.3.52.6 1.1.88 1.7-.6.26-1.22.52-1.8.76a16.658 16.658 0 01-1.98.64zm8.48 16.2l-2.98-.3a22.168 22.168 0 01-.42 4.24c-1.02.08-1.96.14-2.58.16a19.1 19.1 0 01-2.14 0l.24 2.72c.6-.1 1.66-.24 2.22-.34.38-.04 1-.12 1.72-.2a30.066 30.066 0 01-4.04 9.4l2.6 1.04c1.84-2.94 3.32-7.68 4.08-10.72.56-.04 1.06-.08 1.38-.08 1.26 0 1.94.22 1.94 1.82a15.919 15.919 0 01-.8 5.54 1.482 1.482 0 01-1.5.86 11.718 11.718 0 01-2.46-.42l.44 2.64a12.938 12.938 0 002.4.28 3.2 3.2 0 003.28-1.84c.86-1.74 1.14-4.98 1.14-7.34 0-2.88-1.5-3.82-3.62-3.82-.42 0-1.02.04-1.68.08.14-.72.28-1.46.42-2.06.1-.5.24-1.14.36-1.66zm6.88 1.88l-2.38 1.02a23 23 0 013.36 7.6l2.54-1.18a34.569 34.569 0 00-3.52-7.44zm-7.16 22.94v2.56a53.679 53.679 0 008.6 0v-2.58a41.126 41.126 0 01-8.6.02zm1.6 8.54l-2.3-.22a12.219 12.219 0 00-.34 2.6c0 2.06 1.66 3.28 5.1 3.28a28.323 28.323 0 005.16-.38l-.04-2.7a23.642 23.642 0 01-5.02.52c-2.04 0-2.8-.54-2.8-1.42a6.788 6.788 0 01.24-1.68zm-4.68-9.88l-2.8-.24c-.02.64-.14 1.4-.2 1.96a55.769 55.769 0 00-.84 7.92 25.566 25.566 0 00.78 6.54l2.32-.16c-.02-.28-.04-.6-.04-.82a6.035 6.035 0 01.1-.94c.22-1.06.88-3.24 1.44-4.9l-1.24-.98c-.28.66-.6 1.36-.9 2.04a9.649 9.649 0 01-.08-1.3 53.046 53.046 0 01.96-7.34c.08-.36.34-1.36.5-1.78z"/><path data-name="パス 4338" d="M139.413 208.54a12.867 12.867 0 01-1.731 2.537 46.294 46.294 0 00-3.285-1.908l-1.671 1.534a52.363 52.363 0 013.3 2.026 17.407 17.407 0 01-4.972 2.969 13.674 13.674 0 011.731 1.829 22.015 22.015 0 005.133-3.461 21.112 21.112 0 012.911 2.537l1.868-1.77a24.039 24.039 0 00-3.107-2.517 16.9 16.9 0 002.084-3.031zm-6.392-2.066a15.647 15.647 0 001.986-2.635v1.652h11.348v-1.888h-11.21c.177-.3.354-.61.511-.924h12.489v-1.947h-11.624c.177-.472.334-.964.492-1.455l-2.439-.512a12.925 12.925 0 01-4.189 6.726 19.27 19.27 0 012.124 1.475l.177-.157v1.632h10.542c.118 5.035.688 8.791 3.56 8.791 1.514 0 1.927-1.042 2.1-3.5a9.472 9.472 0 01-1.514-1.455c-.039 1.593-.118 2.616-.413 2.635-1.141 0-1.4-3.717-1.357-8.437zm6.372 18.252h.688v1.534h5.8a22.307 22.307 0 01-1.691 5.861 23.716 23.716 0 01-1.809-5.821l-2.242.452a27.865 27.865 0 002.655 7.788 10.663 10.663 0 01-3.4 3.127zm-5.055 8.024h2.793v1.77c-.944.118-1.888.256-2.793.374zm0-4.051h2.793v1.966h-2.793zm2.793-3.973v1.868h-2.793v-1.868zm9.794-.826l-.393.059h-5.88v-1.4h-9.873v2.167h1.337v10.443c-.669.079-1.278.138-1.809.2l.452 2.34c1.808-.279 4.108-.633 6.372-1.024v3.147h2.262v-1.847a9.354 9.354 0 011.3 1.711 13.473 13.473 0 003.5-3.009 12.407 12.407 0 003.383 3.009 8.49 8.49 0 011.611-1.931 10.818 10.818 0 01-3.56-3.186 26.1 26.1 0 002.832-10.306zm-10.483 21l-.629 2.36c1.534.393 5.92 1.318 7.906 1.573l.59-2.4a60.2 60.2 0 01-7.866-1.529zm.118 3.953l-2.635-.368a72.556 72.556 0 01-.983 8.221l2.262.57a4.765 4.765 0 01.728-1.141 7 7 0 015.467-2.321c1.711 0 2.93.944 2.93 2.222 0 2.5-3.127 3.933-9.027 3.127l.747 2.576c8.181.688 11.014-2.065 11.014-5.644 0-2.38-2.006-4.5-5.448-4.5a9.627 9.627 0 00-5.8 1.868c.136-1.125.49-3.524.746-4.606zm.649 28.34a1.47 1.47 0 011.495-1.554 1.42 1.42 0 011.3.688c.256 1.731-.452 2.36-1.278 2.36a1.485 1.485 0 01-1.516-1.49zm7.474-10.008l-1.616.67a24.97 24.97 0 011.278 2.222h-2.36c0-.236.02-.452.02-.61.02-.315.079-1.377.138-1.691h-2.829c.039.256.118.924.177 1.711a5.36 5.36 0 01.02.61c-2.655.039-6.234.118-8.477.138l.059 2.38c2.419-.138 5.487-.275 8.457-.315.02.433.02.885.02 1.318a5.1 5.1 0 00-.787-.059 3.742 3.742 0 00-3.953 3.7 3.479 3.479 0 003.4 3.6 4.249 4.249 0 00.9-.1 8.9 8.9 0 01-4.818 2.242l2.085 2.1c4.818-1.357 6.333-4.6 6.333-7.178a4.945 4.945 0 00-.747-2.734c0-.865 0-1.908-.02-2.911 2.655 0 4.523.059 5.7.118l.02-2.34c-.59 0-1.731 0-2.989.02l1.357-.57a22.4 22.4 0 00-1.368-2.321zm2.635-.551l-1.632.669a17.163 17.163 0 011.381 2.322l1.652-.688a21.757 21.757 0 00-1.4-2.301zm-12.213 37.881v-2.046h9.342v2.046zm9.342-6.23v2.026h-9.342v-2.026zm0-4.189v2.026h-9.342v-2.031zm-4.248-2.242a41.12 41.12 0 00.924-2.262l-2.832-.315a22.258 22.258 0 01-.531 2.576h-5.034v15.808h2.38v-.983h9.341v.964h2.5v-15.793zm8.4 22.853a12.318 12.318 0 00-1.888-2.6l-1.691.924a13.113 13.113 0 011.79 2.714zm-15.696 15.611a10.965 10.965 0 002.2-4.13l-2.262-.551a9.639 9.639 0 01-2.163 3.776zm3.52-3.992a24.965 24.965 0 01.374 3.759l2.281-.334a25.728 25.728 0 00-.492-3.678zm-.551-6.549a17.326 17.326 0 00-2.242-1.613c.236-.3.472-.59.688-.9a18.5 18.5 0 012.242 1.455 9.824 9.824 0 01-.688 1.057zm2.085-4.367a19.01 19.01 0 01-.59 1.691 18.2 18.2 0 00-2.124-1.216l.275-.472zm10.5 2.557v-2.182h-3.656v-3.58h-2.2v3.58h-2.421c.157-.551.315-1.121.433-1.711l-1.495-.589-.374.079h-2.262c.2-.413.374-.846.531-1.259l-2.2-.551a15.262 15.262 0 01-4.526 6.744 13.949 13.949 0 011.554 1.495c.2-.177.413-.354.61-.551a16.572 16.572 0 012.2 1.75 12.325 12.325 0 01-3.776 2.517 7.953 7.953 0 011.652 1.79 14.67 14.67 0 007.454-9.086v1.554h2.478c-.334 2.026-1.436 4.169-4.7 5.821a8.551 8.551 0 011.632 1.632 9.348 9.348 0 004.543-4.484 8.951 8.951 0 003.6 4.563 7.9 7.9 0 011.573-2.006c-2.045-1.042-3.284-3.048-3.992-5.526zm-8.142 8.4a20.958 20.958 0 011 3.737l2.34-.452a21.917 21.917 0 00-1.141-3.658zm3.933-.1a23.9 23.9 0 012.321 4.032l2.4-.806a26.676 26.676 0 00-2.478-3.933zm-5.563 11.19v2.517a52.785 52.785 0 008.457 0v-2.537a40.441 40.441 0 01-8.457.02zm1.573 8.4l-2.262-.216a12.015 12.015 0 00-.329 2.554c0 2.026 1.632 3.225 5.015 3.225a27.852 27.852 0 005.074-.374l-.039-2.655a23.249 23.249 0 01-4.936.511c-2.006 0-2.753-.531-2.753-1.4a6.675 6.675 0 01.23-1.647zm-4.6-9.716l-2.753-.236c-.02.629-.138 1.377-.2 1.927a54.841 54.841 0 00-.826 7.788 25.141 25.141 0 00.767 6.431l2.281-.157c-.02-.275-.039-.59-.039-.806a5.935 5.935 0 01.1-.924c.216-1.042.865-3.186 1.416-4.818l-1.219-.964c-.275.649-.59 1.337-.885 2.006a9.489 9.489 0 01-.079-1.278 52.163 52.163 0 01.946-7.225c.076-.349.332-1.333.489-1.746z"/></g></svg>