<svg xmlns="http://www.w3.org/2000/svg" width="363.936" height="467.291"><g data-name="グループ 59"><path data-name="パス 2" d="M19.506 306.265c8.127.84 10.281 3.029 11.744 11.6 2.335.528 4.826.757 7 1.707a5.814 5.814 0 013.145 3.493c.334 1.774-1.441 2.83-3.2 3.286-1.459.38-2.919.752-4.823 1.244a21.817 21.817 0 01-.041 3.959c-.485 2.623.818 4.06 2.908 5.16q4.682 2.465 9.338 4.982c1.793.972 3.686 2.006 2.889 4.538a4.906 4.906 0 01-6.008 2.87c-2.979-1.083-5.784-2.65-9.2-4.26-.883 4.457.528 9.137.145 13.758-.39 4.7-.334 9.43-.471 14.024-5.474 1.988-9.487.009-11.169-5.183a14.6 14.6 0 01-.7-7.513c.577-3.108.134-6.408.134-10.322-3.493 2.316-6.7 4.542-10.007 6.586-1.4.864-3.032 1.895-4.562 1.9-4.977.03-7.931-7.259-6.073-10.267 2.023-3.277 4.064-6.455 7.605-8.348 4.193-2.243 6.8-6.04 9.812-10.071-3.759-.573-7.333-.565-10.451-1.751a10.79 10.79 0 01-6.89-7.111c3.4-2.563 6.665 1.164 10.139.3 3.4-.848 6.966-1.012 10.687-1.506a32.745 32.745 0 00-1.957-13.077"/><path data-name="パス 5" d="M22.057 263.733c-1.651 1.349-2.8 2.264-3.921 3.207-2.114 1.777-4.085 3.757-6.349 5.316-3.6 2.475-5.291 1.845-6.977-2.217-.293-.7-.49-1.446-.918-2.736 3.21-2.913 6.656-5.89 9.925-9.051a58.95 58.95 0 006.9-8.009c-4.543-.234-8.867-.4-13.451 2.367-.5-4.375-5.957-6.645-3.167-11.829 6.26 4.341 12.494.776 19.37.469l-.744-7.755-7.537 2.213-4.7-7.823c1.19-1.365 1.99-2.418 2.929-3.328a24.666 24.666 0 014.456-3.926 118.171 118.171 0 0111.343-5.735 3.93 3.93 0 013.56.457 78.694 78.694 0 015.416 6.883c-1.139 5.97-7.131 4.613-10.246 7.86l2.391 1.868v6.454c3.038.46 5.87.493 8.4 1.382 2.5.877 4.688 2.617 7.074 4.014-3.391 5.981-8.88 2.065-13.225 4.122l-.689 5.011c3.024 1.826 5.983 3.457 8.775 5.335 4.12 2.774 3.955 4.464-.824 7.437l-7.939-4.729c-1.65 5.676-1.37 11.315-.956 16.94.27 3.656.383 3.648-2.6 6.77-4.109-1.5-6.3-4.807-6.3-9.465.006-3.528 0-7.055 0-11.5"/><path data-name="パス 6" d="M14.5 414.405l-5.673 1.926c-5-1.7-6.622-6.083-8.633-11.076a64.174 64.174 0 007.978 1.15 69.41 69.41 0 008.178-.789c.484-3.627.956-7.182 1.435-10.779 5.821 2.725 5.821 2.725 5.556 9.431 6.291-1.742 10.793 1.365 14.953 5.378-3.49 4.955-9.026 3.019-13.82 4.4l-.824 3.5c4.592 2.313 9.836 3.119 13.351 7.071-2.348 3.153-3.282 3.565-6.4 2.461-2.009-.711-3.94-1.645-6.436-2.7-.278 3.014-.719 5.72-.727 8.426-.011 3.121-.735 5.751-3.446 7.562-4.179-3.349-4.5-3.951-5.316-9.933l-10.465 5.116c-3.609-4.982-3.428-6.953.915-10.174 3.924-2.911 7.653-5.962 10.03-10.289l-.655-.679"/><path data-name="パス 7" d="M40.647 402.984c2.127 2.109 4.766 1.845 7.515 1.236 1.945-.431 3.94-.652 5.918-.932a15.613 15.613 0 0112.144 3.234c3.8 2.979 3.88 7.4 3.484 11.8-.245 2.712-.488 5.424-.76 8.133a27.3 27.3 0 01-.69 5.456c-.993 3.131-3.873 4.041-5.992 1.659-1.931-2.173-3.834-2.165-6.156-1.484-2.746.806-5.482 1.646-8.811 2.648a11.554 11.554 0 01-4.841-9.57c-.027-2.6-.425-5.2-.515-7.8-.124-3.566-.479-7.053-2.3-10.232-.878-1.532-.876-2.921 1.009-4.15m20.875 9.805l-.531-3.837c-7.737.78-12.288 2.041-14.449 4.327 5.172.372 9.821-.423 14.98-.49m-.862 4.693c-7.411.983-7.411.983-9.875 3.35 2.717-.194 5.14-.371 7.562-.541a7.06 7.06 0 001.368-.065c1.627-.457 1.72-1.457.945-2.744m-.226 10.007c-1.044-1.29-1.368-2.106-1.872-2.24-2.1-.557-5.1.569-8.137 2.946l10.009-.706"/><path data-name="パス 9" d="M45.266 237.314c2.222 1.08 3.417 1.718 4.658 2.245a7.729 7.729 0 002.957.943c4.9-.145 9.831-.208 14.687-.8 3.512-.43 6.349.772 9.1 2.459a4.145 4.145 0 011.667 2.653c.651 4.686 1.311 9.349.531 14.151-.5 3.069-2.757 4.726-4.278 6.971-1.8 2.652-4.456 1.869-7.084 1.761a29.57 29.57 0 00-7.766.819c-4.411 1.017-8.065-.457-10.357-4.491a14.689 14.689 0 01-2.085-8.74c.407-5.62.641-11.356-2.031-17.967m25.959 9.032c-5.017.267-9.613.371-14.178.808-2.766.264-4.7 3.046-4.349 6.005.332 2.84.943 5.647 1.387 8.215 4.195 0 7.874-.013 11.554 0 2.124.01 3.2-1.145 4.195-2.96 2.066-3.751 2.1-7.586 1.392-12.071"/><path data-name="パス 10" d="M55.008 316.347c2.8 1.926 5.238 3.457 7.483 5.229a3.936 3.936 0 011.222 2.663c.134 3.823.056 7.651.056 11.584 6.983 2.637 14.714 2.792 19.542 9.048a2.836 2.836 0 01-.436.6c-3.9 3.154-7.82 2.087-11.872.22a30.236 30.236 0 00-5.4-1.366c0 4.421-.142 8.37.045 12.306.156 3.275-.539 4.686-3.019 5.841a3.1 3.1 0 01-3.788-.574c-3.57-3.35-6.371-6.964-5.569-12.42 1.028-6.98 1.928-14 2.435-21.03.27-3.761-.4-7.588-.7-12.1"/><path data-name="パス 13" d="M21.269 443.769c3.215 2.326 6.129 4.3 8.892 6.46 6.49 5.084 14.21 7.187 21.986 9.078 1.327.323 3-.31 4.387-.822a36.9 36.9 0 004.064-2.189c5.036-2.62 7.928-1.782 11.154 3.387-3.584 5.245-8.262 8.137-14.99 7.529a37.176 37.176 0 01-13.711-3.565 85.217 85.217 0 00-10.189-4.044 22.537 22.537 0 01-10.917-8.565c-1.971-2.734-1.941-2.757-.678-7.27"/><path data-name="パス 18" d="M66.945 436.499c4.239 2.227 8.452 4.406 12.629 6.651a24.071 24.071 0 014.287 2.679 3.026 3.026 0 01-.122 5.078c-1.306 1.013-2.665 1.96-3.963 2.909a38.216 38.216 0 01-15.41-14.528l2.579-2.789"/><path data-name="パス 19" d="M6.419 450.181c3.043 2.034 5.976 3.886 8.757 5.943a2.914 2.914 0 01.8 2.445c-.709 3.39-.55 7.4-5.335 8.533-3.309-1.917-5.2-5.308-7.1-8.549-.614-1.047-.17-2.973.3-4.322.476-1.373 1.575-2.529 2.58-4.05"/><path data-name="パス 21" d="M56.428 450.546l-5.1 1.979c-3.059-3.659-8.253-5.42-8.67-11.465 3.63.477 6.089 2.782 9.4 2.179.8-.145 2.184 1.921 2.984 3.173.638 1 .8 2.3 1.382 4.133"/></g><g data-name="グループ 58"><path data-name="パス 1" d="M191.035 135.935c-3.861 3.981-7.553 7.63-11.063 11.446-5.54 6.021-11.783 9.1-19.921 5.4a8.392 8.392 0 00-1.43-.187 10.632 10.632 0 01-1.338-.513c-2.284-7.715-1.709-8.592 3.933-13.16 5.361-4.342 9.685-9.618 11.76-16.528.725-2.416 2.718-4.434 4.031-6.694 1.607-2.77 3.109-5.6 5.022-9.07a18.071 18.071 0 00-3.171.02c-12.851 3.343-22.3-.7-28.236-12.117-.55-1.056-.929-2.541-1.823-3.019-4.227-2.274-3.251-5.884-2.685-9.867 1.109.341 2.451.371 3.2 1.051 3.321 3.012 7.182 3.729 11.442 3.233 8.6-1 17.2-1.985 26.228-3.029l.884-8.36c-1.612 0-3.181-.468-4.2.08-4.579 2.454-9.02.585-13.38-.309-3.732-.765-9.12-8.836-7.593-11.965a16.7 16.7 0 017.326-7.085c7.822-3.789 14.677-8.318 19.567-15.8 3.62-5.538 8.338-5.847 13.439-1.706 2.058 1.669 4.075 3.4 5.956 5.266 1.186 1.173 2.65 2.506 3 4a43.508 43.508 0 011.5 11.215c-.187 5.029-5.381 3.749-8.517 5.563a37326.81 37326.81 0 015.443 16.135c4.359 0 9.3.78 13.86-.2 5.62-1.208 9.832-.451 13.25 4.24.5.68 1.537.964 2.506 1.537-.635 2.608-.438 5.969-1.963 7.2a36.075 36.075 0 01-11.671 6.417c-4.743 1.47-9.9 1.6-15.487 2.394l-.329 6.273c5.864 2.972 11.342 5.368 16.419 8.43 4.691 2.827 5.109 5.1 3.488 11.006-6.253 2.929-11.623-1.228-18.016-2.419-2.479 8.95-2.586 17.961-2.155 27.028.207 4.322.63 8.644.62 12.966-.015 6.17-5.224 10.283-11.436 9.3-6.5-1.029-11.868-7.949-11.023-14.635.9-7.119 2.152-14.194 3.186-21.3.085-.583-.331-1.238-.625-2.235"/><path data-name="パス 3" d="M195.442 255.992c3.627 1.2 6.121 1.452 7.894 2.718 6.245 4.447 12.152 8.913 15.23 16.75 4.589 11.673 14.919 18.309 25.733 23.062a106.3 106.3 0 0045.843 8.579c5.994-.159 12.488-.67 16.917-6.519 3.8-5.022 13.92-5.926 19.824-3.575 4.666 1.858 7.74 5.017 11.354 7.889a6.152 6.152 0 012 7.8c-2.655 5.585-5.343 11.414-12.478 12.844-5.882 1.176-11.721 2.563-17.589 3.806-1.173.249-2.439.107-3.59.416-22.442 6.016-42.719-.473-62.426-10.625a113.931 113.931 0 01-32.389-24.985 54.083 54.083 0 01-12.884-24.622c-.919-3.948-1.99-7.862-3.438-13.539"/><path data-name="パス 4" d="M245.204 76.398c10.42 2.758 18.88-2.974 28.867-3.084-12.137-10.988-14.154-18.421-7.05-26.318 3.737 2.175 7.909 4.07 11.451 6.791 5.074 3.891 5.8 8.141 3.3 14.142-.531 1.273-1.255 2.464-2.3 4.481a40.416 40.416 0 016.24-.782 35.609 35.609 0 015.615 1.1c.134-.568.421-1.123.279-1.273-7.772-8.235-5.859-17.323-2.369-26.542.673-1.771 1.457-3.5 2.6-6.228 5.284 1.726 10.654 2.86 15.407 5.231 3.834 1.913 5.211 5.869 4.6 10.5-1.051 7.939-5.423 13.654-11.347 18.5-.717.585-1.447 1.158-2.827 2.257 12.391 4.2 14.772 13.235 13.133 24.343-.74 5.012-1.029 10.1-1.9 15.081-1.275 7.242-3.737 9.12-11.349 9.384-7.441.259-14.889.381-22.315.854a32.19 32.19 0 00-7.523 1.888c-8.784 2.812-14.324.331-18.676-8.764 7.351-1.275 14.565-2.812 21.857-3.712 7.341-.9 14.76-1.171 22.415-1.736v-9.214c-6.454.351-12.316 2.085-18.143 4.083a62.966 62.966 0 01-7.593 2.147c-7.59 1.577-11.872-1.114-14.363-9.015 13.868-1.118 26.684-7.814 40.993-7.249V81.914c-1.517-.157-2.546-.57-3.35-.3-7.294 2.426-14.55 4.972-21.812 7.491-.227.08-.414.262-.638.344-12.2 4.581-19.734.521-23.2-13.048"/><path data-name="パス 8" d="M281.366 0c9.563 4.18 15.3 10.956 19.348 22.452-4.145 8.771-12.991 10.385-20.746 13.778-9.2 4.028-19.652 3.7-28.59 9.023-4.713 2.8-9.411-.281-11.466-5.8-.5-1.34-1.183-2.613-1.918-4.215a18.46 18.46 0 019.287-6.631c5.543-1.963 10.243-6.694 14.882-10.724C268.824 12.1 275.104 5.869 281.366 0"/><path data-name="パス 11" d="M192.251 304.882c-2.172 6.048-3.951 12.264-6.636 18.06-1.955 4.22-6.569 5.769-11.08 4.589a34.221 34.221 0 01-8.021-3.052c-5.884-3.3-7.481-7.456-6.773-14.3a125.186 125.186 0 00.244-13.509c-.027-4.668 3.017-7.735 5.667-10.946a3.881 3.881 0 013.281-.986 40.574 40.574 0 0119.318 11.349c1.988 2.05 2.556 5.47 4 8.791"/><path data-name="パス 12" d="M258.496 132.57c5.508 2.673 10.6 4.407 12.724 10.012a4.152 4.152 0 002.087 1.8c6.071 2.872 12.109 5.829 18.294 8.435 4.925 2.073 9.319.8 12.884-3.2a15.8 15.8 0 012.411-2.68c3.009-2.088 6.387-4.19 10-2.319 4.437 2.3 8.676 5.149 10.515 10.253.139.389-.095.909-.147 1.368-.715 6.143-8.186 13.28-14.478 13.94-11.115 1.166-20.783-2.788-30.005-8.37-10.49-6.35-19.752-13.82-23.735-26.087a31.217 31.217 0 01-.555-3.149"/><path data-name="パス 14" d="M352.529 283.934c-7.354.443-11.7-5.047-15.45-10.52-3.069-4.479-5.129-9.743-7.08-14.869-2.028-5.326 2.1-9.962 7.486-8.584a60.041 60.041 0 0112.161 4.16c7.2 3.625 11.372 10.146 14.02 17.452 1.739 4.8-5.269 12.592-11.137 12.361"/><path data-name="パス 15" d="M271.958 248.765c2.7.9 5.565 1.477 8.069 2.76 5.348 2.738 10.221 6.278 13.38 11.509 2.68 4.439 1.975 7.453-1.794 10.926-6.292 5.8-11.775 6.146-18.725 1.089-5.458-3.968-9.312-9.1-10.231-15.915-.76-5.652 3.45-9.987 9.3-10.368"/><path data-name="パス 16" d="M235.712 137.731c4.21.862 8.153 1.539 12.029 2.5 3.485.862 5.956 3.744 5.129 6.679-1.338 4.741-2.1 9.738-5.525 13.758-4.09 4.808-6.143 4.92-12.612 1.958-5.134-2.352-7.2-7.628-5.159-12.46 1.806-4.277 4.1-8.35 6.138-12.433"/><path data-name="パス 17" d="M236.958 49.936c7.538.1 13.79.929 19.271 5.333 2.785 2.237 4.262 4.479 3.4 7.912-.864 3.455-1.951 6.855-2.9 10.141-10.345 2.3-17.136-2.364-18.367-12.336-.451-3.647-.927-7.291-1.4-11.05"/><path data-name="パス 20" d="M315.447 127.279c7.849-2.623 15.664-.3 18.78 5.523 1.42 2.653 2.665 5.174.062 7.909a9.085 9.085 0 01-9.277 2.19c-4.354-1.744-9.626-10.35-9.566-15.622"/><path data-name="パス 22" d="M287.39 128.686c5.177-1.948 9.317.339 13.362 2 2.486 1.021 3.114 8.091 1.335 10.38-1.527 1.968-5.886 2.862-7.809.852-3.336-3.487-7.633-6.726-6.888-13.23"/></g><text data-name="on -shin" transform="translate(205.514 409.667)" font-size="30" font-family="JosefinSans-Regular, Josefin Sans" letter-spacing=".22em"><tspan x="0" y="0">on</tspan><tspan x="0" y="34"> -shin</tspan></text></svg>