<svg version="1.1" id="レイヤー_1" xmlns="http://www.w3.org/2000/svg" x="0" y="0" viewBox="0 0 344 467.3" xml:space="preserve"><style>.st0{fill:#060001}</style><g id="グループ_59_00000009573051310283510240000006806389719000939177_" transform="translate(0 214.67)"><path id="パス_2_00000060740783592979568500000009997616272970275250_" class="st0" d="M21.6 73.7c8.1.8 10.3 3 11.8 11.6 2.3.5 4.8.8 7 1.7 1.5.7 2.6 1.9 3.2 3.5.3 1.8-1.4 2.8-3.2 3.3-1.5.4-2.9.8-4.8 1.2.1 1.3.1 2.6 0 4-.5 2.6.8 4.1 2.9 5.2 3.1 1.6 6.2 3.3 9.4 5 1.8 1 3.7 2 2.9 4.5-.9 2.4-3.6 3.6-6 2.9-3-1.1-5.8-2.7-9.2-4.3-.9 4.5.5 9.2.1 13.8-.4 4.7-.3 9.4-.5 14-5.5 2-9.5 0-11.2-5.2-.9-2.4-1.1-5-.7-7.5.6-3.1.1-6.4.1-10.3-3.5 2.3-6.7 4.5-10 6.6-1.4.9-3 1.9-4.6 1.9-5 0-7.9-7.3-6.1-10.3 2-3.3 4.1-6.5 7.6-8.4 4.2-2.2 6.8-6.1 9.8-10.1-3.8-.6-7.3-.6-10.5-1.8-3.3-1.1-5.9-3.8-6.9-7.1 3.4-2.6 6.7 1.2 10.2.3 3.4-.8 7-1 10.7-1.5.2-4.3-.5-8.8-2-13"/><path id="パス_5_00000078738530717660940010000009808178586668498829_" class="st0" d="M24.1 31.1c-1.7 1.4-2.8 2.3-3.9 3.2-2.1 1.8-4.1 3.8-6.4 5.3-3.6 2.5-5.3 1.8-7-2.2-.3-.7-.5-1.4-.9-2.7 3.2-2.9 6.7-5.9 9.9-9.1 2.5-2.5 4.9-5.1 6.9-8-4.6-.2-8.9-.4-13.5 2.4-.5-4.4-6-6.7-3.2-11.8 6.3 4.3 12.5.8 19.4.5-.2-2.6-.5-4.9-.7-7.8l-7.6 2.2-4.7-7.8c1.2-1.4 2-2.4 2.9-3.3 1.3-1.5 2.8-2.8 4.5-3.9 3.7-2.1 7.5-4 11.4-5.7 1.2-.4 2.5-.3 3.6.5 1.9 2.2 3.7 4.5 5.4 6.9-1.1 6-7.1 4.6-10.3 7.9l2.4 1.9v6.5c3 .5 5.9.5 8.4 1.4 2.5.9 4.7 2.6 7.1 4-3.4 6-8.9 2.1-13.2 4.1-.2 1.4-.4 3.2-.7 5 3 1.8 6 3.5 8.8 5.3 4.1 2.8 4 4.5-.8 7.4l-8-4.7c-1.7 5.7-1.4 11.3-1 17 .3 3.7.4 3.7-2.6 6.8-4.1-1.5-6.3-4.8-6.3-9.5.1-3.8.1-7.3.1-11.8"/><path id="パス_6_00000148624184054304041410000013296677290020466054_" class="st0" d="M16.6 182.1l-5.7 1.9c-5-1.7-6.6-6.1-8.6-11.1 2.6.6 5.3.9 8 1.2 2.7-.1 5.5-.4 8.2-.8.5-3.6 1-7.2 1.4-10.8 5.8 2.7 5.8 2.7 5.6 9.4 6.3-1.7 10.8 1.4 15 5.4-3.5 5-9 3-13.8 4.4-.3 1.1-.5 2.2-.8 3.5 4.6 2.3 9.9 3.1 13.4 7.1-2.4 3.2-3.3 3.6-6.4 2.5-2-.7-3.9-1.6-6.4-2.7-.3 3-.7 5.7-.7 8.4 0 3.1-.7 5.8-3.5 7.6-4.2-3.4-4.5-4-5.3-10l-10.5 5.1c-3.6-5-3.4-7 .9-10.2 3.9-2.9 7.7-6 10-10.3-.4-.2-.6-.4-.8-.6"/><path id="パス_7_00000178168410397168152940000001622814791424671416_" class="st0" d="M42.8 170.6c2.1 2.1 4.8 1.8 7.5 1.2 1.9-.4 3.9-.7 5.9-.9 4.3-.7 8.7.5 12.2 3.2 3.8 3 3.9 7.4 3.5 11.8-.2 2.7-.5 5.4-.8 8.1 0 1.8-.3 3.7-.7 5.5-1 3.1-3.9 4-6 1.7-1.9-2.2-3.8-2.2-6.2-1.5-2.8.8-5.5 1.6-8.8 2.7-3.1-2.2-4.9-5.8-4.8-9.6 0-2.6-.4-5.2-.5-7.8-.1-3.6-.5-7.1-2.3-10.2-.9-1.5-.9-2.9 1-4.2m20.9 9.9c-.2-1.4-.4-2.6-.5-3.8-7.8.8-12.3 2-14.5 4.3 5.2.3 9.8-.5 15-.5m-.9 4.7c-7.4 1-7.4 1-9.9 3.4 2.7-.2 5.1-.4 7.6-.5.5 0 .9 0 1.4-.1 1.6-.6 1.7-1.6.9-2.8m-.2 10c-1-1.3-1.4-2.1-1.9-2.2-2.1-.6-5.1.6-8.2 3l10.1-.8"/><path id="パス_9_00000124154231071059155010000014080473022931395724_" class="st0" d="M47.4 4.7c2.2 1.1 3.4 1.7 4.7 2.2.9.5 1.9.9 2.9 1 4.9-.1 9.8-.2 14.7-.8 3.5-.4 6.4.8 9.1 2.5.9.6 1.5 1.6 1.7 2.7.7 4.7 1.3 9.4.5 14.2-.5 3.1-2.8 4.7-4.3 7-1.8 2.7-4.5 1.9-7.1 1.8-2.6-.1-5.2.2-7.8.8-4.4 1-8.1-.5-10.4-4.5-1.6-2.6-2.3-5.7-2.1-8.8.5-5.8.8-11.5-1.9-18.1m26 9c-5 .3-9.6.4-14.2.8-2.8.3-4.7 3.1-4.4 6 .3 2.8.9 5.7 1.4 8.2h11.6c2.1 0 3.2-1.1 4.2-3 2.1-3.6 2.1-7.5 1.4-12"/><path id="パス_10_00000165218575473307361060000008897127411903164331_" class="st0" d="M57.1 83.8c2.8 1.9 5.2 3.5 7.5 5.2.7.7 1.2 1.7 1.2 2.7.1 3.8.1 7.7.1 11.6 7 2.6 14.7 2.8 19.6 9.1-.1.2-.3.4-.4.6-3.9 3.2-7.8 2.1-11.9.2-1.8-.6-3.6-1.1-5.4-1.4 0 4.4-.1 8.4 0 12.3.2 3.3-.5 4.7-3 5.9-1.2.7-2.8.5-3.8-.6-3.6-3.4-6.4-7-5.6-12.4 1-7 1.9-14 2.4-21.1.3-3.7-.4-7.5-.7-12.1"/><path id="パス_13_00000075858739990518981780000001216197413462307997_" class="st0" d="M23.4 211.5c3.2 2.3 6.1 4.3 8.9 6.5 6.5 5.1 14.2 7.2 22 9.1 1.3.3 3-.3 4.4-.8 1.4-.6 2.8-1.4 4.1-2.2 5-2.6 7.9-1.8 11.2 3.4-3.6 5.3-8.3 8.2-15 7.5-4.8-.3-9.4-1.5-13.7-3.6-3.3-1.6-6.7-2.9-10.2-4.1-4.5-1.6-8.3-4.6-10.9-8.6-2.1-2.7-2.1-2.7-.8-7.2"/><path id="パス_18_00000104700057178323093420000013173222929276499377_" class="st0" d="M69.1 204.2c4.2 2.2 8.5 4.4 12.7 6.7 1.5.7 3 1.6 4.3 2.7 1.4.9 1.7 2.8.8 4.2-.2.4-.6.7-.9.9-1.3 1-2.7 2-4 2.9-6.4-3.3-11.8-8.3-15.4-14.6l2.5-2.8"/><path id="パス_19_00000037658223717597765850000015066779049051532476_" class="st0" d="M8.5 217.9c3 2 6 3.9 8.8 6 .6.6.9 1.6.8 2.4-.7 3.4-.6 7.4-5.3 8.5-3.3-1.9-5.2-5.3-7.1-8.6-.6-1-.2-3 .3-4.3.4-1.3 1.5-2.5 2.5-4"/><path id="パス_21_00000132058260458014820890000014556330531003730864_" class="st0" d="M58.6 218.3l-5.1 2c-3.1-3.7-8.3-5.4-8.7-11.5 3.6.5 6.1 2.8 9.4 2.2.8-.1 2.2 1.9 3 3.2.6.9.8 2.2 1.4 4.1"/></g><path id="パス_3_00000121260221321607491440000015447394894816482997_" class="st0" d="M166.5 271.3c3.7 1.2 6.3 1.5 8.1 2.8 6.4 4.6 12.5 9.2 15.7 17.3 4.7 12 15.4 18.9 26.5 23.8 14.9 6.4 31.1 9.4 47.3 8.8 6.2-.2 12.9-.7 17.4-6.7 3.9-5.2 14.4-6.1 20.4-3.7 4.8 1.9 8 5.2 11.7 8.1 2.6 1.8 3.5 5.2 2.1 8-2.7 5.8-5.5 11.8-12.9 13.2-6.1 1.2-12.1 2.6-18.1 3.9-1.2.3-2.5.1-3.7.4-23.1 6.2-44.1-.5-64.4-11-12.6-6.5-23.9-15.2-33.4-25.8-6.6-7.2-11.1-15.9-13.3-25.4-.8-3.8-1.9-7.8-3.4-13.7"/><path id="パス_11_00000132774873870436565810000007434493158905018292_" class="st0" d="M163.2 321.7c-2.2 6.2-4.1 12.6-6.8 18.6-2 4.4-6.8 6-11.4 4.7-2.9-.7-5.7-1.8-8.3-3.1-6.1-3.4-7.7-7.7-7-14.7.3-4.6.4-9.3.3-13.9 0-4.8 3.1-8 5.8-11.3.9-.8 2.2-1.2 3.4-1 7.6 2 14.5 6 19.9 11.7 2.1 2.1 2.6 5.6 4.1 9"/><path id="パス_14_00000175289327441728557330000006169779005381766530_" class="st0" d="M328.6 300.1c-7.6.5-12.1-5.2-15.9-10.9-3.2-4.6-5.3-10-7.3-15.3-2.1-5.5 2.2-10.3 7.7-8.9 4.3 1 8.5 2.4 12.5 4.3 7.4 3.7 11.7 10.5 14.5 18 1.7 5-5.5 13.1-11.5 12.8"/><path id="パス_15_00000165955966611625627650000003491172496623893409_" class="st0" d="M245.4 263.8c2.8.9 5.7 1.5 8.3 2.8 5.5 2.8 10.5 6.5 13.8 11.9 2.8 4.6 2 7.7-1.9 11.3-6.5 6-12.1 6.3-19.3 1.1-5.6-4.1-9.6-9.4-10.6-16.4-.6-5.8 3.7-10.3 9.7-10.7"/><g><path id="パス_1_00000052822671470301752090000009971185717964352397_" class="st0" d="M168.3 144.6c-4.1 4.2-8 8.1-11.7 12.1-5.9 6.4-12.5 9.6-21.1 5.7-.5-.1-1-.2-1.5-.2-.5-.1-1-.3-1.4-.5-2.4-8.2-1.8-9.1 4.2-13.9 5.7-4.6 10.2-10.2 12.4-17.5.8-2.6 2.9-4.7 4.3-7.1 1.7-2.9 3.3-5.9 5.3-9.6-1.1-.1-2.2-.1-3.4 0-13.6 3.5-23.6-.7-29.8-12.8-.6-1.1-1-2.7-1.9-3.2-4.5-2.4-3.4-6.2-2.8-10.4 1.2.4 2.6.4 3.4 1.1 3.5 3.2 7.6 3.9 12.1 3.4 9.1-1.1 18.2-2.1 27.7-3.2.3-2.9.6-5.6.9-8.8-1.7 0-3.4-.5-4.4.1-4.8 2.6-9.5.6-14.1-.3-3.9-.8-9.6-9.3-8-12.6 1.7-3.2 4.4-5.9 7.7-7.5 8.3-4 15.5-8.8 20.7-16.7 3.8-5.9 8.8-6.2 14.2-1.8 2.2 1.8 4.3 3.6 6.3 5.6 1.3 1.2 2.8 2.6 3.2 4.2 1 3.9 1.6 7.9 1.6 11.9-.2 5.3-5.7 4-9 5.9 1.9 5.6 3.8 11.1 5.8 17.1 4.6 0 9.8.8 14.6-.2 5.9-1.3 10.4-.5 14 4.5.5.7 1.6 1 2.6 1.6-.7 2.8-.5 6.3-2.1 7.6-3.7 3-7.8 5.3-12.3 6.8-5 1.6-10.5 1.7-16.4 2.5-.1 2.3-.2 4.7-.3 6.6 6.2 3.1 12 5.7 17.4 8.9 5 3 5.4 5.4 3.7 11.6-6.6 3.1-12.3-1.3-19-2.6-2.6 9.5-2.7 19-2.3 28.6.2 4.6.7 9.1.7 13.7 0 6.5-5.5 10.9-12.1 9.8-6.9-1.1-12.5-8.4-11.7-15.5 1-7.5 2.3-15 3.4-22.5-.1-.7-.6-1.4-.9-2.4"/><path id="パス_4_00000139999400784924596720000006807866991128800135_" class="st0" d="M225.6 81.7c11 2.9 20-3.1 30.5-3.3-12.8-11.6-15-19.5-7.5-27.8 3.9 2.3 8.4 4.3 12.1 7.2 5.4 4.1 6.1 8.6 3.5 14.9-.6 1.3-1.3 2.6-2.4 4.7 2.2-.4 4.4-.7 6.6-.8 2 .2 4 .6 5.9 1.2.1-.6.4-1.2.3-1.3-8.2-8.7-6.2-18.3-2.5-28.1.7-1.9 1.5-3.7 2.7-6.6 5.6 1.8 11.3 3 16.3 5.5 4.1 2 5.5 6.2 4.9 11.1-1.1 8.4-5.7 14.4-12 19.6-.8.6-1.5 1.2-3 2.4 13.1 4.4 15.6 14 13.9 25.7-.8 5.3-1.1 10.7-2 15.9-1.3 7.7-3.9 9.6-12 9.9-7.9.3-15.7.4-23.6.9-2.7.3-5.4 1-8 2-9.3 3-15.1.3-19.7-9.3 7.8-1.3 15.4-3 23.1-3.9 7.8-1 15.6-1.2 23.7-1.8v-9.7c-6.8.4-13 2.2-19.2 4.3-2.6.9-5.3 1.7-8 2.3-8 1.7-12.5-1.2-15.2-9.5 14.7-1.2 28.2-8.3 43.3-7.7v-12c-1.6-.2-2.7-.6-3.5-.3-7.7 2.6-15.4 5.3-23.1 7.9-.2.1-.4.3-.7.4-12.8 4.8-20.8.5-24.4-13.8"/><path id="パス_8_00000179623026969694430400000001929737825726518932_" class="st0" d="M263.8.9c10.1 4.4 16.2 11.6 20.4 23.7-4.4 9.3-13.7 11-21.9 14.6-9.7 4.3-20.8 3.9-30.2 9.5-5 3-9.9-.3-12.1-6.1-.5-1.4-1.3-2.8-2-4.5 2.4-3.3 5.9-5.8 9.8-7 5.9-2.1 10.8-7.1 15.7-11.3 7-6.1 13.7-12.7 20.3-18.9"/><path id="パス_12_00000158731350478379050970000005685996892576216482_" class="st0" d="M239.6 141c5.8 2.8 11.2 4.7 13.4 10.6.5.9 1.3 1.5 2.2 1.9 6.4 3 12.8 6.2 19.3 8.9 5.2 2.2 9.8.8 13.6-3.4.7-1 1.6-2 2.5-2.8 3.2-2.2 6.8-4.4 10.6-2.5 4.7 2.4 9.2 5.4 11.1 10.8.1.4-.1 1-.2 1.4-.8 6.5-8.7 14-15.3 14.7-11.7 1.2-22-2.9-31.7-8.8-11.1-6.7-20.9-14.6-25.1-27.6-.1-.9-.3-2-.4-3.2"/><path id="パス_16_00000149383631149823780100000014281133993640395428_" class="st0" d="M215.5 146.5c4.4.9 8.6 1.6 12.7 2.6 3.7.9 6.3 4 5.4 7.1-1.4 5-2.2 10.3-5.8 14.5-4.3 5.1-6.5 5.2-13.3 2.1-5.4-2.5-7.6-8.1-5.5-13.2 1.9-4.5 4.4-8.8 6.5-13.1"/><path id="パス_17_00000157989418552549473260000017989278126428751261_" class="st0" d="M216.8 53.7c8 .1 14.6 1 20.4 5.6 2.9 2.4 4.5 4.7 3.6 8.4-.9 3.7-2.1 7.2-3.1 10.7-10.9 2.4-18.1-2.5-19.4-13-.5-3.9-1-7.7-1.5-11.7"/><path id="パス_20_00000160162153362055969110000000367287487228250257_" class="st0" d="M299.8 135.4c8.3-2.8 16.6-.3 19.8 5.8 1.5 2.8 2.8 5.5.1 8.4-2.6 2.6-6.4 3.5-9.8 2.3-4.6-1.8-10.2-10.9-10.1-16.5"/><path id="パス_22_00000038388635120503352840000009954301140393603993_" class="st0" d="M270.1 136.9c5.5-2.1 9.8.4 14.1 2.1 2.6 1.1 3.3 8.6 1.4 11-1.6 2.1-6.2 3-8.3.9-3.4-3.7-7.9-7.1-7.2-14"/></g><g><path class="st0" d="M172.4 402.8c0-1.4.3-2.6 1-3.8.7-1.1 1.6-2 2.7-2.7 1.2-.7 2.4-1 3.9-1s2.7.3 3.9 1c1.1.7 2 1.6 2.7 2.7.7 1.1 1 2.4 1 3.8s-.3 2.6-1 3.8c-.7 1.1-1.6 2-2.7 2.7-1.2.7-2.5 1-3.9 1s-2.7-.3-3.9-1c-1.1-.6-2-1.5-2.7-2.7-.6-1-1-2.3-1-3.8zm1.7.1c0 1.1.3 2.1.8 3 .5.9 1.2 1.6 2.1 2.2.9.5 1.9.8 3 .8s2.1-.3 3-.8c.9-.5 1.6-1.3 2.1-2.2.5-.9.8-1.9.8-3s-.3-2.1-.8-3c-.5-.9-1.2-1.6-2.1-2.2s-1.9-.8-3-.8-2.1.3-3 .9c-.9.6-1.6 1.3-2.1 2.2-.5.9-.8 1.8-.8 2.9zM202.1 395.8l.2 4.5-.2-.9c.4-1.2 1.2-2.2 2.3-2.9s2.4-1.1 3.8-1.1c1.3 0 2.4.4 3.2 1.2.8.8 1.2 1.8 1.3 3.1V410H211v-9.9c0-.9-.3-1.7-.9-2.3-.6-.6-1.4-.9-2.4-.9-.9 0-1.8.2-2.7.7-.8.5-1.5 1.1-2 1.9-.5.8-.7 1.8-.7 2.9v7.6h-1.7v-14.2h1.5zM222.2 404h6.7v1.5h-6.7V404zM215.3 451.5c-.8 0-1.7-.1-2.6-.5-.9-.3-1.6-.8-2.2-1.5l.8-1.1c.5.5 1.1.9 1.7 1.2.7.3 1.4.5 2.1.5.6 0 1.1-.1 1.6-.2.5-.2.9-.4 1.2-.8.3-.4.5-.9.5-1.6 0-.7-.2-1.2-.6-1.6-.4-.4-.9-.7-1.4-.9l-1.8-.6c-1-.3-1.9-.8-2.6-1.4-.7-.6-1-1.4-1-2.5 0-.8.2-1.5.6-2 .4-.6.9-1 1.5-1.4.7-.3 1.4-.5 2.2-.5.8 0 1.5.1 2.2.4.7.2 1.4.7 2 1.2l-.8 1.2c-.4-.5-.9-.9-1.5-1.1-.6-.2-1.2-.3-1.7-.3-.4 0-.8.1-1.3.3-.5.2-.8.4-1.1.7-.3.3-.5.8-.5 1.3 0 .6.2 1 .5 1.4.3.4.7.6 1.2.9l1.5.6c.7.2 1.4.5 2 .8.6.3 1.1.7 1.5 1.2.4.5.6 1.2.6 2s-.2 1.6-.5 2.2c-.4.7-.9 1.2-1.6 1.6s-1.4.5-2.5.5zM233.3 451.2v-27.6h1.7v17.2l-.1-.6c.5-1 1.3-1.8 2.3-2.5 1.1-.7 2.3-1 3.7-1 1.3 0 2.4.4 3.2 1.2.8.8 1.2 1.8 1.3 3.1v10.4h-1.7v-9.9c0-.9-.3-1.7-.9-2.3-.6-.6-1.4-.9-2.4-.9-.9 0-1.8.2-2.7.7-.8.5-1.5 1.1-2 2-.5.8-.7 1.8-.7 2.8v7.6h-1.7zM259.5 431.8c0-.3.1-.6.4-.9.3-.2.6-.3.9-.3.3 0 .6.1.9.3.2.2.4.5.4.9s-.1.7-.4.9c-.2.2-.5.3-.9.3-.3 0-.6-.1-.9-.4-.3-.2-.4-.5-.4-.8zm.4 5.2h1.7v14.2h-1.7V437zM277.5 437l.2 4.5-.2-.9c.4-1.2 1.2-2.2 2.3-2.9 1.2-.7 2.4-1.1 3.8-1.1 1.3 0 2.4.4 3.2 1.2.8.8 1.2 1.8 1.3 3.1v10.4h-1.7v-9.9c0-.9-.3-1.7-.9-2.3-.6-.6-1.4-.9-2.4-.9-.9 0-1.8.2-2.7.7-.8.5-1.5 1.1-2 1.9-.5.8-.7 1.8-.7 2.9v7.6H276V437h1.5z"/></g></svg>