<svg xmlns="http://www.w3.org/2000/svg" width="103" height="103" viewBox="0 0 103 103">
  <g id="btn_reserve" transform="translate(-1115 -945)">
    <g id="パス_4244" data-name="パス 4244" transform="translate(1115 945)" fill="#fff">
      <path d="M 51.5 101.5 C 44.74938583374023 101.5 38.20148468017578 100.1782150268555 32.03820037841797 97.57137298583984 C 26.08441352844238 95.05313110351562 20.73705673217773 91.44774627685547 16.14465713500977 86.85533905029297 C 11.55227184295654 82.262939453125 7.946871280670166 76.91558837890625 5.428628444671631 70.96179962158203 C 2.821785688400269 64.79851531982422 1.5 58.25061416625977 1.5 51.5 C 1.5 44.74938583374023 2.821785688400269 38.20148468017578 5.428628444671631 32.03821563720703 C 7.946871280670166 26.08442878723145 11.55227184295654 20.73705673217773 16.14465713500977 16.14465713500977 C 20.73705673217773 11.55227184295654 26.08442878723145 7.946871280670166 32.03821563720703 5.428628444671631 C 38.20148468017578 2.821785688400269 44.74938583374023 1.5 51.5 1.5 C 58.25061416625977 1.5 64.79851531982422 2.821785688400269 70.96179962158203 5.428628444671631 C 76.91558837890625 7.946871280670166 82.262939453125 11.55227184295654 86.85533905029297 16.14465713500977 C 91.44774627685547 20.73705673217773 95.05313110351562 26.08441352844238 97.57137298583984 32.03820037841797 C 100.1782150268555 38.20148468017578 101.5 44.74938583374023 101.5 51.5 C 101.5 58.25061416625977 100.1782150268555 64.79851531982422 97.57137298583984 70.96179962158203 C 95.05313110351562 76.91558837890625 91.44774627685547 82.262939453125 86.85533905029297 86.85533905029297 C 82.262939453125 91.44774627685547 76.91558837890625 95.05313110351562 70.96179962158203 97.57137298583984 C 64.79851531982422 100.1782150268555 58.25061416625977 101.5 51.5 101.5 Z" stroke="none"/>
      <path d="M 51.5 3 C 44.95121383666992 3 38.59992218017578 4.28192138671875 32.62253570556641 6.810134887695312 C 26.84754180908203 9.252754211425781 21.66044616699219 12.75019836425781 17.205322265625 17.205322265625 C 12.75019836425781 21.66044616699219 9.252754211425781 26.84754180908203 6.810134887695312 32.62253570556641 C 4.28192138671875 38.59992218017578 3 44.95121383666992 3 51.5 C 3 58.04878616333008 4.28192138671875 64.40007781982422 6.810134887695312 70.37745666503906 C 9.252754211425781 76.1524658203125 12.75019836425781 81.33955383300781 17.205322265625 85.794677734375 C 21.66044616699219 90.24980163574219 26.84754180908203 93.74724578857422 32.62253570556641 96.18986511230469 C 38.59992218017578 98.71807861328125 44.95121383666992 100 51.5 100 C 58.04878616333008 100 64.40007781982422 98.71807861328125 70.37745666503906 96.18986511230469 C 76.1524658203125 93.74724578857422 81.33955383300781 90.24980163574219 85.794677734375 85.794677734375 C 90.24980163574219 81.33955383300781 93.74724578857422 76.1524658203125 96.18986511230469 70.37745666503906 C 98.71807861328125 64.40007781982422 100 58.04878616333008 100 51.5 C 100 44.95121383666992 98.71807861328125 38.59992218017578 96.18986511230469 32.62253570556641 C 93.74724578857422 26.84754180908203 90.24980163574219 21.66044616699219 85.794677734375 17.205322265625 C 81.33955383300781 12.75019836425781 76.1524658203125 9.252754211425781 70.37745666503906 6.810134887695312 C 64.40007781982422 4.28192138671875 58.04878616333008 3 51.5 3 M 51.5 0 C 79.94265747070312 0 103 23.05733489990234 103 51.5 C 103 79.94265747070312 79.94265747070312 103 51.5 103 C 23.05733489990234 103 0 79.94265747070312 0 51.5 C 0 23.05733489990234 23.05733489990234 0 51.5 0 Z" stroke="none" fill="#604229"/>
    </g>
    <path id="パス_4334" data-name="パス 4334" d="M2.128-4.3a9.257,9.257,0,0,0-.266,2c0,1.9,1.582,2.968,4.76,2.968A22.115,22.115,0,0,0,11.438.21l-.014-1.96A19.66,19.66,0,0,1,6.552-1.2c-2,0-2.828-.644-2.828-1.526a5.705,5.705,0,0,1,.224-1.4ZM9.87-11.032a10.654,10.654,0,0,1,.6,1.008c-1.064.1-2.59.182-3.92.182a35.86,35.86,0,0,1-3.766-.168v1.848c1.12.084,2.324.154,3.78.154,1.316,0,3.038-.1,4-.168V-9.842c.14.28.28.546.392.77l1.134-.49c-.266-.518-.77-1.4-1.12-1.918Zm1.652-.63A14.843,14.843,0,0,1,12.656-9.73l1.106-.476a15.454,15.454,0,0,0-1.134-1.9Zm14.6,5.012-.308.112H23.6l.336-.546c-.322-.154-.742-.308-1.2-.49a23.082,23.082,0,0,0,3.234-2.66l-1.19-.938-.378.1H16.03v1.526h6.762a14.572,14.572,0,0,1-1.778,1.316c-.784-.294-1.568-.56-2.2-.784l-.826,1.26c.9.336,2.03.784,3.066,1.218h-6.37v1.582h5.53v4.3c0,.21-.084.266-.35.28s-1.316,0-2.142-.028a5.67,5.67,0,0,1,.6,1.6A8.748,8.748,0,0,0,21.084.938c.672-.238.868-.658.868-1.54V-4.956h2.954a17.7,17.7,0,0,1-1.092,1.722l1.428.826a18.648,18.648,0,0,0,2.24-3.654Zm2.87,2.982A10.179,10.179,0,0,1,28.252-.42a8.229,8.229,0,0,1,1.274.6,12.944,12.944,0,0,0,.84-3.612Zm3.122.308a14.249,14.249,0,0,1,.826,2.7l1.316-.462a15.965,15.965,0,0,0-.91-2.632Zm4.368-6.132a16.056,16.056,0,0,0,.686-2l-1.708-.364A11.147,11.147,0,0,1,33.152-7.2l-.1-.168-1.176.518c.168.294.336.63.49.966l-1.414.056a45.069,45.069,0,0,0,2.674-3.794l-1.414-.588a21.891,21.891,0,0,1-1.288,2.3c-.14-.182-.308-.392-.49-.588.5-.784,1.078-1.862,1.582-2.828l-1.47-.518a16.787,16.787,0,0,1-1.022,2.436L29.19-9.7l-.784,1.148a13.189,13.189,0,0,1,1.68,1.918c-.21.308-.434.6-.644.868l-1.036.042.14,1.456,2.072-.14V1.232h1.47V-4.522l.8-.056a7.618,7.618,0,0,1,.2.756l1.26-.588A11.15,11.15,0,0,0,33.25-7.028a10.7,10.7,0,0,1,1.316.924,11.535,11.535,0,0,0,1.19-1.806H39.62c-.154,4.774-.364,6.818-.784,7.252a.691.691,0,0,1-.588.238c-.378,0-1.176,0-2.058-.084a3.98,3.98,0,0,1,.56,1.68,13.364,13.364,0,0,0,2.184-.042,1.735,1.735,0,0,0,1.344-.77c.588-.742.784-2.954.966-9.086.014-.21.014-.77.014-.77Zm1.582,6.4a13.168,13.168,0,0,0-1.82-3.136l-1.33.672a13.225,13.225,0,0,1,1.708,3.234Z" transform="translate(1145 1027)" fill="#62462c"/>
    <g id="cancel_1_" data-name="cancel (1)" transform="translate(1147 965.5)">
      <path id="パス_4233" data-name="パス 4233" d="M238.865,367.4h2.61v2.61h-2.61Z" transform="translate(-220.67 -339.414)" fill="#62462c"/>
      <path id="パス_4234" data-name="パス 4234" d="M102.3,238.867h2.61v2.61H102.3Z" transform="translate(-94.507 -220.672)" fill="#62462c"/>
      <path id="パス_4235" data-name="パス 4235" d="M375.434,367.4h2.61v2.61h-2.61Z" transform="translate(-346.837 -339.414)" fill="#62462c"/>
      <path id="パス_4236" data-name="パス 4236" d="M102.3,367.4h2.61v2.61H102.3Z" transform="translate(-94.507 -339.414)" fill="#62462c"/>
      <path id="パス_4237" data-name="パス 4237" d="M34.8,2.448h-.856v3.59a1.143,1.143,0,0,1-2.285,0v-4.9a1.143,1.143,0,0,0-2.285,0V2.448H26.6v3.59a1.143,1.143,0,1,1-2.285,0v-4.9a1.143,1.143,0,0,0-2.285,0V2.448H19.256v3.59a1.143,1.143,0,1,1-2.285,0v-4.9a1.143,1.143,0,0,0-2.285,0V2.448H11.913v3.59a1.143,1.143,0,0,1-2.285,0v-4.9a1.143,1.143,0,0,0-2.285,0V2.448H4.2A4.207,4.207,0,0,0,0,6.65V9.791H39V6.65a4.207,4.207,0,0,0-4.2-4.2Z" transform="translate(0)" fill="#62462c"/>
      <path id="パス_4238" data-name="パス 4238" d="M0,181.255a4.207,4.207,0,0,0,4.2,4.2H34.8a4.207,4.207,0,0,0,4.2-4.2V158.533H0ZM26.312,163.51a1.143,1.143,0,0,1,1.143-1.143h4.9a1.143,1.143,0,0,1,1.143,1.143v4.9a1.143,1.143,0,0,1-1.143,1.143h-4.9a1.143,1.143,0,0,1-1.143-1.143Zm0,9.791a1.143,1.143,0,0,1,1.143-1.143h4.9a1.143,1.143,0,0,1,1.143,1.143v4.9a1.143,1.143,0,0,1-1.143,1.143h-4.9a1.143,1.143,0,0,1-1.143-1.143Zm-10.068-8.983A1.143,1.143,0,1,1,17.86,162.7l1.64,1.64,1.64-1.64a1.143,1.143,0,1,1,1.616,1.616l-1.64,1.64,1.64,1.64a1.143,1.143,0,1,1-1.616,1.616l-1.64-1.64-1.64,1.64a1.143,1.143,0,0,1-1.616-1.616l1.64-1.64ZM15.91,173.3a1.143,1.143,0,0,1,1.143-1.143h4.9A1.143,1.143,0,0,1,23.09,173.3v4.9a1.143,1.143,0,0,1-1.143,1.143h-4.9A1.143,1.143,0,0,1,15.91,178.2Zm-10.4-9.791a1.143,1.143,0,0,1,1.143-1.143h4.9a1.143,1.143,0,0,1,1.143,1.143v4.9a1.143,1.143,0,0,1-1.143,1.143H6.65A1.143,1.143,0,0,1,5.507,168.4Zm0,9.791a1.143,1.143,0,0,1,1.143-1.143h4.9a1.143,1.143,0,0,1,1.143,1.143v4.9a1.143,1.143,0,0,1-1.143,1.143H6.65A1.143,1.143,0,0,1,5.507,178.2Z" transform="translate(0 -146.457)" fill="#62462c"/>
      <path id="パス_4239" data-name="パス 4239" d="M375.434,238.867h2.61v2.61h-2.61Z" transform="translate(-346.837 -220.672)" fill="#62462c"/>
    </g>
  </g>
</svg>
