<svg xmlns="http://www.w3.org/2000/svg" width="103" height="103" viewBox="0 0 103 103">
  <g id="btn_inquiry" transform="translate(-1255 -945)">
    <g id="楕円形_2" data-name="楕円形 2" transform="translate(1255 945)" fill="#fff" stroke="#62462c" stroke-width="3">
      <circle cx="51.5" cy="51.5" r="51.5" stroke="none"/>
      <circle cx="51.5" cy="51.5" r="50" fill="none"/>
    </g>
    <path id="パス_4335" data-name="パス 4335" d="M3.906-1.246c-.364,0-1.008-.392-1.008-.812,0-.49.56-1.064,1.414-1.5.028.728.042,1.358.042,1.708C4.354-1.372,4.158-1.246,3.906-1.246ZM5.88-6.23c0-.406,0-.826.014-1.246A26.776,26.776,0,0,0,8.54-7.91L8.5-9.646a18.986,18.986,0,0,1-2.548.518c.014-.35.028-.686.042-.994.028-.35.084-.952.112-1.2H4.2a11.006,11.006,0,0,1,.1,1.218c0,.238,0,.644-.014,1.134-.28.014-.546.028-.8.028a15.189,15.189,0,0,1-1.918-.112L1.6-7.378c.6.056,1.3.07,1.932.07.224,0,.476-.014.742-.028v1.162c0,.322,0,.644.014.966C2.59-4.466,1.176-3.22,1.176-2,1.176-.532,3.094.63,4.452.63c.9,0,1.526-.448,1.526-2.17,0-.476-.042-1.54-.07-2.646a9.842,9.842,0,0,1,2.6-.378c1.2,0,2.044.546,2.044,1.484,0,1.008-.9,1.582-2.016,1.778a10.6,10.6,0,0,1-1.708.1L7.476.574A11.3,11.3,0,0,0,9.3.35c2.2-.546,3.052-1.778,3.052-3.416,0-1.9-1.68-3.038-3.808-3.038a11.284,11.284,0,0,0-2.66.364ZM9.3-8.47a21.061,21.061,0,0,1,3.332,2.016l.84-1.428a30.627,30.627,0,0,0-3.4-1.946Zm9.646-1.582V-9.3H16.8v-.756ZM16.8-7.378v-.8h2.142v.8Zm3.7,1.26v-5.208H15.148V1.218H16.8V-6.118Zm1.61,2.338v1.652H19.8V-3.78ZM23.66-.756v-4.4H18.242V.028H19.8V-.756Zm-.616-6.608v-.812h2.212v.812Zm2.212-2.7v.77H23.044v-.77Zm1.694-1.26H21.462V-6.1h3.794V-.8c0,.252-.1.336-.364.336s-1.218.028-2.03-.028a5.961,5.961,0,0,1,.56,1.708A6.877,6.877,0,0,0,26.166.9c.588-.266.784-.742.784-1.666ZM37.786-3.038V-.756h-5.53V-3.038Zm-7.168,4.27h1.638V.714h5.53v.518h1.708v-5.74H30.618Zm1.554-8.6a14.3,14.3,0,0,0,2.786-2.842,15.337,15.337,0,0,0,2.87,2.842Zm1.848-4.48a14.821,14.821,0,0,1-5.7,4.984A6.8,6.8,0,0,1,29.372-5.5a19.506,19.506,0,0,0,2.17-1.372v.98h6.972V-6.86a16.793,16.793,0,0,0,2.142,1.33,8.138,8.138,0,0,1,1.078-1.5,14.064,14.064,0,0,1-5.992-4.816Zm16.786.91a10.737,10.737,0,0,1,.1,1.26v1.568c-1.26.112-2.6.238-3.78.35.014-.546.014-1.008.014-1.33a10.966,10.966,0,0,1,.084-1.442h-1.96a10.468,10.468,0,0,1,.112,1.54v1.4l-1.05.1c-.7.056-1.344.084-1.736.084l.182,1.778c.364-.056,1.232-.2,1.666-.252l.938-.1c0,1.3,0,2.646.014,3.234.056,2.394.49,3.15,4.088,3.15A38.953,38.953,0,0,0,53.424.182l.07-1.9a25.783,25.783,0,0,1-4.144.364c-2.086,0-2.2-.308-2.24-1.666-.028-.588-.014-1.862,0-3.136,1.19-.126,2.548-.252,3.766-.35a15.67,15.67,0,0,1-.1,1.666c-.042.266-.154.322-.434.322A8.649,8.649,0,0,1,49.07-4.69l-.042,1.526a17.546,17.546,0,0,0,2.086.21c.714,0,1.064-.182,1.2-.91a24.253,24.253,0,0,0,.21-2.772c.406-.028.77-.042,1.064-.056.378-.014,1.106-.028,1.344-.014V-8.414c-.406.028-.952.07-1.33.1-.322.014-.672.042-1.05.07.014-.462.028-.952.042-1.5a11.81,11.81,0,0,1,.084-1.19Z" transform="translate(1279 1028)" fill="#62462c"/>
    <g id="email" transform="translate(1284 892.828)">
      <g id="グループ_22" data-name="グループ 22" transform="translate(2.356 94.081)">
        <g id="グループ_21" data-name="グループ 21">
          <path id="パス_4240" data-name="パス 4240" d="M53.676,277.251l-3.853,3.866a4.264,4.264,0,0,1-5.907,0l-3.853-3.866L26.226,291.133a4,4,0,0,0,1.687.38H65.827a4,4,0,0,0,1.686-.38Z" transform="translate(-26.226 -277.251)" fill="#62462c"/>
        </g>
      </g>
      <g id="グループ_24" data-name="グループ 24" transform="translate(2.356 76)">
        <g id="グループ_23" data-name="グループ 23">
          <path id="パス_4241" data-name="パス 4241" d="M65.829,76H27.915a4,4,0,0,0-1.687.38L41.014,91.216l0,0v0l4.808,4.824a1.618,1.618,0,0,0,2.091,0l4.807-4.823,0,0,0,0L67.515,76.38A4,4,0,0,0,65.829,76Z" transform="translate(-26.228 -76)" fill="#62462c"/>
        </g>
      </g>
      <g id="グループ_26" data-name="グループ 26" transform="translate(0 78.265)">
        <g id="グループ_25" data-name="グループ 25">
          <path id="パス_4242" data-name="パス 4242" d="M.43,101.212A3.993,3.993,0,0,0,0,102.99v24.258a3.992,3.992,0,0,0,.43,1.778l13.861-13.906Z" transform="translate(0 -101.212)" fill="#62462c"/>
        </g>
      </g>
      <g id="グループ_28" data-name="グループ 28" transform="translate(31.709 78.265)">
        <g id="グループ_27" data-name="グループ 27">
          <path id="パス_4243" data-name="パス 4243" d="M366.794,101.21l-13.861,13.907,13.861,13.906a3.994,3.994,0,0,0,.43-1.778V102.988A3.993,3.993,0,0,0,366.794,101.21Z" transform="translate(-352.933 -101.21)" fill="#62462c"/>
        </g>
      </g>
    </g>
  </g>
</svg>
