<svg xmlns="http://www.w3.org/2000/svg" width="433.301" height="400.285" viewBox="0 0 433.301 400.285">
  <g id="catch" transform="translate(-153.699 -155.475)">
    <g id="グループ_9" data-name="グループ 9" transform="translate(-463 -643.44)">
      <path id="パス_1" data-name="パス 1" d="M121.092,63.882c-1.906,1.965-3.728,3.767-5.461,5.651C112.9,72.5,109.814,74.023,105.8,72.2a4.145,4.145,0,0,0-.706-.092,5.25,5.25,0,0,1-.66-.253c-1.128-3.808-.844-4.241,1.942-6.5a16.637,16.637,0,0,0,5.805-8.159,17.231,17.231,0,0,1,1.99-3.3c.793-1.367,1.535-2.764,2.479-4.477a8.921,8.921,0,0,0-1.565.01c-6.344,1.65-11.008-.347-13.939-5.981-.272-.521-.459-1.254-.9-1.49-2.087-1.123-1.6-2.9-1.326-4.871.547.168,1.21.183,1.581.519a6.743,6.743,0,0,0,5.648,1.6c4.244-.493,8.489-.98,12.948-1.5.143-1.353.275-2.6.437-4.127-.8,0-1.57-.231-2.075.039-2.26,1.211-4.453.289-6.6-.152-1.842-.378-4.5-4.362-3.748-5.906a8.246,8.246,0,0,1,3.617-3.5c3.861-1.87,7.245-4.106,9.659-7.8,1.787-2.734,4.116-2.886,6.634-.842,1.016.824,2.012,1.68,2.94,2.6a4.834,4.834,0,0,1,1.479,1.974,21.478,21.478,0,0,1,.741,5.536c-.092,2.483-2.656,1.851-4.2,2.746.877,2.6,1.754,5.2,2.687,7.965,2.152,0,4.591.385,6.842-.1,2.774-.6,4.854-.223,6.541,2.093.245.336.759.476,1.237.759-.314,1.288-.216,2.946-.969,3.554a17.809,17.809,0,0,1-5.761,3.168c-2.341.726-4.889.788-7.645,1.182-.057,1.075-.116,2.2-.162,3.1,2.895,1.467,5.6,2.65,8.105,4.161,2.316,1.4,2.522,2.516,1.722,5.433-3.087,1.446-5.738-.606-8.893-1.194a41.845,41.845,0,0,0-1.064,13.342c.1,2.134.311,4.267.306,6.4a4.653,4.653,0,0,1-5.646,4.589,6.818,6.818,0,0,1-5.441-7.225c.444-3.515,1.062-7.007,1.573-10.514.042-.288-.164-.611-.309-1.1" transform="translate(846.556 802.138)" fill="#fff"/>
      <path id="パス_3" data-name="パス 3" d="M118.671,106.5c1.79.593,3.021.717,3.9,1.342,3.083,2.2,6,4.4,7.518,8.269,2.265,5.762,7.365,9.038,12.7,11.385a52.474,52.474,0,0,0,22.63,4.235c2.959-.079,6.165-.331,8.351-3.218,1.878-2.479,6.872-2.925,9.786-1.765,2.3.917,3.821,2.477,5.6,3.895a3.037,3.037,0,0,1,.986,3.85c-1.311,2.757-2.638,5.635-6.16,6.34-2.9.58-5.786,1.265-8.683,1.879-.579.123-1.2.053-1.772.205-11.078,2.97-21.088-.234-30.817-5.245a56.241,56.241,0,0,1-15.989-12.334,26.7,26.7,0,0,1-6.36-12.154c-.454-1.949-.983-3.881-1.7-6.683" transform="translate(848.152 815.38)" fill="#fff"/>
      <path id="パス_4" data-name="パス 4" d="M138.647,34.147c5.144,1.361,9.32-1.468,14.25-1.522-5.991-5.424-6.987-9.094-3.48-12.992a51.368,51.368,0,0,1,5.653,3.352c2.5,1.921,2.865,4.019,1.628,6.981-.262.628-.62,1.216-1.135,2.212a19.953,19.953,0,0,1,3.08-.386,17.579,17.579,0,0,1,2.772.541c.066-.28.208-.555.138-.628-3.837-4.065-2.892-8.551-1.169-13.1.332-.874.719-1.728,1.284-3.074a55.805,55.805,0,0,1,7.606,2.582c1.892.944,2.573,2.9,2.27,5.182-.519,3.919-2.677,6.74-5.6,9.134-.354.289-.714.572-1.4,1.114,6.117,2.076,7.292,6.533,6.483,12.017-.365,2.474-.508,4.984-.939,7.445-.63,3.575-1.845,4.5-5.6,4.632-3.673.128-7.35.188-11.016.422a15.89,15.89,0,0,0-3.714.932c-4.336,1.388-7.071.164-9.219-4.326,3.629-.63,7.19-1.388,10.789-1.832,3.624-.446,7.286-.578,11.065-.857V47.425a32.782,32.782,0,0,0-8.956,2.016,31.086,31.086,0,0,1-3.748,1.06c-3.747.778-5.861-.55-7.091-4.45,6.846-.552,13.173-3.858,20.236-3.578v-5.6a5.058,5.058,0,0,0-1.654-.149c-3.6,1.2-7.183,2.455-10.767,3.7-.112.039-.2.129-.315.17-6.021,2.261-9.742.257-11.451-6.441" transform="translate(855.741 802.482)" fill="#fff"/>
      <path id="パス_8" data-name="パス 8" d="M157.164,0c4.721,2.063,7.55,5.408,9.551,11.083-2.046,4.33-6.413,5.127-10.241,6.8-4.543,1.988-9.7,1.827-14.113,4.454-2.327,1.385-4.646-.139-5.66-2.863-.247-.662-.584-1.29-.947-2.081a9.113,9.113,0,0,1,4.584-3.273c2.736-.969,5.057-3.3,7.346-5.294,3.288-2.857,6.388-5.931,9.48-8.828" transform="translate(855.076 798.915)" fill="#fff"/>
      <path id="パス_11" data-name="パス 11" d="M120.4,127.99c-1.072,2.986-1.95,6.054-3.276,8.915a4.517,4.517,0,0,1-5.47,2.265,16.892,16.892,0,0,1-3.96-1.506c-2.9-1.627-3.693-3.68-3.344-7.057a61.805,61.805,0,0,0,.12-6.669c-.014-2.3,1.489-3.818,2.8-5.4a1.916,1.916,0,0,1,1.62-.487,20.029,20.029,0,0,1,9.536,5.6c.981,1.012,1.262,2.7,1.975,4.34" transform="translate(844.846 818.025)" fill="#fff"/>
      <path id="パス_12" data-name="パス 12" d="M143.983,53.218c2.719,1.319,5.232,2.175,6.281,4.942a2.049,2.049,0,0,0,1.031.888c3,1.418,5.978,2.878,9.031,4.164a5.235,5.235,0,0,0,6.36-1.58,7.8,7.8,0,0,1,1.19-1.323c1.486-1.031,3.153-2.068,4.939-1.145,2.19,1.134,4.283,2.542,5.191,5.062.069.192-.047.449-.073.675-.353,3.032-4.041,6.556-7.147,6.881-5.487.576-10.259-1.376-14.812-4.132-5.178-3.135-9.75-6.822-11.717-12.878a15.426,15.426,0,0,1-.274-1.554" transform="translate(856.967 811.14)" fill="#fff"/>
      <path id="パス_14" data-name="パス 14" d="M183.857,120.873c-3.63.219-5.777-2.491-7.627-5.193a34.76,34.76,0,0,1-3.495-7.34,3.061,3.061,0,0,1,3.7-4.238,29.638,29.638,0,0,1,6,2.054c3.555,1.789,5.614,5.009,6.921,8.615.858,2.37-2.6,6.216-5.5,6.1" transform="translate(860.512 814.801)" fill="#fff"/>
      <path id="パス_15" data-name="パス 15" d="M150.253,103.6a27.932,27.932,0,0,1,3.983,1.363,15.752,15.752,0,0,1,6.6,5.681c1.323,2.191.975,3.679-.885,5.393-3.106,2.862-5.813,3.034-9.244.537a11.49,11.49,0,0,1-5.05-7.857c-.375-2.79,1.7-4.93,4.592-5.118" transform="translate(854.342 814.713)" fill="#fff"/>
      <path id="パス_16" data-name="パス 16" d="M135.475,55.29c2.078.425,4.025.76,5.938,1.233,1.72.425,2.94,1.848,2.532,3.3-.66,2.34-1.037,4.807-2.728,6.792-2.019,2.373-3.032,2.429-6.226.967a4.649,4.649,0,0,1-2.547-6.151c.892-2.111,2.023-4.122,3.03-6.137" transform="translate(854.228 811.616)" fill="#fff"/>
      <path id="パス_17" data-name="パス 17" d="M135.337,20.046c3.721.049,6.808.459,9.513,2.633,1.375,1.1,2.1,2.211,1.679,3.906s-.963,3.384-1.431,5.006c-5.107,1.134-8.459-1.167-9.067-6.09-.223-1.8-.457-3.6-.694-5.455" transform="translate(854.981 803.52)" fill="#fff"/>
      <path id="パス_20" data-name="パス 20" d="M166.845,51.193c3.875-1.295,7.732-.149,9.271,2.726.7,1.31,1.316,2.554.031,3.9a4.485,4.485,0,0,1-4.579,1.081c-2.15-.861-4.752-5.109-4.722-7.712" transform="translate(862.218 810.553)" fill="#fff"/>
      <path id="パス_22" data-name="パス 22" d="M155.59,51.728c2.555-.962,4.6.167,6.6.986,1.227.5,1.537,3.994.659,5.124-.754.971-2.906,1.413-3.855.421-1.647-1.722-3.768-3.32-3.4-6.531" transform="translate(859.623 810.713)" fill="#fff"/>
    </g>
    <g id="グループ_6" data-name="グループ 6" transform="translate(375.443 227.455)">
      <path id="パス_5" data-name="パス 5" d="M17.708,162.871c-1.376,1.124-2.334,1.887-3.269,2.673-1.762,1.481-3.405,3.132-5.292,4.431-3,2.063-4.41,1.538-5.816-1.848-.244-.586-.408-1.205-.765-2.281,2.676-2.428,5.548-4.91,8.273-7.545a49.14,49.14,0,0,0,5.749-6.676C12.8,151.43,9.2,151.288,5.377,153.6c-.414-3.646-4.966-5.539-2.64-9.86,5.218,3.619,10.414.647,16.146.391-.2-2.128-.389-4.044-.621-6.464L11.98,139.51l-3.916-6.521c.992-1.138,1.659-2.015,2.441-2.774a20.56,20.56,0,0,1,3.714-3.272,98.5,98.5,0,0,1,9.455-4.777,3.276,3.276,0,0,1,2.968.381,65.591,65.591,0,0,1,4.515,5.737c-.949,4.976-5.944,3.845-8.541,6.552l1.993,1.557v5.379c2.533.383,4.893.411,7,1.152,2.08.731,3.908,2.181,5.9,3.345-2.827,4.986-7.4,1.721-11.024,3.436-.162,1.177-.362,2.631-.574,4.177,2.521,1.522,4.987,2.881,7.314,4.447,3.434,2.312,3.3,3.721-.687,6.2l-6.618-3.942c-1.375,4.731-1.142,9.432-.8,14.12.225,3.047.32,3.04-2.169,5.643-3.425-1.252-5.255-4.007-5.248-7.889.005-2.941,0-5.881,0-9.588" transform="translate(-2.079 -121.975)" fill="#fff"/>
      <path id="パス_9" data-name="パス 9" d="M28.456,136.209c1.852.9,2.848,1.432,3.882,1.871a6.443,6.443,0,0,0,2.465.786c4.085-.121,8.194-.174,12.243-.671a11.36,11.36,0,0,1,7.586,2.05,3.455,3.455,0,0,1,1.39,2.212c.542,3.906,1.093,7.793.443,11.8-.415,2.558-2.3,3.939-3.566,5.81-1.5,2.21-3.714,1.558-5.9,1.468a24.647,24.647,0,0,0-6.473.683,7.321,7.321,0,0,1-8.633-3.743,12.244,12.244,0,0,1-1.738-7.285c.339-4.685.534-9.466-1.693-14.977m21.638,7.529c-4.182.223-8.013.309-11.818.674a4.361,4.361,0,0,0-3.625,5.006c.277,2.367.786,4.707,1.156,6.847,3.5,0,6.564-.011,9.63,0,1.77.008,2.664-.955,3.5-2.468,1.722-3.127,1.753-6.324,1.16-10.061" transform="translate(6.52 -117.335)" fill="#fff"/>
    </g>
    <g id="グループ_7" data-name="グループ 7" transform="translate(262.897 229.954)">
      <path id="パス_2" data-name="パス 2" d="M15.967,179.554c6.652.687,8.416,2.479,9.613,9.495a31.758,31.758,0,0,1,5.732,1.4,4.759,4.759,0,0,1,2.574,2.859c.273,1.452-1.18,2.316-2.619,2.69-1.194.311-2.389.616-3.948,1.018a17.858,17.858,0,0,1-.034,3.241c-.4,2.147.669,3.323,2.38,4.224q3.832,2.018,7.643,4.078c1.467.8,3.017,1.642,2.365,3.715a4.016,4.016,0,0,1-4.918,2.349c-2.439-.887-4.734-2.169-7.528-3.487-.723,3.648.432,7.479.118,11.262-.319,3.844-.273,7.719-.385,11.479-4.481,1.628-7.766.008-9.142-4.242a11.949,11.949,0,0,1-.573-6.15c.473-2.544.109-5.245.109-8.449-2.859,1.9-5.481,3.718-8.192,5.391a8.074,8.074,0,0,1-3.734,1.559c-4.074.025-6.492-5.942-4.971-8.4,1.656-2.682,3.327-5.284,6.225-6.833,3.432-1.836,5.563-4.944,8.031-8.244-3.077-.469-6-.462-8.555-1.434a8.832,8.832,0,0,1-5.639-5.82c2.787-2.1,5.456.953,8.3.244a80.53,80.53,0,0,1,8.748-1.233,26.8,26.8,0,0,0-1.6-10.7" transform="translate(0 -179.554)" fill="#fff"/>
      <path id="パス_10" data-name="パス 10" d="M34.936,185.892c2.293,1.577,4.288,2.829,6.125,4.28a3.222,3.222,0,0,1,1,2.18c.109,3.129.046,6.263.046,9.482,5.716,2.159,12.045,2.285,16,7.406a2.32,2.32,0,0,1-.357.488c-3.194,2.582-6.4,1.708-9.718.18a24.75,24.75,0,0,0-4.421-1.119c0,3.619-.116,6.852.036,10.073.128,2.681-.441,3.836-2.471,4.781a2.533,2.533,0,0,1-3.1-.47c-2.922-2.742-5.215-5.7-4.559-10.167.841-5.714,1.578-11.457,1.994-17.214.221-3.078-.331-6.211-.572-9.9" transform="translate(10.091 -177.639)" fill="#fff"/>
    </g>
    <g id="グループ_8" data-name="グループ 8" transform="translate(153.699 229.617)">
      <path id="パス_6" data-name="パス 6" d="M11.037,250.165l-4.328,1.47c-3.812-1.3-5.053-4.641-6.587-8.452a48.972,48.972,0,0,0,6.087.88,52.967,52.967,0,0,0,6.24-.6c.369-2.767.729-5.48,1.095-8.225,4.441,2.079,4.441,2.079,4.24,7.2,4.8-1.329,8.235,1.041,11.409,4.1-2.663,3.781-6.887,2.3-10.545,3.357l-.629,2.67c3.5,1.765,7.5,2.38,10.187,5.4-1.792,2.406-2.5,2.72-4.885,1.878-1.533-.543-3.007-1.255-4.911-2.062-.212,2.3-.549,4.365-.555,6.429-.008,2.381-.561,4.388-2.629,5.77-3.189-2.555-3.433-3.015-4.056-7.579l-7.983,3.9c-2.754-3.8-2.616-5.305.7-7.763,2.994-2.221,5.839-4.549,7.653-7.851-.166-.174-.334-.346-.5-.518" transform="translate(-0.122 -235.237)" fill="#fff"/>
      <path id="パス_7" data-name="パス 7" d="M25.764,240.355c1.623,1.61,3.636,1.408,5.734.943,1.484-.329,3.007-.5,4.515-.711a11.913,11.913,0,0,1,9.266,2.468c2.9,2.273,2.96,5.648,2.658,9.005-.187,2.07-.373,4.139-.58,6.206a20.831,20.831,0,0,1-.527,4.163c-.757,2.389-2.956,3.083-4.572,1.266-1.474-1.658-2.925-1.652-4.7-1.132-2.095.615-4.183,1.256-6.723,2.021a8.816,8.816,0,0,1-3.694-7.3c-.021-1.985-.324-3.965-.393-5.952a16.3,16.3,0,0,0-1.756-7.807,2.073,2.073,0,0,1,.77-3.167m15.928,7.482c-.147-1.057-.277-2-.405-2.928-5.9.595-9.376,1.557-11.025,3.3,3.946.284,7.494-.323,11.43-.374m-.658,3.581c-5.655.75-5.655.75-7.535,2.556,2.073-.148,3.922-.283,5.77-.413a5.382,5.382,0,0,0,1.044-.05c1.242-.348,1.312-1.112.721-2.094m-.172,7.636c-.8-.984-1.044-1.607-1.429-1.709-1.6-.425-3.891.435-6.208,2.248l7.637-.539" transform="translate(5.103 -234.143)" fill="#fff"/>
      <path id="パス_13" data-name="パス 13" d="M13.489,265.994c2.453,1.775,4.677,3.278,6.785,4.929,4.952,3.879,10.843,5.484,16.776,6.927a6.373,6.373,0,0,0,3.348-.628,28.162,28.162,0,0,0,3.1-1.67c3.843-2,6.049-1.359,8.511,2.584-2.735,4-6.3,6.208-11.437,5.745a28.366,28.366,0,0,1-10.462-2.72,65.023,65.023,0,0,0-7.774-3.085,17.2,17.2,0,0,1-8.33-6.535c-1.5-2.086-1.481-2.1-.517-5.547" transform="translate(2.591 -228.662)" fill="#fff"/>
      <path id="パス_18" data-name="パス 18" d="M42.431,261.424c3.235,1.7,6.449,3.362,9.636,5.075a18.368,18.368,0,0,1,3.271,2.044,2.309,2.309,0,0,1-.093,3.874c-1,.773-2.033,1.5-3.024,2.22a29.16,29.16,0,0,1-11.758-11.085l1.968-2.128" transform="translate(8.502 -229.639)" fill="#fff"/>
      <path id="パス_19" data-name="パス 19" d="M4.462,270.025c2.322,1.552,4.56,2.965,6.682,4.535a2.224,2.224,0,0,1,.614,1.866c-.541,2.587-.42,5.645-4.071,6.511-2.525-1.463-3.971-4.05-5.421-6.523-.469-.8-.13-2.269.227-3.3a15.958,15.958,0,0,1,1.969-3.09" transform="translate(0.287 -227.8)" fill="#fff"/>
      <path id="パス_21" data-name="パス 21" d="M37.323,271.529l-3.891,1.51c-2.334-2.792-6.3-4.135-6.615-8.748,2.77.364,4.646,2.123,7.175,1.663.608-.11,1.667,1.466,2.277,2.421a15.049,15.049,0,0,1,1.055,3.153" transform="translate(5.585 -229.026)" fill="#fff"/>
    </g>
    <path id="パス_4334" data-name="パス 4334" d="M11.8-13.9a13.462,13.462,0,0,1,.82,2.56l1.92-.64a13.288,13.288,0,0,0-.92-2.44,38.753,38.753,0,0,0,4.78-.88l-1.52-1.62A52.856,52.856,0,0,1,7.9-15.68,6.58,6.58,0,0,1,8.44-14c1.62-.06,3.38-.2,5.1-.42ZM8.04-6.12c-.36-.4-1.9-1.96-2.44-2.42v-.52h2v-2.16h-2v-2.94a19.743,19.743,0,0,0,2.32-.76L6.26-16.6A25.383,25.383,0,0,1,.6-15.02a7.7,7.7,0,0,1,.62,1.72c.68-.1,1.4-.2,2.12-.34v2.42H.76v2.16h2.2a19.563,19.563,0,0,1-2.5,5.4A12.953,12.953,0,0,1,1.52-1.4,17.427,17.427,0,0,0,3.34-5.12V1.74H5.6V-6.14c.44.68.88,1.38,1.12,1.84Zm.54,7.4A9.832,9.832,0,0,0,10.14-2.7L8.3-3.3A8.533,8.533,0,0,1,6.78.34Zm11-.88A11.14,11.14,0,0,0,17.4-3.46l-1.72.74A14.83,14.83,0,0,1,16.92-.76a5.567,5.567,0,0,1-1.8-.72c-.06,1.16-.16,1.32-.58,1.32H12.98c-.54,0-.64-.06-.64-.54V-3.14a8.111,8.111,0,0,1,1.34,1.56l1.54-1.1a7.763,7.763,0,0,0-1.5-1.6H18.4v-6.8H16.76c.56-.8,1.22-1.84,1.82-2.78l-1.98-.88a21.7,21.7,0,0,1-1.84,3.44l.46.22H9.74l1.62-.66a8.676,8.676,0,0,0-1.18-2.3l-1.76.64a7.988,7.988,0,0,1,1.06,2.32H8.64v1.7h7.54v.84H9.02v1.66h7.16V-6H8.56v1.72h3.58l-.62.42c.22.18.44.36.66.56H10.3V-.68c0,1.78.44,2.36,2.38,2.36h2.1c1.38,0,1.94-.5,2.16-2.4a9.568,9.568,0,0,1,.78,1.94ZM12.14,8.68A30.245,30.245,0,0,0,9.5,6.4L7.68,7.68a28.617,28.617,0,0,1,2.58,2.36Zm-9.58.5a16.427,16.427,0,0,1,1.16,1.74c.3.52.58,1.08.88,1.68-.6.26-1.2.52-1.78.74a11.789,11.789,0,0,1-1.96.64l1.16,2.54c.84-.38,2.1-1.06,3.52-1.76l.52,1.22A59.672,59.672,0,0,1,8.72,24.2l2.74-.7c-.68-2.22-2.2-6.46-3.12-8.62l-.56-1.22a16.146,16.146,0,0,1,5.82-1.8c1.5,0,2.36.82,2.36,1.84,0,1.42-1.06,2.22-2.58,2.22a7.316,7.316,0,0,1-2.72-.66l-.06,2.48a9.579,9.579,0,0,0,3.04.56c3.04,0,4.94-1.74,4.94-4.52,0-2.3-1.84-4.16-4.92-4.16-2.02,0-4.42.94-6.82,2-.3-.66-.62-1.3-.92-1.88-.22-.36-.62-1.18-.8-1.54ZM6.3,29.96a21.928,21.928,0,0,1-.42,4.2c-1,.08-1.94.14-2.56.16a18.39,18.39,0,0,1-2.1,0L1.44,37c.62-.1,1.64-.24,2.2-.3.38-.06,1-.14,1.7-.22a29.44,29.44,0,0,1-4,9.26l2.6,1.04C5.76,43.86,7.2,39.2,7.96,36.2c.56-.04,1.04-.08,1.36-.08,1.26,0,1.94.22,1.94,1.8a14.648,14.648,0,0,1-.82,5.42,1.44,1.44,0,0,1-1.48.86,11.4,11.4,0,0,1-2.42-.42l.44,2.62a11.056,11.056,0,0,0,2.36.28,3.181,3.181,0,0,0,3.26-1.82c.84-1.72,1.12-4.88,1.12-7.22,0-2.84-1.48-3.78-3.58-3.78-.4,0-1,.04-1.66.08.14-.72.3-1.44.4-2.04.1-.5.24-1.12.36-1.64Zm7.38,3.16a22.875,22.875,0,0,1,3.36,7.54l2.5-1.18a35.7,35.7,0,0,0-3.46-7.36Zm5.2,24.96A35.638,35.638,0,0,0,14,55.4l-1.28,1.96a26.407,26.407,0,0,1,4.76,2.82Zm-7.46-3.04a20.92,20.92,0,0,1-2.66.62c.28-1.06.52-2.06.68-2.7L6.7,52.68A16.864,16.864,0,0,1,6.16,56c-.6.04-1.2.06-1.78.06a25.176,25.176,0,0,1-2.64-.14l.18,2.32c.86.04,1.66.06,2.48.06.34,0,.68,0,1.02-.02a30.219,30.219,0,0,1-4.04,7L3.8,66.5a36.56,36.56,0,0,0,4.24-8.48,29.025,29.025,0,0,0,3.44-.68Zm.48,11.02c0,1.06-.44,1.84-1.78,1.84-1.08,0-1.7-.5-1.7-1.24,0-.7.74-1.18,1.88-1.18a7.009,7.009,0,0,1,1.6.2Zm-.32-6.94c.06,1.2.16,2.94.22,4.42-.42-.04-.88-.08-1.34-.08-2.76,0-4.38,1.5-4.38,3.44,0,2.18,1.94,3.28,4.4,3.28,2.82,0,3.82-1.44,3.82-3.28v-.18a17.632,17.632,0,0,1,2.68,2.1L18.3,66.7a13.2,13.2,0,0,0-4.1-2.54c-.06-.98-.1-1.94-.12-2.5-.02-.88-.06-1.7,0-2.54Zm2.28,23.36a21.608,21.608,0,0,1,3.38,7.3l2.42-1.2a21.376,21.376,0,0,0-3.62-7.2ZM2.4,82.18A15.431,15.431,0,0,1,.38,89.14L2.6,90.42c1.32-1.96,1.84-5.02,2.14-7.76Zm3.66-5.2a26.94,26.94,0,0,1,6.66,3.72l1.56-2.1a29.561,29.561,0,0,0-6.7-3.48Zm-.08,3.78v9.5c0,2.5.7,3.28,3.24,3.28h3.26c2.4,0,3.04-1.18,3.3-4.9a7.261,7.261,0,0,1-2.22-1.04c-.14,3.14-.3,3.76-1.28,3.76H9.54c-.94,0-1.08-.14-1.08-1.1v-9.5ZM14.8,104.6l-1.48.62A15.431,15.431,0,0,1,14.88,108l1.52-.68A26.211,26.211,0,0,0,14.8,104.6Zm2.24-.92-1.46.68a17.594,17.594,0,0,1,1.64,2.7l1.5-.72A29.916,29.916,0,0,0,17.04,103.68ZM1.46,101.32l.26,2.72c2.3-.5,6.46-.94,8.18-1.12a7.854,7.854,0,0,0-2.92,6.1c0,4.3,3.92,6.54,8.08,6.8l.92-2.74c-3.36-.16-6.4-1.34-6.4-4.6a6.012,6.012,0,0,1,4.18-5.54,20.452,20.452,0,0,1,3.82-.26l-.02-2.56c-1.4.06-3.56.18-5.6.34-3.62.32-6.9.62-8.56.76C3.02,101.26,2.26,101.3,1.46,101.32Z" transform="translate(517 371)" fill="#fff"/>
    <path id="パス_4335" data-name="パス 4335" d="M6.9-8.8H9.8V-11H6.9v-3.06a25.383,25.383,0,0,0,2.98-.84L8.34-16.76A35.786,35.786,0,0,1,1-15.04a8.2,8.2,0,0,1,.64,1.86c.92-.12,1.88-.26,2.86-.42V-11H.94v2.2H3.92A17.9,17.9,0,0,1,.5-2.86,10.493,10.493,0,0,1,1.7-.62,17.73,17.73,0,0,0,4.5-5.4V1.72H6.9V-5.66c.66.94,1.3,1.94,1.68,2.62L9.94-5.02C9.5-5.56,7.7-7.66,6.9-8.46Zm5.76,5.72v-9.7h3.2v9.7ZM10.32-15.06V.78h2.34V-.8h3.2V.64h2.46v-15.7Zm2.14,35.18c-.02-.9-.06-2.36-.08-3.46,1.22-.56,2.34-1,3.22-1.34a21,21,0,0,1,2.36-.84l-1-2.3c-.72.34-1.42.68-2.18,1.02-.82.36-1.66.7-2.68,1.18a2.7,2.7,0,0,0-2.64-1.54,6.2,6.2,0,0,0-2.24.4,12.1,12.1,0,0,0,1.14-2,64.522,64.522,0,0,0,6.46-.52l.02-2.32a45.736,45.736,0,0,1-5.6.58c.24-.8.38-1.48.48-1.96L7.12,6.8a11.022,11.022,0,0,1-.4,2.26H5.76a25.411,25.411,0,0,1-3.48-.22v2.32c1.08.1,2.54.14,3.34.14h.24A19.36,19.36,0,0,1,1.5,16.74l2.12,1.58a25.365,25.365,0,0,1,1.84-2.18,4.9,4.9,0,0,1,3.1-1.36,1.548,1.548,0,0,1,1.38.68c-2.26,1.16-4.66,2.76-4.66,5.28,0,2.56,2.34,3.3,5.44,3.3a54.8,54.8,0,0,0,5.6-.32l.08-2.58a30.294,30.294,0,0,1-5.62.58c-1.94,0-2.88-.3-2.88-1.4,0-.98.8-1.76,2.26-2.56-.02.86-.04,1.78-.08,2.36Zm6.42,16.76V34.42H11.02c.2-1.86.22-3.7.24-5.34H8.66c-.02,1.64,0,3.46-.2,5.34H1.18v2.46H8.06A11.99,11.99,0,0,1,.8,45.68,7.047,7.047,0,0,1,2.58,47.7a13.766,13.766,0,0,0,7.48-8.5c1.56,3.86,3.88,6.78,7.5,8.48a9.572,9.572,0,0,1,1.76-2.24c-3.74-1.52-6.16-4.66-7.48-8.56ZM5.48,64.58c-.38,0-.42-.12-.42-.92V59.54l4.26-.84-.36-2.16-3.9.74V52.66H2.72v5.08l-2.24.42.38,2.2L2.72,60v3.66c0,2.44.46,3.18,2.34,3.18H6.72c1.58,0,2.16-.96,2.38-3.9A5.922,5.922,0,0,1,7,61.98c-.06,2.12-.12,2.6-.5,2.6ZM8,53.54v2.28h3c-.08,5.64-.34,10.42-4.84,13.12a6.4,6.4,0,0,1,1.68,1.92c4.92-3.16,5.42-8.68,5.54-15.04h3.1c-.16,8.08-.4,11.28-.94,11.98a.839.839,0,0,1-.78.38c-.46,0-1.4,0-2.44-.08a6.115,6.115,0,0,1,.74,2.44,16.7,16.7,0,0,0,2.9-.06,2.57,2.57,0,0,0,1.82-1.2c.76-1.1.96-4.56,1.16-14.52.02-.32.04-1.22.04-1.22Zm.96,24.5.02,2.56a54.816,54.816,0,0,0,8.5,0V78.04A40.413,40.413,0,0,1,8.96,78.04ZM8.28,86.3a12.206,12.206,0,0,0-.34,2.58c0,2.02,1.62,3.26,5.04,3.26a27.529,27.529,0,0,0,5.12-.4l-.06-2.68a22.826,22.826,0,0,1-4.96.52c-2,0-2.76-.52-2.76-1.4a6.518,6.518,0,0,1,.24-1.66ZM3.14,76.5a14.8,14.8,0,0,1-.2,1.94,54.916,54.916,0,0,0-.82,7.84,25.285,25.285,0,0,0,.78,6.48l2.28-.16c-.02-.28-.02-.6-.04-.82a5.818,5.818,0,0,1,.12-.92A47.752,47.752,0,0,1,6.68,86l-1.24-.96c-.28.64-.6,1.3-.88,2a9.558,9.558,0,0,1-.08-1.28,48.969,48.969,0,0,1,.96-7.26,16.645,16.645,0,0,1,.48-1.76Z" transform="translate(401 371)" fill="#fff"/>
    <path id="パス_4336" data-name="パス 4336" d="M13.02-10.18h-2.5a15.138,15.138,0,0,0,1.22-2.12h1.28ZM3.98-6.3V-7.32H6.44V-6.3ZM6.44-9.82v.98H3.98v-.98ZM19.1-12.3v-2.16H12.62c.22-.66.42-1.34.58-2.04l-2.3-.44a13.841,13.841,0,0,1-2.38,5.48v-.04H6.44v-1.66H4.5v1.66H2.76a16.857,16.857,0,0,0,2.58-3.42,14.313,14.313,0,0,1,2.48,3.08l1.5-1.74a15.961,15.961,0,0,0-3.26-3.34H3.92A12.335,12.335,0,0,1,.26-12.08a6.281,6.281,0,0,1,1.46,1.54l.14-.12v9.38c-.44.08-.84.16-1.2.22L1.3,1.12C2.92.7,4.94.14,6.9-.42a12.39,12.39,0,0,1,.54,1.58L9.46.24A18.834,18.834,0,0,0,7.16-4.4L5.3-3.6c.26.44.54.92.78,1.4-.7.16-1.42.32-2.1.48V-4.6H8.52v-5.98a9.619,9.619,0,0,1,1.12.84v8.52h2.1V-8.1h1.28V1.74H15.2V-8.1h1.46v4.78c0,.16-.06.22-.22.22s-.6,0-1.02-.02a7.08,7.08,0,0,1,.64,2A3.85,3.85,0,0,0,18.2-1.5c.56-.34.68-.9.68-1.8v-6.88H15.2V-12.3ZM6.08,9.36c1.54.4,5.96,1.32,7.96,1.58l.6-2.44A62.7,62.7,0,0,1,6.72,6.96Zm.76,1.58-2.68-.36a72.116,72.116,0,0,1-.98,8.26l2.3.58a4.293,4.293,0,0,1,.74-1.16,6.943,6.943,0,0,1,5.46-2.32c1.74,0,2.96.94,2.96,2.22,0,2.52-3.14,3.98-9.08,3.14l.76,2.6c8.24.72,11.1-2.06,11.1-5.68,0-2.4-2.02-4.54-5.5-4.54A9.712,9.712,0,0,0,6.1,15.56C6.24,14.42,6.58,12.04,6.84,10.94Zm12.32,20.4A24.355,24.355,0,0,0,17.74,29l-1.66.68a17.454,17.454,0,0,1,1.4,2.36ZM7.48,39.7A1.489,1.489,0,0,1,9,38.14a1.457,1.457,0,0,1,1.3.68c.26,1.74-.46,2.38-1.28,2.38A1.493,1.493,0,0,1,7.48,39.7Zm8.98-7.78a19.026,19.026,0,0,0-1.4-2.34l-1.64.68a20.762,20.762,0,0,1,1.3,2.26H12.3c0-.24.02-.44.02-.6.02-.32.08-1.38.14-1.7H9.58c.08.34.14,1.08.2,1.72,0,.16.02.36.02.6-2.68.04-6.26.14-8.54.14l.06,2.4c2.44-.14,5.52-.26,8.52-.3l.02,1.32a5.19,5.19,0,0,0-.8-.06A3.734,3.734,0,0,0,5.1,39.76a3.5,3.5,0,0,0,3.42,3.62,4.276,4.276,0,0,0,.9-.1,8.983,8.983,0,0,1-4.84,2.26L6.7,47.66c4.82-1.36,6.34-4.62,6.34-7.22a4.884,4.884,0,0,0-.74-2.74c0-.86,0-1.94-.02-2.94,2.68,0,4.54.06,5.74.12l.02-2.36c-.58-.02-1.72,0-2.96,0ZM5.32,67.52V65.44h9.5v2.08Zm9.5-6.34v2.06H5.32V61.18Zm0-4.26v2.06H5.32V56.92ZM10.5,54.64c.32-.72.64-1.5.94-2.3l-2.88-.32a22.635,22.635,0,0,1-.54,2.62H2.9V70.72H5.32v-1h9.5v.98h2.54V54.64Zm8.54,23.24a12.527,12.527,0,0,0-1.92-2.64l-1.72.94a13.335,13.335,0,0,1,1.82,2.76ZM3.08,93.76a11.15,11.15,0,0,0,2.24-4.2L3.02,89a9.8,9.8,0,0,1-2.2,3.84ZM6.66,89.7a25.388,25.388,0,0,1,.38,3.82l2.32-.34a26.163,26.163,0,0,0-.5-3.74ZM6.1,83.04A17.62,17.62,0,0,0,3.82,81.4c.24-.3.48-.6.7-.92A18.815,18.815,0,0,1,6.8,81.96,9.991,9.991,0,0,1,6.1,83.04ZM8.22,78.6c-.18.6-.38,1.18-.6,1.72a18.51,18.51,0,0,0-2.16-1.24l.28-.48ZM18.9,81.2V78.98H15.18V75.34H12.94v3.64H10.48c.16-.56.32-1.14.44-1.74l-1.52-.6-.38.08H6.72c.2-.42.38-.86.54-1.28l-2.24-.56a15.52,15.52,0,0,1-4.6,6.86A14.186,14.186,0,0,1,2,83.26c.2-.18.42-.36.62-.56a16.852,16.852,0,0,1,2.24,1.78,12.533,12.533,0,0,1-3.84,2.56A8.087,8.087,0,0,1,2.7,88.86a14.919,14.919,0,0,0,7.58-9.24V81.2H12.8c-.34,2.06-1.46,4.24-4.78,5.92a8.7,8.7,0,0,1,1.66,1.66,9.506,9.506,0,0,0,4.62-4.56,9.1,9.1,0,0,0,3.66,4.64,8.031,8.031,0,0,1,1.6-2.04c-2.08-1.06-3.34-3.1-4.06-5.62Zm-8.28,8.54a21.312,21.312,0,0,1,1.02,3.8l2.38-.46a22.288,22.288,0,0,0-1.16-3.72Zm4-.1a24.3,24.3,0,0,1,2.36,4.1l2.44-.82a27.128,27.128,0,0,0-2.52-4Zm-5.66,11.4.02,2.56a54.816,54.816,0,0,0,8.5,0v-2.56A40.413,40.413,0,0,1,8.96,101.04Zm-.68,8.26a12.206,12.206,0,0,0-.34,2.58c0,2.02,1.62,3.26,5.04,3.26a27.529,27.529,0,0,0,5.12-.4l-.06-2.68a22.826,22.826,0,0,1-4.96.52c-2,0-2.76-.52-2.76-1.4a6.518,6.518,0,0,1,.24-1.66ZM3.14,99.5a14.8,14.8,0,0,1-.2,1.94,54.916,54.916,0,0,0-.82,7.84,25.285,25.285,0,0,0,.78,6.48l2.28-.16c-.02-.28-.02-.6-.04-.82a5.818,5.818,0,0,1,.12-.92A47.752,47.752,0,0,1,6.68,109l-1.24-.96c-.28.64-.6,1.3-.88,2a9.558,9.558,0,0,1-.08-1.28,48.969,48.969,0,0,1,.96-7.26,16.645,16.645,0,0,1,.48-1.76Z" transform="translate(289 371)" fill="#fff"/>
    <path id="パス_4337" data-name="パス 4337" d="M12.32-8.24H16v1.2H12.32Zm0-2.9H16v1.16H12.32Zm0-2.92H16v1.16H12.32ZM8.12-4.4a29.8,29.8,0,0,1,2.64,2.78l1.72-1.44c-.48-.56-1.34-1.4-2.12-2.12h7.92V-15.94H10.16V-5.36l-.4-.36ZM4.3-4.94H6.56V-9.12c.72.66,1.46,1.38,1.92,1.88l1.24-1.9a38.3,38.3,0,0,0-3.16-2.2v-.74H9.38V-14.1H6.56v-2.82H4.3v2.82H1.02v2.02h2.9A11.928,11.928,0,0,1,.52-7.62,8.461,8.461,0,0,1,2.04-5.98,11.5,11.5,0,0,0,4.3-8.88ZM2.84.64A19.549,19.549,0,0,0,4.52-3.72L2.4-4.56A13.683,13.683,0,0,1,.66-.44ZM8.88-.76C7.8-.76,7.6-.84,7.6-1.44v-2.7H5.26V-1.4c0,2.08.68,2.74,3.4,2.74h3.6c2.2,0,2.86-.7,3.16-3.56a5.778,5.778,0,0,1-2.14-.84c-.12,2.02-.26,2.3-1.2,2.3Zm5.98-3.1c.78,1.34,1.88,3.1,2.36,4.16L19.44-.84c-.54-1.04-1.7-2.74-2.5-3.98ZM5.24,8.76,2.2,8.72a11.478,11.478,0,0,1,.14,2c0,1.22.04,3.52.22,5.34.56,5.32,2.46,7.28,4.62,7.28,1.6,0,2.84-1.22,4.16-4.66l-2-2.4c-.38,1.56-1.16,3.88-2.1,3.88-1.24,0-1.84-1.94-2.12-4.8C5,13.94,4.98,12.44,5,11.16A15.694,15.694,0,0,1,5.24,8.76Zm9.9.42-2.52.84c2.16,2.44,3.22,7.1,3.52,10.28l2.62-1C18.54,16.26,17.02,11.48,15.14,9.18ZM12.46,43.12c-.02-.9-.06-2.36-.08-3.46,1.22-.56,2.34-1,3.22-1.34a21,21,0,0,1,2.36-.84l-1-2.3c-.72.34-1.42.68-2.18,1.02-.82.36-1.66.7-2.68,1.18a2.7,2.7,0,0,0-2.64-1.54,6.2,6.2,0,0,0-2.24.4,12.1,12.1,0,0,0,1.14-2,64.522,64.522,0,0,0,6.46-.52l.02-2.32a45.736,45.736,0,0,1-5.6.58c.24-.8.38-1.48.48-1.96l-2.6-.22a11.021,11.021,0,0,1-.4,2.26H5.76a25.411,25.411,0,0,1-3.48-.22v2.32c1.08.1,2.54.14,3.34.14h.24A19.36,19.36,0,0,1,1.5,39.74l2.12,1.58a25.365,25.365,0,0,1,1.84-2.18,4.9,4.9,0,0,1,3.1-1.36,1.548,1.548,0,0,1,1.38.68c-2.26,1.16-4.66,2.76-4.66,5.28,0,2.56,2.34,3.3,5.44,3.3a54.8,54.8,0,0,0,5.6-.32l.08-2.58a30.294,30.294,0,0,1-5.62.58c-1.94,0-2.88-.3-2.88-1.4,0-.98.8-1.76,2.26-2.56-.02.86-.04,1.78-.08,2.36ZM11.02,57.04c-.62,3.82-2.16,6.8-4.96,8.46A13.127,13.127,0,0,1,7.9,67.3a12.842,12.842,0,0,0,4.7-6.58,11.044,11.044,0,0,0,4.8,6.56,10.657,10.657,0,0,1,1.86-1.82c-4.16-2.08-5.36-6.9-5.66-12.56H8.1v2.24h3.48c.06.68.14,1.36.22,2.02Zm-4.96-1.5a16.015,16.015,0,0,0-3.34-3.02L.96,53.96a15.135,15.135,0,0,1,3.22,3.16Zm-.5,4.28H.94V62h2.3v4.22A28.373,28.373,0,0,1,.52,68.06l1.16,2.48c1.08-.84,1.96-1.62,2.84-2.4,1.3,1.56,2.94,2.12,5.4,2.22,2.38.1,6.4.06,8.8-.06a12.456,12.456,0,0,1,.74-2.4c-2.66.2-7.16.26-9.5.16-2.08-.08-3.58-.62-4.4-1.96ZM4.84,89.14c-.72,0-1.12-.62-1.12-1.58a6.044,6.044,0,0,1,1.44-3.72A21.8,21.8,0,0,0,7,87.64,3.238,3.238,0,0,1,4.84,89.14Zm5.42-7.94A23.6,23.6,0,0,1,8.5,85.44,19.845,19.845,0,0,1,7.1,82.3,7.722,7.722,0,0,1,10.26,81.2Zm3.22-2.82c.12-.5.3-1.46.46-2l-2.74-.26A10.689,10.689,0,0,1,11.06,78c-.06.3-.12.62-.2.96a10.325,10.325,0,0,0-4.48,1.18c-.14-.42-.26-.84-.36-1.22-.16-.58-.32-1.24-.44-1.88l-2.6.8a14.57,14.57,0,0,1,.8,2.06c.16.54.34,1.08.52,1.6a8.688,8.688,0,0,0-2.92,6.26c0,2.56,1.52,3.96,3.16,3.96,1.46,0,2.56-.68,3.9-2.12.2.26.44.52.68.78L11.1,88.8c-.36-.36-.72-.76-1.08-1.18a24.111,24.111,0,0,0,2.68-6.3,4.243,4.243,0,0,1,3.2,4.36c0,2.48-1.7,4.7-6.06,5.08l1.52,2.28c4.14-.62,7.14-3.02,7.14-7.22a6.527,6.527,0,0,0-5.2-6.68ZM1.52,101.28,1.76,104c2.3-.5,6.48-.94,8.18-1.12a7.916,7.916,0,0,0-2.92,6.1c0,4.28,3.92,6.52,8.08,6.8l.92-2.74c-3.34-.18-6.4-1.34-6.4-4.6a6.039,6.039,0,0,1,4.18-5.54,20.452,20.452,0,0,1,3.82-.26l-.02-2.56c-1.38.06-3.56.18-5.6.34-3.62.32-6.9.6-8.54.76C3.06,101.22,2.3,101.26,1.52,101.28Zm14.84,20.88a21.132,21.132,0,0,1-1.86,3.52l1.84.68a40.041,40.041,0,0,0,2.44-3.42Zm2.36,6.68a33.317,33.317,0,0,0-5.26-3.06,20.918,20.918,0,0,0,.52-4.7H11.62c-.12,4.52-.4,6.62-5.2,7.76a7.257,7.257,0,0,1,1.28,1.94c2.56-.68,4.06-1.68,4.96-3.08a27.866,27.866,0,0,1,4.6,2.98ZM8.34,135.66a12.75,12.75,0,0,0,1.74-4.2l-2.14-.44a10.1,10.1,0,0,1-1.68,3.68Zm.26-9.16a11.767,11.767,0,0,0,1.68-3.88l-2.06-.44a10.026,10.026,0,0,1-1.66,3.54Zm-1.94-2.84a20.4,20.4,0,0,0-3.62-2.2l-1.46,1.62a20.765,20.765,0,0,1,3.56,2.4Zm-.94,5.3a26.247,26.247,0,0,0-3.68-2.12l-1.48,1.6a26.842,26.842,0,0,1,3.6,2.3Zm-1.38,2.68a56.221,56.221,0,0,1-3.36,6.2l2.16,1.56a69.165,69.165,0,0,0,3.08-6.22Zm12.26,3.74a38.144,38.144,0,0,0,2.38-3.72l-2.46-.8a21.543,21.543,0,0,1-1.82,3.74,8.581,8.581,0,0,1-.98-2.26c.1-.88.14-1.84.18-2.86H11.54c-.14,4.8-.44,7-5.88,8.2a7.019,7.019,0,0,1,1.3,2.06c3.28-.84,4.98-2.1,5.88-3.94a7.725,7.725,0,0,0,5.34,3.88,7.487,7.487,0,0,1,1.42-2.04,6.706,6.706,0,0,1-4.82-2.92Zm-1.04,13.38-.44.1H9.24c.48-1.1.88-2.18,1.24-3.24l-2.66-.6c-1,3.62-3.18,8.16-6.18,10.82a14.422,14.422,0,0,1,2.3,1.34,22.29,22.29,0,0,0,4.2-5.94h5.72a27.244,27.244,0,0,1-2.72,4.86c-1.06-.56-2.14-1.08-3.12-1.5l-1.48,2a28.465,28.465,0,0,1,7.54,4.94l1.66-2.28a15.66,15.66,0,0,0-2.38-1.84,34.578,34.578,0,0,0,4.04-7.68Zm-.74,21.3a13.674,13.674,0,0,1-1.82,1.2c-.94.52-2.66,1.4-4.28,2.34a46.436,46.436,0,0,1-2.48-5.48l-2.5,1.02c.9,2.1,1.86,4.2,2.78,5.9-1.9,1.4-3.28,3.02-3.28,5.22,0,3.4,2.98,4.5,6.92,4.5a38.736,38.736,0,0,0,6.36-.48l.04-2.86a33.126,33.126,0,0,1-6.48.72c-2.74,0-4.12-.76-4.12-2.18,0-1.38,1.1-2.52,2.76-3.6a60.654,60.654,0,0,1,5.52-2.94c.72-.36,1.36-.7,1.96-1.06Z" transform="translate(179 371)" fill="#fff"/>
  </g>
</svg>
