<?xml version="1.0" encoding="utf-8"?>
<!-- Generator: Adobe Illustrator 26.0.2, SVG Export Plug-In . SVG Version: 6.00 Build 0)  -->
<svg version="1.1" id="レイヤー_1" xmlns="http://www.w3.org/2000/svg" xmlns:xlink="http://www.w3.org/1999/xlink" x="0px"
	 y="0px" viewBox="0 0 344 467.3" style="enable-background:new 0 0 344 467.3;" xml:space="preserve">
<style type="text/css">
	.st0{fill:#060001;}
	.st1{enable-background:new    ;}
</style>
<g>
	<g id="グループ_59_00000009573051310283510240000006806389719000939177_" transform="translate(0 214.67)">
		<path id="パス_2_00000060740783592979568500000009997616272970275250_" class="st0" d="M21.6,73.7c8.1,0.8,10.3,3,11.8,11.6
			c2.3,0.5,4.8,0.8,7,1.7c1.5,0.7,2.6,1.9,3.2,3.5c0.3,1.8-1.4,2.8-3.2,3.3c-1.5,0.4-2.9,0.8-4.8,1.2c0.1,1.3,0.1,2.6,0,4
			c-0.5,2.6,0.8,4.1,2.9,5.2c3.1,1.6,6.2,3.3,9.4,5c1.8,1,3.7,2,2.9,4.5c-0.9,2.4-3.6,3.6-6,2.9c-3-1.1-5.8-2.7-9.2-4.3
			c-0.9,4.5,0.5,9.2,0.1,13.8c-0.4,4.7-0.3,9.4-0.5,14c-5.5,2-9.5,0-11.2-5.2c-0.9-2.4-1.1-5-0.7-7.5c0.6-3.1,0.1-6.4,0.1-10.3
			c-3.5,2.3-6.7,4.5-10,6.6c-1.4,0.9-3,1.9-4.6,1.9c-5,0-7.9-7.3-6.1-10.3c2-3.3,4.1-6.5,7.6-8.4c4.2-2.2,6.8-6.1,9.8-10.1
			c-3.8-0.6-7.3-0.6-10.5-1.8c-3.3-1.1-5.9-3.8-6.9-7.1c3.4-2.6,6.7,1.2,10.2,0.3c3.4-0.8,7-1,10.7-1.5
			C23.8,82.4,23.1,77.9,21.6,73.7"/>
		<path id="パス_5_00000078738530717660940010000009808178586668498829_" class="st0" d="M24.1,31.1c-1.7,1.4-2.8,2.3-3.9,3.2
			c-2.1,1.8-4.1,3.8-6.4,5.3c-3.6,2.5-5.3,1.8-7-2.2c-0.3-0.7-0.5-1.4-0.9-2.7c3.2-2.9,6.7-5.9,9.9-9.1c2.5-2.5,4.9-5.1,6.9-8
			c-4.6-0.2-8.9-0.4-13.5,2.4c-0.5-4.4-6-6.7-3.2-11.8c6.3,4.3,12.5,0.8,19.4,0.5c-0.2-2.6-0.5-4.9-0.7-7.8l-7.6,2.2l-4.7-7.8
			c1.2-1.4,2-2.4,2.9-3.3c1.3-1.5,2.8-2.8,4.5-3.9c3.7-2.1,7.5-4,11.4-5.7c1.2-0.4,2.5-0.3,3.6,0.5c1.9,2.2,3.7,4.5,5.4,6.9
			c-1.1,6-7.1,4.6-10.3,7.9l2.4,1.9v6.5c3,0.5,5.9,0.5,8.4,1.4c2.5,0.9,4.7,2.6,7.1,4c-3.4,6-8.9,2.1-13.2,4.1
			c-0.2,1.4-0.4,3.2-0.7,5c3,1.8,6,3.5,8.8,5.3c4.1,2.8,4,4.5-0.8,7.4l-8-4.7c-1.7,5.7-1.4,11.3-1,17c0.3,3.7,0.4,3.7-2.6,6.8
			c-4.1-1.5-6.3-4.8-6.3-9.5C24.1,39.1,24.1,35.6,24.1,31.1"/>
		<path id="パス_6_00000148624184054304041410000013296677290020466054_" class="st0" d="M16.6,182.1l-5.7,1.9
			c-5-1.7-6.6-6.1-8.6-11.1c2.6,0.6,5.3,0.9,8,1.2c2.7-0.1,5.5-0.4,8.2-0.8c0.5-3.6,1-7.2,1.4-10.8c5.8,2.7,5.8,2.7,5.6,9.4
			c6.3-1.7,10.8,1.4,15,5.4c-3.5,5-9,3-13.8,4.4c-0.3,1.1-0.5,2.2-0.8,3.5c4.6,2.3,9.9,3.1,13.4,7.1c-2.4,3.2-3.3,3.6-6.4,2.5
			c-2-0.7-3.9-1.6-6.4-2.7c-0.3,3-0.7,5.7-0.7,8.4c0,3.1-0.7,5.8-3.5,7.6c-4.2-3.4-4.5-4-5.3-10l-10.5,5.1c-3.6-5-3.4-7,0.9-10.2
			c3.9-2.9,7.7-6,10-10.3C17,182.5,16.8,182.3,16.6,182.1"/>
		<path id="パス_7_00000178168410397168152940000001622814791424671416_" class="st0" d="M42.8,170.6c2.1,2.1,4.8,1.8,7.5,1.2
			c1.9-0.4,3.9-0.7,5.9-0.9c4.3-0.7,8.7,0.5,12.2,3.2c3.8,3,3.9,7.4,3.5,11.8c-0.2,2.7-0.5,5.4-0.8,8.1c0,1.8-0.3,3.7-0.7,5.5
			c-1,3.1-3.9,4-6,1.7c-1.9-2.2-3.8-2.2-6.2-1.5c-2.8,0.8-5.5,1.6-8.8,2.7c-3.1-2.2-4.9-5.8-4.8-9.6c0-2.6-0.4-5.2-0.5-7.8
			c-0.1-3.6-0.5-7.1-2.3-10.2C40.9,173.3,40.9,171.9,42.8,170.6 M63.7,180.5c-0.2-1.4-0.4-2.6-0.5-3.8c-7.8,0.8-12.3,2-14.5,4.3
			C53.9,181.3,58.5,180.5,63.7,180.5 M62.8,185.2c-7.4,1-7.4,1-9.9,3.4c2.7-0.2,5.1-0.4,7.6-0.5c0.5,0,0.9,0,1.4-0.1
			C63.5,187.4,63.6,186.4,62.8,185.2 M62.6,195.2c-1-1.3-1.4-2.1-1.9-2.2c-2.1-0.6-5.1,0.6-8.2,3L62.6,195.2"/>
		<path id="パス_9_00000124154231071059155010000014080473022931395724_" class="st0" d="M47.4,4.7c2.2,1.1,3.4,1.7,4.7,2.2
			C53,7.4,54,7.8,55,7.9c4.9-0.1,9.8-0.2,14.7-0.8c3.5-0.4,6.4,0.8,9.1,2.5c0.9,0.6,1.5,1.6,1.7,2.7c0.7,4.7,1.3,9.4,0.5,14.2
			c-0.5,3.1-2.8,4.7-4.3,7c-1.8,2.7-4.5,1.9-7.1,1.8c-2.6-0.1-5.2,0.2-7.8,0.8c-4.4,1-8.1-0.5-10.4-4.5c-1.6-2.6-2.3-5.7-2.1-8.8
			C49.8,17,50.1,11.3,47.4,4.7 M73.4,13.7c-5,0.3-9.6,0.4-14.2,0.8c-2.8,0.3-4.7,3.1-4.4,6c0.3,2.8,0.9,5.7,1.4,8.2
			c4.2,0,7.9,0,11.6,0c2.1,0,3.2-1.1,4.2-3C74.1,22.1,74.1,18.2,73.4,13.7"/>
		<path id="パス_10_00000165218575473307361060000008897127411903164331_" class="st0" d="M57.1,83.8c2.8,1.9,5.2,3.5,7.5,5.2
			c0.7,0.7,1.2,1.7,1.2,2.7c0.1,3.8,0.1,7.7,0.1,11.6c7,2.6,14.7,2.8,19.6,9.1c-0.1,0.2-0.3,0.4-0.4,0.6c-3.9,3.2-7.8,2.1-11.9,0.2
			c-1.8-0.6-3.6-1.1-5.4-1.4c0,4.4-0.1,8.4,0,12.3c0.2,3.3-0.5,4.7-3,5.9c-1.2,0.7-2.8,0.5-3.8-0.6c-3.6-3.4-6.4-7-5.6-12.4
			c1-7,1.9-14,2.4-21.1C58.1,92.2,57.4,88.4,57.1,83.8"/>
		<path id="パス_13_00000075858739990518981780000001216197413462307997_" class="st0" d="M23.4,211.5c3.2,2.3,6.1,4.3,8.9,6.5
			c6.5,5.1,14.2,7.2,22,9.1c1.3,0.3,3-0.3,4.4-0.8c1.4-0.6,2.8-1.4,4.1-2.2c5-2.6,7.9-1.8,11.2,3.4c-3.6,5.3-8.3,8.2-15,7.5
			c-4.8-0.3-9.4-1.5-13.7-3.6c-3.3-1.6-6.7-2.9-10.2-4.1c-4.5-1.6-8.3-4.6-10.9-8.6C22.1,216,22.1,216,23.4,211.5"/>
		<path id="パス_18_00000104700057178323093420000013173222929276499377_" class="st0" d="M69.1,204.2c4.2,2.2,8.5,4.4,12.7,6.7
			c1.5,0.7,3,1.6,4.3,2.7c1.4,0.9,1.7,2.8,0.8,4.2c-0.2,0.4-0.6,0.7-0.9,0.9c-1.3,1-2.7,2-4,2.9c-6.4-3.3-11.8-8.3-15.4-14.6
			L69.1,204.2"/>
		<path id="パス_19_00000037658223717597765850000015066779049051532476_" class="st0" d="M8.5,217.9c3,2,6,3.9,8.8,6
			c0.6,0.6,0.9,1.6,0.8,2.4c-0.7,3.4-0.6,7.4-5.3,8.5c-3.3-1.9-5.2-5.3-7.1-8.6c-0.6-1-0.2-3,0.3-4.3C6.4,220.6,7.5,219.4,8.5,217.9
			"/>
		<path id="パス_21_00000132058260458014820890000014556330531003730864_" class="st0" d="M58.6,218.3l-5.1,2
			c-3.1-3.7-8.3-5.4-8.7-11.5c3.6,0.5,6.1,2.8,9.4,2.2c0.8-0.1,2.2,1.9,3,3.2C57.8,215.1,58,216.4,58.6,218.3"/>
	</g>
	<g>
		<g>
			<path id="パス_3_00000121260221321607491440000015447394894816482997_" class="st0" d="M166.5,271.3c3.7,1.2,6.3,1.5,8.1,2.8
				c6.4,4.6,12.5,9.2,15.7,17.3c4.7,12,15.4,18.9,26.5,23.8c14.9,6.4,31.1,9.4,47.3,8.8c6.2-0.2,12.9-0.7,17.4-6.7
				c3.9-5.2,14.4-6.1,20.4-3.7c4.8,1.9,8,5.2,11.7,8.1c2.6,1.8,3.5,5.2,2.1,8c-2.7,5.8-5.5,11.8-12.9,13.2
				c-6.1,1.2-12.1,2.6-18.1,3.9c-1.2,0.3-2.5,0.1-3.7,0.4c-23.1,6.2-44.1-0.5-64.4-11c-12.6-6.5-23.9-15.2-33.4-25.8
				c-6.6-7.2-11.1-15.9-13.3-25.4C169.1,281.2,168,277.2,166.5,271.3"/>
			<path id="パス_11_00000132774873870436565810000007434493158905018292_" class="st0" d="M163.2,321.7
				c-2.2,6.2-4.1,12.6-6.8,18.6c-2,4.4-6.8,6-11.4,4.7c-2.9-0.7-5.7-1.8-8.3-3.1c-6.1-3.4-7.7-7.7-7-14.7c0.3-4.6,0.4-9.3,0.3-13.9
				c0-4.8,3.1-8,5.8-11.3c0.9-0.8,2.2-1.2,3.4-1c7.6,2,14.5,6,19.9,11.7C161.2,314.8,161.7,318.3,163.2,321.7"/>
			<path id="パス_14_00000175289327441728557330000006169779005381766530_" class="st0" d="M328.6,300.1
				c-7.6,0.5-12.1-5.2-15.9-10.9c-3.2-4.6-5.3-10-7.3-15.3c-2.1-5.5,2.2-10.3,7.7-8.9c4.3,1,8.5,2.4,12.5,4.3
				c7.4,3.7,11.7,10.5,14.5,18C341.8,292.3,334.6,300.4,328.6,300.1"/>
			<path id="パス_15_00000165955966611625627650000003491172496623893409_" class="st0" d="M245.4,263.8c2.8,0.9,5.7,1.5,8.3,2.8
				c5.5,2.8,10.5,6.5,13.8,11.9c2.8,4.6,2,7.7-1.9,11.3c-6.5,6-12.1,6.3-19.3,1.1c-5.6-4.1-9.6-9.4-10.6-16.4
				C235.1,268.7,239.4,264.2,245.4,263.8"/>
		</g>
		<g>
			<path id="パス_1_00000052822671470301752090000009971185717964352397_" class="st0" d="M168.3,144.6c-4.1,4.2-8,8.1-11.7,12.1
				c-5.9,6.4-12.5,9.6-21.1,5.7c-0.5-0.1-1-0.2-1.5-0.2c-0.5-0.1-1-0.3-1.4-0.5c-2.4-8.2-1.8-9.1,4.2-13.9
				c5.7-4.6,10.2-10.2,12.4-17.5c0.8-2.6,2.9-4.7,4.3-7.1c1.7-2.9,3.3-5.9,5.3-9.6c-1.1-0.1-2.2-0.1-3.4,0
				c-13.6,3.5-23.6-0.7-29.8-12.8c-0.6-1.1-1-2.7-1.9-3.2c-4.5-2.4-3.4-6.2-2.8-10.4c1.2,0.4,2.6,0.4,3.4,1.1
				c3.5,3.2,7.6,3.9,12.1,3.4c9.1-1.1,18.2-2.1,27.7-3.2c0.3-2.9,0.6-5.6,0.9-8.8c-1.7,0-3.4-0.5-4.4,0.1c-4.8,2.6-9.5,0.6-14.1-0.3
				c-3.9-0.8-9.6-9.3-8-12.6c1.7-3.2,4.4-5.9,7.7-7.5c8.3-4,15.5-8.8,20.7-16.7c3.8-5.9,8.8-6.2,14.2-1.8c2.2,1.8,4.3,3.6,6.3,5.6
				c1.3,1.2,2.8,2.6,3.2,4.2c1,3.9,1.6,7.9,1.6,11.9c-0.2,5.3-5.7,4-9,5.9c1.9,5.6,3.8,11.1,5.8,17.1c4.6,0,9.8,0.8,14.6-0.2
				c5.9-1.3,10.4-0.5,14,4.5c0.5,0.7,1.6,1,2.6,1.6c-0.7,2.8-0.5,6.3-2.1,7.6c-3.7,3-7.8,5.3-12.3,6.8c-5,1.6-10.5,1.7-16.4,2.5
				c-0.1,2.3-0.2,4.7-0.3,6.6c6.2,3.1,12,5.7,17.4,8.9c5,3,5.4,5.4,3.7,11.6c-6.6,3.1-12.3-1.3-19-2.6c-2.6,9.5-2.7,19-2.3,28.6
				c0.2,4.6,0.7,9.1,0.7,13.7c0,6.5-5.5,10.9-12.1,9.8c-6.9-1.1-12.5-8.4-11.7-15.5c1-7.5,2.3-15,3.4-22.5
				C169.1,146.3,168.6,145.6,168.3,144.6"/>
			<path id="パス_4_00000139999400784924596720000006807866991128800135_" class="st0" d="M225.6,81.7c11,2.9,20-3.1,30.5-3.3
				c-12.8-11.6-15-19.5-7.5-27.8c3.9,2.3,8.4,4.3,12.1,7.2c5.4,4.1,6.1,8.6,3.5,14.9c-0.6,1.3-1.3,2.6-2.4,4.7
				c2.2-0.4,4.4-0.7,6.6-0.8c2,0.2,4,0.6,5.9,1.2c0.1-0.6,0.4-1.2,0.3-1.3c-8.2-8.7-6.2-18.3-2.5-28.1c0.7-1.9,1.5-3.7,2.7-6.6
				c5.6,1.8,11.3,3,16.3,5.5c4.1,2,5.5,6.2,4.9,11.1c-1.1,8.4-5.7,14.4-12,19.6c-0.8,0.6-1.5,1.2-3,2.4c13.1,4.4,15.6,14,13.9,25.7
				c-0.8,5.3-1.1,10.7-2,15.9c-1.3,7.7-3.9,9.6-12,9.9c-7.9,0.3-15.7,0.4-23.6,0.9c-2.7,0.3-5.4,1-8,2c-9.3,3-15.1,0.3-19.7-9.3
				c7.8-1.3,15.4-3,23.1-3.9c7.8-1,15.6-1.2,23.7-1.8v-9.7c-6.8,0.4-13,2.2-19.2,4.3c-2.6,0.9-5.3,1.7-8,2.3
				c-8,1.7-12.5-1.2-15.2-9.5c14.7-1.2,28.2-8.3,43.3-7.7v-12c-1.6-0.2-2.7-0.6-3.5-0.3c-7.7,2.6-15.4,5.3-23.1,7.9
				c-0.2,0.1-0.4,0.3-0.7,0.4C237.2,100.3,229.2,96,225.6,81.7"/>
			<path id="パス_8_00000179623026969694430400000001929737825726518932_" class="st0" d="M263.8,0.9
				c10.1,4.4,16.2,11.6,20.4,23.7c-4.4,9.3-13.7,11-21.9,14.6c-9.7,4.3-20.8,3.9-30.2,9.5c-5,3-9.9-0.3-12.1-6.1
				c-0.5-1.4-1.3-2.8-2-4.5c2.4-3.3,5.9-5.8,9.8-7c5.9-2.1,10.8-7.1,15.7-11.3C250.5,13.7,257.2,7.1,263.8,0.9"/>
			<path id="パス_12_00000158731350478379050970000005685996892576216482_" class="st0" d="M239.6,141c5.8,2.8,11.2,4.7,13.4,10.6
				c0.5,0.9,1.3,1.5,2.2,1.9c6.4,3,12.8,6.2,19.3,8.9c5.2,2.2,9.8,0.8,13.6-3.4c0.7-1,1.6-2,2.5-2.8c3.2-2.2,6.8-4.4,10.6-2.5
				c4.7,2.4,9.2,5.4,11.1,10.8c0.1,0.4-0.1,1-0.2,1.4c-0.8,6.5-8.7,14-15.3,14.7c-11.7,1.2-22-2.9-31.7-8.8
				c-11.1-6.7-20.9-14.6-25.1-27.6C239.9,143.3,239.7,142.2,239.6,141"/>
			<path id="パス_16_00000149383631149823780100000014281133993640395428_" class="st0" d="M215.5,146.5c4.4,0.9,8.6,1.6,12.7,2.6
				c3.7,0.9,6.3,4,5.4,7.1c-1.4,5-2.2,10.3-5.8,14.5c-4.3,5.1-6.5,5.2-13.3,2.1c-5.4-2.5-7.6-8.1-5.5-13.2
				C210.9,155.1,213.4,150.8,215.5,146.5"/>
			<path id="パス_17_00000157989418552549473260000017989278126428751261_" class="st0" d="M216.8,53.7c8,0.1,14.6,1,20.4,5.6
				c2.9,2.4,4.5,4.7,3.6,8.4c-0.9,3.7-2.1,7.2-3.1,10.7c-10.9,2.4-18.1-2.5-19.4-13C217.8,61.5,217.3,57.7,216.8,53.7"/>
			<path id="パス_20_00000160162153362055969110000000367287487228250257_" class="st0" d="M299.8,135.4
				c8.3-2.8,16.6-0.3,19.8,5.8c1.5,2.8,2.8,5.5,0.1,8.4c-2.6,2.6-6.4,3.5-9.8,2.3C305.3,150.1,299.7,141,299.8,135.4"/>
			<path id="パス_22_00000038388635120503352840000009954301140393603993_" class="st0" d="M270.1,136.9c5.5-2.1,9.8,0.4,14.1,2.1
				c2.6,1.1,3.3,8.6,1.4,11c-1.6,2.1-6.2,3-8.3,0.9C273.9,147.2,269.4,143.8,270.1,136.9"/>
		</g>
	</g>
	<g>
		<g class="st1">
			<path class="st0" d="M172.4,402.8c0-1.4,0.3-2.6,1-3.8c0.7-1.1,1.6-2,2.7-2.7c1.2-0.7,2.4-1,3.9-1c1.5,0,2.7,0.3,3.9,1
				c1.1,0.7,2,1.6,2.7,2.7c0.7,1.1,1,2.4,1,3.8c0,1.4-0.3,2.6-1,3.8c-0.7,1.1-1.6,2-2.7,2.7c-1.2,0.7-2.5,1-3.9,1
				c-1.4,0-2.7-0.3-3.9-1c-1.1-0.6-2-1.5-2.7-2.7C172.8,405.6,172.4,404.3,172.4,402.8z M174.1,402.9c0,1.1,0.3,2.1,0.8,3
				c0.5,0.9,1.2,1.6,2.1,2.2c0.9,0.5,1.9,0.8,3,0.8s2.1-0.3,3-0.8c0.9-0.5,1.6-1.3,2.1-2.2c0.5-0.9,0.8-1.9,0.8-3
				c0-1.1-0.3-2.1-0.8-3c-0.5-0.9-1.2-1.6-2.1-2.2s-1.9-0.8-3-0.8c-1.1,0-2.1,0.3-3,0.9c-0.9,0.6-1.6,1.3-2.1,2.2
				C174.4,400.9,174.1,401.8,174.1,402.9z"/>
			<path class="st0" d="M202.1,395.8l0.2,4.5l-0.2-0.9c0.4-1.2,1.2-2.2,2.3-2.9s2.4-1.1,3.8-1.1c1.3,0,2.4,0.4,3.2,1.2
				c0.8,0.8,1.2,1.8,1.3,3.1V410H211v-9.9c0-0.9-0.3-1.7-0.9-2.3c-0.6-0.6-1.4-0.9-2.4-0.9c-0.9,0-1.8,0.2-2.7,0.7
				c-0.8,0.5-1.5,1.1-2,1.9c-0.5,0.8-0.7,1.8-0.7,2.9v7.6h-1.7v-14.2H202.1z"/>
		</g>
		<path class="st0" d="M222.2,404h6.7v1.5h-6.7V404z"/>
		<path class="st0" d="M215.3,451.5c-0.8,0-1.7-0.1-2.6-0.5c-0.9-0.3-1.6-0.8-2.2-1.5l0.8-1.1c0.5,0.5,1.1,0.9,1.7,1.2
			c0.7,0.3,1.4,0.5,2.1,0.5c0.6,0,1.1-0.1,1.6-0.2c0.5-0.2,0.9-0.4,1.2-0.8c0.3-0.4,0.5-0.9,0.5-1.6c0-0.7-0.2-1.2-0.6-1.6
			c-0.4-0.4-0.9-0.7-1.4-0.9c-0.6-0.2-1.2-0.4-1.8-0.6c-1-0.3-1.9-0.8-2.6-1.4c-0.7-0.6-1-1.4-1-2.5c0-0.8,0.2-1.5,0.6-2
			c0.4-0.6,0.9-1,1.5-1.4c0.7-0.3,1.4-0.5,2.2-0.5c0.8,0,1.5,0.1,2.2,0.4c0.7,0.2,1.4,0.7,2,1.2l-0.8,1.2c-0.4-0.5-0.9-0.9-1.5-1.1
			c-0.6-0.2-1.2-0.3-1.7-0.3c-0.4,0-0.8,0.1-1.3,0.3c-0.5,0.2-0.8,0.4-1.1,0.7c-0.3,0.3-0.5,0.8-0.5,1.3c0,0.6,0.2,1,0.5,1.4
			c0.3,0.4,0.7,0.6,1.2,0.9c0.5,0.2,1,0.4,1.5,0.6c0.7,0.2,1.4,0.5,2,0.8c0.6,0.3,1.1,0.7,1.5,1.2c0.4,0.5,0.6,1.2,0.6,2
			s-0.2,1.6-0.5,2.2c-0.4,0.7-0.9,1.2-1.6,1.6S216.4,451.5,215.3,451.5z"/>
		<path class="st0" d="M233.3,451.2v-27.6h1.7v17.2l-0.1-0.6c0.5-1,1.3-1.8,2.3-2.5c1.1-0.7,2.3-1,3.7-1c1.3,0,2.4,0.4,3.2,1.2
			c0.8,0.8,1.2,1.8,1.3,3.1v10.4h-1.7v-9.9c0-0.9-0.3-1.7-0.9-2.3c-0.6-0.6-1.4-0.9-2.4-0.9c-0.9,0-1.8,0.2-2.7,0.7
			c-0.8,0.5-1.5,1.1-2,2c-0.5,0.8-0.7,1.8-0.7,2.8v7.6H233.3z"/>
		<path class="st0" d="M259.5,431.8c0-0.3,0.1-0.6,0.4-0.9c0.3-0.2,0.6-0.3,0.9-0.3c0.3,0,0.6,0.1,0.9,0.3c0.2,0.2,0.4,0.5,0.4,0.9
			c0,0.4-0.1,0.7-0.4,0.9c-0.2,0.2-0.5,0.3-0.9,0.3c-0.3,0-0.6-0.1-0.9-0.4C259.6,432.4,259.5,432.1,259.5,431.8z M259.9,437h1.7
			v14.2h-1.7V437z"/>
		<path class="st0" d="M277.5,437l0.2,4.5l-0.2-0.9c0.4-1.2,1.2-2.2,2.3-2.9c1.2-0.7,2.4-1.1,3.8-1.1c1.3,0,2.4,0.4,3.2,1.2
			c0.8,0.8,1.2,1.8,1.3,3.1v10.4h-1.7v-9.9c0-0.9-0.3-1.7-0.9-2.3c-0.6-0.6-1.4-0.9-2.4-0.9c-0.9,0-1.8,0.2-2.7,0.7
			c-0.8,0.5-1.5,1.1-2,1.9c-0.5,0.8-0.7,1.8-0.7,2.9v7.6H276V437H277.5z"/>
	</g>
</g>
</svg>
